<svg width="25" height="25" viewBox="0 0 25 25" fill="none" xmlns="http://www.w3.org/2000/svg">
<path d="M23.1479 0.00186414H1.84478C0.837949 -0.00949818 0.0122878 0.797011 0 1.80385V23.1958C0.0118671 24.2031 0.837461 25.0104 1.84478 24.9999H23.1479C24.1572 25.0124 24.986 24.2051 25 23.1958V1.80231C24.9856 0.793479 24.1567 -0.0129846 23.1479 0.000158387" fill="#0A66C2"/>
<path d="M17.5969 21.3016H21.3012L21.3027 14.7573C21.3027 11.5446 20.6105 9.07508 16.8561 9.07508C15.4208 9.02181 14.0726 9.76229 13.3475 11.0021H13.2977V9.37181H9.74169V21.3012H13.4459V15.3998C13.4459 13.8436 13.7411 12.3364 15.6704 12.3364C17.5723 12.3364 17.5969 14.1172 17.5969 15.5005V21.3016Z" fill="white"/>
<path d="M3.41211 5.59189C3.41232 6.7791 4.37491 7.74136 5.5621 7.74115C6.13221 7.74105 6.67893 7.51447 7.08199 7.11126C7.48504 6.70805 7.71142 6.16124 7.71132 5.59111C7.7111 4.40389 6.74852 3.44164 5.56133 3.44185C4.37413 3.44206 3.4119 4.40467 3.41211 5.59189Z" fill="white"/>
<path d="M3.70613 21.3016H7.41421V9.37181H3.70613V21.3016Z" fill="white"/>
</svg>
