<svg width="30" height="30" viewBox="0 0 30 30" fill="none" xmlns="http://www.w3.org/2000/svg">
<path fill-rule="evenodd" clip-rule="evenodd" d="M10.0734 1.02788C10.111 1.00707 10.1491 0.996524 10.1899 0.996106C10.2774 0.995266 10.3604 1.03899 10.4071 1.12322L11.6412 3.34779C12.6507 2.89999 13.7831 2.64864 14.9781 2.64864C16.173 2.64864 17.3054 2.89999 18.3149 3.34779L19.549 1.12322C19.5957 1.03899 19.6787 0.995261 19.7662 0.996106C19.8071 0.996495 19.8451 1.00707 19.8827 1.02788C20.006 1.09624 20.0466 1.23794 19.978 1.36157L18.7598 3.56231C21.1036 4.78185 22.6867 7.09946 22.6899 9.75932H7.26621C7.26938 7.09946 8.85249 4.78185 11.1963 3.56231L9.97807 1.36157C9.90954 1.23794 9.95009 1.09624 10.0734 1.02788ZM10.7752 6.2927C10.7752 5.94061 11.0666 5.64917 11.4187 5.64917C11.7708 5.64917 12.0623 5.94061 12.0623 6.2927C12.0623 6.6448 11.7708 6.93624 11.4187 6.93624C11.0666 6.93624 10.7752 6.6448 10.7752 6.2927ZM17.8938 6.2927C17.8938 5.94061 18.1853 5.64917 18.5373 5.64917C18.8894 5.64917 19.1809 5.94061 19.1809 6.2927C19.1809 6.6448 18.8894 6.93624 18.5373 6.93624C18.1853 6.93624 17.8938 6.6448 17.8938 6.2927Z" fill="#A4C639"/>
<path d="M10.3674 27.2248V23.4113H9.13061C8.09773 23.4113 7.26621 22.5798 7.26621 21.5469V10.3684H22.6899V21.5469C22.6899 22.5798 21.8584 23.4113 20.8255 23.4113H19.5887V27.2248C19.5887 28.1879 18.8224 28.9542 17.8594 28.9542C16.8964 28.9542 16.1301 28.1879 16.1301 27.2248V23.4113H13.826V27.2248C13.826 28.1879 13.0597 28.9542 12.0967 28.9542C11.1337 28.9542 10.3674 28.1879 10.3674 27.2248Z" fill="#A4C639"/>
<path d="M3.16406 11.8012C3.16406 10.8381 3.93036 10.0718 4.8934 10.0718C5.85644 10.0718 6.62274 10.8381 6.62274 11.8012V19.0045C6.62274 19.9676 5.85644 20.7339 4.8934 20.7339C3.93036 20.7339 3.16406 19.9676 3.16406 19.0045V11.8012Z" fill="#A4C639"/>
<path d="M23.3335 11.8012C23.3335 10.8381 24.0998 10.0718 25.0628 10.0718C26.0259 10.0718 26.7922 10.8381 26.7922 11.8012V19.0045C26.7922 19.9676 26.0259 20.7339 25.0628 20.7339C24.0998 20.7339 23.3335 19.9676 23.3335 19.0045V11.8012Z" fill="#A4C639"/>
</svg>
