<svg width="30" height="30" viewBox="0 0 30 30" fill="none" xmlns="http://www.w3.org/2000/svg">
<g clip-path="url(#clip0_79_1947)">
<path d="M13.7202 0.533719L0.531775 13.7113C-0.177258 14.4198 -0.177258 15.564 0.531775 16.2725L13.7202 29.4501C14.4293 30.1585 15.5745 30.1585 16.2835 29.4501L21.8132 23.9249C22.4482 23.2904 22.4482 22.2618 21.8132 21.6273C21.1782 20.9928 20.1487 20.9928 19.5137 21.6273L15.3217 25.8159C15.1452 25.9922 14.8774 25.9922 14.7009 25.8159L4.16896 15.2926C3.99249 15.1163 3.99249 14.8487 4.16896 14.6723L14.7009 4.14909C14.8774 3.97276 15.1452 3.97276 15.3217 4.14909L19.5137 8.33769C20.1487 8.97215 21.1782 8.97215 21.8132 8.33769C22.4482 7.70322 22.4482 6.67454 21.8132 6.04007L16.2841 0.515495C15.5722 -0.177624 14.4265 -0.172013 13.7202 0.533719Z" fill="url(#paint0_linear_79_1947)"/>
<path d="M13.7202 0.533719L0.531775 13.7113C-0.177258 14.4198 -0.177258 15.564 0.531775 16.2725L13.7202 29.4501C14.4293 30.1585 15.5745 30.1585 16.2835 29.4501L21.8132 23.9249C22.4482 23.2904 22.4482 22.2618 21.8132 21.6273C21.1782 20.9928 20.1487 20.9928 19.5137 21.6273L15.3217 25.8159C15.1452 25.9922 14.8774 25.9922 14.7009 25.8159L4.16896 15.2926C3.99249 15.1163 3.99249 14.8487 4.16896 14.6723L14.7009 4.14909C15.1403 3.77027 15.8573 3.00297 16.9101 2.82351C17.6926 2.69015 18.5481 2.98369 19.4765 3.70415C18.8558 3.08394 17.7916 2.02105 16.2841 0.515495C15.5722 -0.177624 14.4265 -0.172013 13.7202 0.533719Z" fill="url(#paint1_linear_79_1947)"/>
<path d="M23.0896 20.4019C23.7246 21.0363 24.7541 21.0363 25.3891 20.4019L29.4681 16.3262C30.1771 15.6178 30.1771 14.4735 29.4682 13.7651L25.3536 9.66854C24.7171 9.03482 23.6873 9.03574 23.0519 9.67058C22.4169 10.305 22.4169 11.3337 23.0519 11.9682L25.8309 14.7449C26.0074 14.9212 26.0074 15.1889 25.8309 15.3652L23.0896 18.1042C22.4546 18.7387 22.4546 19.7674 23.0896 20.4019Z" fill="url(#paint2_linear_79_1947)"/>
<path d="M15.0677 18.6159C17.0343 18.6159 18.6286 17.023 18.6286 15.058C18.6286 13.0929 17.0343 11.5 15.0677 11.5C13.1011 11.5 11.5068 13.0929 11.5068 15.058C11.5068 17.023 13.1011 18.6159 15.0677 18.6159Z" fill="url(#paint3_linear_79_1947)"/>
</g>
<defs>
<linearGradient id="paint0_linear_79_1947" x1="13.8423" y1="8.01721e-07" x2="26.3751" y2="7.65362" gradientUnits="userSpaceOnUse">
<stop stop-color="#4285EB"/>
<stop offset="1" stop-color="#2EC7FF"/>
</linearGradient>
<linearGradient id="paint1_linear_79_1947" x1="15.5233" y1="-2.0935e-07" x2="9.33322" y2="31.992" gradientUnits="userSpaceOnUse">
<stop stop-color="#29CDFF"/>
<stop offset="0.378601" stop-color="#148EFF"/>
<stop offset="1" stop-color="#0A60FF"/>
</linearGradient>
<linearGradient id="paint2_linear_79_1947" x1="27.7497" y1="7.67794" x2="19.6954" y2="20.2741" gradientUnits="userSpaceOnUse">
<stop stop-color="#FA816E"/>
<stop offset="0.414726" stop-color="#F74A5C"/>
<stop offset="1" stop-color="#F51D2C"/>
</linearGradient>
<linearGradient id="paint3_linear_79_1947" x1="16.3587" y1="8.96029" x2="13.6789" y2="19.6802" gradientUnits="userSpaceOnUse">
<stop stop-color="#FA8E7D"/>
<stop offset="0.512635" stop-color="#F74A5C"/>
<stop offset="1" stop-color="#F51D2C"/>
</linearGradient>
<clipPath id="clip0_79_1947">
<rect width="30" height="30" fill="white"/>
</clipPath>
</defs>
</svg>
