<svg width="30" height="30" viewBox="0 0 30 30" fill="none" xmlns="http://www.w3.org/2000/svg">
<path d="M8.45428 12.5506C8.45428 12.9198 8.49419 13.2191 8.56404 13.4386C8.64386 13.6581 8.74364 13.8976 8.88333 14.157C8.93321 14.2368 8.95317 14.3166 8.95317 14.3865C8.95317 14.4863 8.8933 14.586 8.76359 14.6858L8.135 15.1049C8.0452 15.1647 7.9554 15.1947 7.87558 15.1947C7.7758 15.1947 7.67602 15.1448 7.57625 15.055C7.43656 14.9053 7.31683 14.7457 7.21705 14.586C7.11727 14.4164 7.0175 14.2268 6.90774 13.9973C6.12948 14.9153 5.15167 15.3743 3.9743 15.3743C3.13618 15.3743 2.46767 15.1348 1.97877 14.6559C1.48986 14.1769 1.24042 13.5384 1.24042 12.7402C1.24042 11.8921 1.53975 11.2036 2.14839 10.6848C2.75703 10.1659 3.56522 9.9065 4.59292 9.9065C4.93216 9.9065 5.28138 9.93643 5.65055 9.98632C6.01973 10.0362 6.39888 10.116 6.79799 10.2058V9.47746C6.79799 8.71915 6.63835 8.19034 6.32904 7.88103C6.00975 7.57172 5.47096 7.42205 4.70267 7.42205C4.35346 7.42205 3.99426 7.46197 3.62508 7.55176C3.25591 7.64156 2.89671 7.75132 2.54749 7.89101C2.38785 7.96085 2.26812 8.00076 2.19828 8.02072C2.12843 8.04067 2.07854 8.05065 2.03863 8.05065C1.89894 8.05065 1.8291 7.95087 1.8291 7.74134V7.25243C1.8291 7.09279 1.84906 6.97306 1.89894 6.90321C1.94883 6.83337 2.03863 6.76353 2.17832 6.69368C2.52754 6.51409 2.9466 6.36442 3.43551 6.24469C3.92441 6.11498 4.44325 6.05511 4.99203 6.05511C6.17937 6.05511 7.04743 6.32451 7.60618 6.8633C8.15495 7.4021 8.43433 8.22027 8.43433 9.31781V12.5506H8.45428ZM4.40334 14.0672C4.73261 14.0672 5.07185 14.0073 5.43105 13.8876C5.79024 13.7679 6.10953 13.5484 6.37893 13.249C6.53857 13.0594 6.6583 12.8499 6.71817 12.6105C6.77803 12.371 6.81794 12.0816 6.81794 11.7424V11.3233C6.52859 11.2535 6.21928 11.1936 5.9 11.1537C5.58071 11.1138 5.2714 11.0938 4.96209 11.0938C4.29359 11.0938 3.80468 11.2236 3.47542 11.493C3.14616 11.7623 2.98651 12.1415 2.98651 12.6404C2.98651 13.1093 3.10624 13.4586 3.35569 13.698C3.59515 13.9475 3.94437 14.0672 4.40334 14.0672ZM12.4154 15.1448C12.2358 15.1448 12.1161 15.1149 12.0363 15.045C11.9565 14.9851 11.8866 14.8455 11.8267 14.6559L9.48199 6.94313C9.42212 6.74357 9.39219 6.61386 9.39219 6.54402C9.39219 6.38438 9.47201 6.29458 9.63165 6.29458H10.6095C10.799 6.29458 10.9288 6.32451 10.9986 6.39435C11.0784 6.45422 11.1383 6.59391 11.1981 6.78348L12.8744 13.3887L14.4309 6.78348C14.4808 6.58393 14.5407 6.45422 14.6205 6.39435C14.7003 6.33449 14.84 6.29458 15.0196 6.29458H15.8178C16.0074 6.29458 16.1371 6.32451 16.2169 6.39435C16.2967 6.45422 16.3666 6.59391 16.4065 6.78348L17.983 13.4685L19.7091 6.78348C19.769 6.58393 19.8388 6.45422 19.9087 6.39435C19.9885 6.33449 20.1182 6.29458 20.2978 6.29458H21.2257C21.3854 6.29458 21.4752 6.3744 21.4752 6.54402C21.4752 6.59391 21.4652 6.6438 21.4552 6.70366C21.4452 6.76353 21.4253 6.84335 21.3854 6.9531L18.9807 14.6659C18.9209 14.8654 18.851 14.9951 18.7712 15.055C18.6914 15.1149 18.5617 15.1548 18.3921 15.1548H17.534C17.3444 15.1548 17.2147 15.1248 17.1349 15.055C17.0551 14.9851 16.9852 14.8554 16.9453 14.6559L15.3988 8.22027L13.8622 14.6459C13.8123 14.8455 13.7524 14.9752 13.6726 15.045C13.5928 15.1149 13.4531 15.1448 13.2735 15.1448H12.4154ZM25.2368 15.4142C24.7179 15.4142 24.1991 15.3543 23.7002 15.2346C23.2013 15.1149 22.8122 14.9851 22.5528 14.8355C22.3931 14.7457 22.2834 14.6459 22.2434 14.5561C22.2035 14.4663 22.1836 14.3665 22.1836 14.2767V13.7679C22.1836 13.5583 22.2634 13.4586 22.4131 13.4586C22.4729 13.4586 22.5328 13.4685 22.5927 13.4885C22.6525 13.5084 22.7423 13.5484 22.8421 13.5883C23.1813 13.7379 23.5505 13.8577 23.9397 13.9375C24.3388 14.0173 24.7279 14.0572 25.127 14.0572C25.7556 14.0572 26.2445 13.9475 26.5837 13.728C26.923 13.5084 27.1026 13.1892 27.1026 12.7801C27.1026 12.5007 27.0128 12.2712 26.8332 12.0816C26.6536 11.8921 26.3143 11.7224 25.8254 11.5628L24.3787 11.1138C23.6503 10.8843 23.1115 10.5451 22.7822 10.0961C22.453 9.65706 22.2834 9.16815 22.2834 8.64931C22.2834 8.23025 22.3732 7.86107 22.5528 7.54179C22.7324 7.2225 22.9718 6.94313 23.2711 6.72362C23.5705 6.49413 23.9097 6.32451 24.3088 6.20478C24.7079 6.08504 25.127 6.03516 25.566 6.03516C25.7855 6.03516 26.015 6.04513 26.2345 6.07507C26.464 6.105 26.6735 6.14491 26.8831 6.18482C27.0826 6.23471 27.2722 6.2846 27.4518 6.34446C27.6314 6.40433 27.7711 6.4642 27.8709 6.52406C28.0106 6.60388 28.1103 6.68371 28.1702 6.7735C28.2301 6.85333 28.26 6.96308 28.26 7.10277V7.57172C28.26 7.78125 28.1802 7.89101 28.0305 7.89101C27.9507 7.89101 27.821 7.8511 27.6514 7.77127C27.0826 7.51185 26.4441 7.38214 25.7356 7.38214C25.1669 7.38214 24.7179 7.47194 24.4086 7.66152C24.0993 7.8511 23.9397 8.14045 23.9397 8.54953C23.9397 8.82891 24.0394 9.06837 24.239 9.25795C24.4385 9.44752 24.8077 9.6371 25.3365 9.80672L26.7534 10.2557C27.4718 10.4852 27.9906 10.8045 28.2999 11.2136C28.6092 11.6227 28.7589 12.0916 28.7589 12.6105C28.7589 13.0395 28.6691 13.4286 28.4995 13.7679C28.3199 14.1071 28.0804 14.4064 27.7711 14.6459C27.4618 14.8953 27.0926 15.0749 26.6636 15.2046C26.2146 15.3443 25.7456 15.4142 25.2368 15.4142Z" fill="#252F3E"/>
<path d="M27.1225 20.2633C23.8399 22.6879 19.0706 23.975 14.9697 23.975C9.22258 23.975 4.04416 21.8498 0.132904 18.3177C-0.176404 18.0383 0.102971 17.6592 0.472146 17.8787C4.70268 20.3332 9.92101 21.8198 15.3189 21.8198C18.9608 21.8198 22.9618 21.0615 26.6436 19.505C27.1924 19.2556 27.6613 19.8642 27.1225 20.2633ZM28.4895 18.7068C28.0704 18.168 25.7157 18.4474 24.6481 18.5771C24.3288 18.617 24.2789 18.3376 24.5683 18.1281C26.4441 16.811 29.5272 17.1902 29.8864 17.6292C30.2456 18.0782 29.7866 21.1613 28.0305 22.638C27.7611 22.8675 27.5017 22.7478 27.6214 22.4484C28.0205 21.4606 28.9085 19.2356 28.4895 18.7068Z" fill="#FF9900"/>
</svg>
