<svg width="30" height="30" viewBox="0 0 30 30" fill="none" xmlns="http://www.w3.org/2000/svg">
<path d="M10.0012 0.879247H18.8784L9.66295 28.1837C9.46874 28.759 8.92926 29.1465 8.32206 29.1465H1.41335C0.958162 29.1465 0.530817 28.9274 0.265311 28.5576C-0.000194013 28.1879 -0.0713491 27.7129 0.0741573 27.2816L8.65992 1.84205C8.85406 1.26649 9.39375 0.878906 10.0012 0.878906V0.879247Z" fill="url(#paint0_linear_364_2445)"/>
<path d="M22.9011 19.1932H8.8239C8.55607 19.1929 8.31535 19.3566 8.21709 19.6057C8.11883 19.8549 8.18305 20.1388 8.37898 20.3214L17.4247 28.7643C17.688 29.01 18.0348 29.1465 18.395 29.1465H26.366L22.9011 19.1932Z" fill="#0078D4"/>
<path d="M10.0012 0.879283C9.38654 0.876935 8.84181 1.27467 8.65688 1.86085L0.0847511 27.2585C-0.0705966 27.6915 -0.00517323 28.173 0.260069 28.5489C0.525312 28.9248 0.957089 29.1478 1.41713 29.1466H8.50414C9.04151 29.0505 9.48566 28.6728 9.66673 28.1578L11.3762 23.1199L17.4823 28.8152C17.7382 29.0268 18.0592 29.1439 18.3913 29.1466H26.3327L22.8497 19.1933L12.6963 19.1957L18.9105 0.879283H10.0012Z" fill="url(#paint1_linear_364_2445)"/>
<path d="M21.3397 1.84071C21.1458 1.26608 20.6069 0.879272 20.0005 0.879272H10.1069C10.7133 0.879272 11.2521 1.26614 11.4461 1.84071L20.0322 27.2813C20.1778 27.7127 20.1067 28.1878 19.8412 28.5576C19.5757 28.9275 19.1483 29.1469 18.693 29.1469H28.5869C29.0422 29.1469 29.4695 28.9274 29.7349 28.5575C30.0003 28.1877 30.0714 27.7126 29.9258 27.2813L21.3397 1.84071Z" fill="url(#paint2_linear_364_2445)"/>
<defs>
<linearGradient id="paint0_linear_364_2445" x1="11.1329" y1="2.97395" x2="2.43874" y2="28.6588" gradientUnits="userSpaceOnUse">
<stop stop-color="#114A8B"/>
<stop offset="1" stop-color="#0669BC"/>
</linearGradient>
<linearGradient id="paint1_linear_364_2445" x1="15.7263" y1="15.6667" x2="13.847" y2="16.3021" gradientUnits="userSpaceOnUse">
<stop stop-opacity="0.3"/>
<stop offset="0.071" stop-opacity="0.2"/>
<stop offset="0.321" stop-opacity="0.1"/>
<stop offset="0.623" stop-opacity="0.05"/>
<stop offset="1" stop-opacity="0"/>
</linearGradient>
<linearGradient id="paint2_linear_364_2445" x1="17.5228" y1="2.1796" x2="27.012" y2="27.4606" gradientUnits="userSpaceOnUse">
<stop stop-color="#3CCBF4"/>
<stop offset="1" stop-color="#2892DF"/>
</linearGradient>
</defs>
</svg>
