<svg width="30" height="30" viewBox="0 0 30 30" fill="none" xmlns="http://www.w3.org/2000/svg">
<path d="M6.2311 3.04688C4.51932 3.04688 3.25271 4.5451 3.30941 6.16993C3.36381 7.73094 3.29314 9.75264 2.78415 11.4014C2.27364 13.0549 1.41025 14.1024 0 14.2369V15.7552C1.41025 15.8897 2.27364 16.9371 2.78415 18.5907C3.29314 20.2394 3.36381 22.2611 3.30941 23.8221C3.25271 25.4467 4.51932 26.9452 6.23136 26.9452H23.7712C25.483 26.9452 26.7493 25.447 26.6926 23.8221C26.6382 22.2611 26.7089 20.2394 27.2179 18.5907C27.7286 16.9371 28.5897 15.8897 30 15.7552V14.2369C28.5897 14.1024 27.7286 13.0549 27.2179 11.4014C26.7089 9.75289 26.6382 7.73094 26.6926 6.16993C26.7493 4.54535 25.483 3.04688 23.7712 3.04688H6.23085H6.2311ZM20.339 17.7578C20.339 19.9951 18.6702 21.352 15.9008 21.352H11.1864C10.9056 21.352 10.678 21.1243 10.678 20.8435V9.14857C10.678 8.86775 10.9056 8.6401 11.1864 8.6401H15.8738C18.1831 8.6401 19.6986 9.89094 19.6986 11.8115C19.6986 13.1594 18.6791 14.3663 17.3802 14.5776V14.648C19.1484 14.842 20.339 16.0664 20.339 17.7578ZM15.3867 10.252H12.6986V14.0487H14.9626C16.7128 14.0487 17.6779 13.344 17.6779 12.0842C17.6779 10.9038 16.848 10.252 15.3867 10.252ZM12.6986 15.5553V19.7396H15.4856C17.3077 19.7396 18.2731 19.0084 18.2731 17.6342C18.2731 16.2598 17.2808 15.5551 15.3684 15.5551H12.6986V15.5553Z" fill="#7E13F8"/>
<path d="M20.3388 17.7578C20.3388 19.9951 18.6699 21.352 15.9005 21.352H11.1862C10.9054 21.352 10.6777 21.1243 10.6777 20.8435V9.14861C10.6777 8.86779 10.9054 8.64014 11.1862 8.64014H15.8736C18.1828 8.64014 19.6983 9.89098 19.6983 11.8115C19.6983 13.1595 18.6788 14.3663 17.3799 14.5776V14.648C19.1482 14.842 20.3388 16.0664 20.3388 17.7578ZM15.3865 10.252H12.6984V14.0488H14.9624C16.7126 14.0488 17.6776 13.344 17.6776 12.0843C17.6776 10.9039 16.8478 10.252 15.3865 10.252ZM12.6984 15.5554V19.7396H15.4854C17.3075 19.7396 18.2728 19.0084 18.2728 17.6343C18.2728 16.2599 17.2805 15.5551 15.3682 15.5551H12.6984V15.5554Z" fill="white"/>
</svg>
