<svg width="30" height="30" viewBox="0 0 30 30" fill="none" xmlns="http://www.w3.org/2000/svg">
<path fill-rule="evenodd" clip-rule="evenodd" d="M27.99 8.96972C27.9898 8.47839 27.8847 8.04423 27.6722 7.67161C27.4635 7.30519 27.1509 6.99809 26.7316 6.75527C23.2704 4.75952 19.8058 2.76987 16.3457 0.772092C15.4129 0.233559 14.5085 0.253192 13.5826 0.799456C12.2049 1.61194 5.30741 5.56366 3.25205 6.75415C2.4056 7.24416 1.99371 7.99408 1.99351 8.96881C1.99219 12.9824 1.99351 16.9958 1.99219 21.0095C1.99239 21.4901 2.093 21.9158 2.29614 22.2828C2.50498 22.6603 2.82196 22.9759 3.25094 23.2242C5.3064 24.4147 12.2048 28.3661 13.5822 29.1788C14.5085 29.7253 15.4129 29.7449 16.346 29.2061C19.8062 27.2083 23.271 25.2187 26.7327 23.223C27.1617 22.9748 27.4786 22.659 27.6875 22.2818C27.8903 21.9148 27.9911 21.4891 27.9913 21.0084C27.9913 21.0084 27.9913 12.9834 27.99 8.96972Z" fill="#5C8DBC"/>
<path fill-rule="evenodd" clip-rule="evenodd" d="M15.0315 14.9501L2.29614 22.2828C2.50498 22.6603 2.82196 22.9759 3.25094 23.2242C5.3064 24.4147 12.2048 28.3661 13.5822 29.1788C14.5085 29.7254 15.4129 29.7449 16.346 29.2062C19.8062 27.2083 23.271 25.2187 26.7327 23.223C27.1617 22.9748 27.4786 22.659 27.6875 22.2818L15.0315 14.9501Z" fill="#1A4674"/>
<path fill-rule="evenodd" clip-rule="evenodd" d="M11.2595 17.1221C12.0005 18.4159 13.3937 19.2885 14.9918 19.2885C16.5997 19.2885 18.0008 18.4048 18.7381 17.0972L15.0315 14.9501L11.2595 17.1221Z" fill="#1A4674"/>
<path fill-rule="evenodd" clip-rule="evenodd" d="M27.99 8.96975C27.9898 8.47841 27.8847 8.04425 27.6722 7.67163L15.0316 14.9501L27.6875 22.2818C27.8903 21.9148 27.9911 21.4891 27.9914 21.0084C27.9914 21.0084 27.9914 12.9834 27.99 8.96975Z" fill="#1B598E"/>
<path fill-rule="evenodd" clip-rule="evenodd" d="M27.2941 15.4741H26.3051V16.4633H25.316V15.4741H24.3271V14.4852H25.316V13.4963H26.3051V14.4852H27.2941V15.4741Z" fill="white"/>
<path fill-rule="evenodd" clip-rule="evenodd" d="M23.6854 15.4741H22.6965V16.4633H21.7075V15.4741H20.7186V14.4852H21.7075V13.4963H22.6965V14.4852H23.6854V15.4741Z" fill="white"/>
<path fill-rule="evenodd" clip-rule="evenodd" d="M18.7381 17.0972C18.0008 18.4047 16.5998 19.2884 14.9918 19.2884C13.3937 19.2884 12.0005 18.4158 11.2595 17.1221C10.8995 16.4934 10.6925 15.7656 10.6925 14.9891C10.6925 12.6147 12.6174 10.6899 14.9918 10.6899C16.5796 10.6899 17.9654 11.5516 18.7101 12.8321L22.468 10.6682C20.9743 8.0899 18.1858 6.35529 14.9918 6.35529C10.2233 6.35529 6.35785 10.2208 6.35785 14.9891C6.35785 16.5534 6.77401 18.0204 7.50134 19.2858C8.99121 21.8777 11.7877 23.623 14.9918 23.623C18.2017 23.623 21.0026 21.8707 22.4904 19.2711L18.7381 17.0972Z" fill="white"/>
</svg>
