<svg width="30" height="30" viewBox="0 0 30 30" fill="none" xmlns="http://www.w3.org/2000/svg">
<path d="M20.85 6.1369C21.6653 5.57077 22.252 4.73243 22.5047 3.77252C22.6581 4.43854 22.6524 5.13135 22.4878 5.79471C22.2788 6.34033 21.9563 6.83252 21.7059 7.3594C23.0103 6.26671 24.4461 5.34141 25.98 4.60502C25.5281 6.00002 24.2728 6.84377 23.3503 7.9144C23.5284 8.29783 23.6128 8.84158 24.1003 8.95408C24.8569 9.19914 25.6631 9.24912 26.4441 9.0994C27.2991 8.80596 27.705 7.92002 28.1316 7.19158V8.56877C27.9819 9.12521 27.7997 9.67239 27.5859 10.2075C27.7734 10.7203 27.9694 11.2313 28.1316 11.7516V12.6441C27.9309 12.9891 27.7172 13.3247 27.51 13.665C27.2326 13.2539 26.8951 12.8867 26.5088 12.5756C25.9473 12.4022 25.3531 12.362 24.7734 12.4585C25.0205 12.8454 25.3528 13.1708 25.7449 13.4096C26.1369 13.6485 26.5785 13.7945 27.0356 13.8366C26.6991 14.1835 26.4141 14.6916 25.8825 14.745C24.3441 14.9766 22.8759 14.2716 21.3459 14.2763C21.0816 14.295 20.6831 14.2988 20.61 14.625C20.61 15.3141 20.8134 15.9872 20.7881 16.6763C20.7328 17.8556 20.3081 18.9881 20.2922 20.1694C20.4137 21.2762 20.6778 22.3627 21.0778 23.4019C20.5875 23.3297 20.0991 23.2463 19.6134 23.1581C19.5197 23.3531 19.4409 23.5519 19.3697 23.7525C19.6537 24.1884 20.0157 24.5682 20.4375 24.8728C20.3803 24.9919 20.2669 25.23 20.2116 25.3491L19.6744 25.4785C19.5516 25.71 19.4278 25.9397 19.2994 26.1713C18.6181 26.0162 17.9086 26.0358 17.2369 26.2285C16.8 26.0541 16.3669 25.876 15.9347 25.6969C16.2052 25.0061 16.3349 24.2682 16.3163 23.5266C16.0519 22.606 14.8163 22.6041 14.4413 21.7669C13.907 20.9683 13.5779 20.0502 13.4831 19.0941C12.7116 18.6881 12.1191 17.9494 11.2331 17.7816C11.1881 18.165 11.1553 18.5503 11.0897 18.9319C10.8488 19.7715 10.4162 20.5437 9.82595 21.1875C9.86251 21.5831 9.90001 21.9769 9.93845 22.3735C10.2628 22.6772 10.5863 22.981 10.9069 23.2866C10.4803 23.5455 10.0331 23.7691 9.57001 23.955C9.04542 24.0192 8.5167 24.0433 7.98845 24.0272C7.74657 23.7891 7.50282 23.551 7.26001 23.311C7.51743 22.5209 7.55438 21.6755 7.36688 20.866C7.5272 20.491 7.67251 20.1047 7.8122 19.7213C6.9073 20.0443 5.93079 20.1111 4.99032 19.9144C4.14683 19.5958 3.41015 19.046 2.86465 18.3281C2.31915 17.6101 1.98689 16.753 1.90595 15.855C1.86385 15.276 1.96173 14.6953 2.19131 14.1621C2.4209 13.6288 2.77545 13.1586 3.22501 12.7913C2.98163 13.5842 2.90502 14.4189 3.00001 15.2428C3.10328 15.8234 3.38421 16.3576 3.80402 16.7717C4.22384 17.1858 4.76183 17.4594 5.34376 17.5547C6.00328 17.5452 6.64424 17.3349 7.18126 16.9519C6.92707 15.6541 7.04504 14.3108 7.52157 13.0772C7.87755 12.4505 8.36044 11.905 8.93933 11.4755C9.51823 11.0461 10.1804 10.7423 10.8834 10.5835C11.6477 10.2993 12.306 9.7867 12.7688 9.11533C13.2059 8.65517 13.6859 8.23766 14.2022 7.86846C13.9884 7.66315 13.7775 7.45596 13.5647 7.25065C13.9134 7.13118 14.2228 6.91855 14.4593 6.63579C14.6958 6.35303 14.8503 6.01094 14.9063 5.64658C16.11 5.36533 17.2978 5.0269 18.4875 4.69877C18.8862 4.97683 19.3377 5.17018 19.8141 5.2669C20.1113 5.59127 20.2772 6.35158 20.8453 6.1369M17.3044 18.6638C17.3438 19.3838 17.2594 20.2247 17.9363 20.6841C17.9363 19.9763 17.8931 19.2713 17.8425 18.5653L17.3044 18.6638Z" fill="#005CA5"/>
</svg>
