<svg width="30" height="30" viewBox="0 0 30 30" fill="none" xmlns="http://www.w3.org/2000/svg">
<path fill-rule="evenodd" clip-rule="evenodd" d="M4.16522 27.001L1.75781 0H28.2114L25.8014 26.9965L14.9686 30L4.16522 27.001Z" fill="#0071BC"/>
<path fill-rule="evenodd" clip-rule="evenodd" d="M15.0068 27.7028L23.7494 25.2977L25.7978 2.24854H15.0068V27.7028Z" fill="#29ABE2"/>
<path fill-rule="evenodd" clip-rule="evenodd" d="M7.26855 12.1685L7.55855 15.4752L15.007 12.1685V8.85645L7.26855 12.1685Z" fill="#B3B3B3"/>
<path fill-rule="evenodd" clip-rule="evenodd" d="M23.2562 5.32129L15.0068 8.85674V12.1688L22.9718 8.62799L23.2562 5.32129Z" fill="#E6E6E6"/>
<path fill-rule="evenodd" clip-rule="evenodd" d="M15.007 20.8205L14.9814 20.8244L11.2875 19.8324L11.0462 17.1948H7.72168L8.18561 22.391L14.9807 24.2724L15.007 24.2662V20.8205Z" fill="#E6E6E6"/>
<path fill-rule="evenodd" clip-rule="evenodd" d="M15.0068 12.1685V15.4752H19.0511L18.6835 19.7984L15.0068 20.8232V24.2686L21.7793 22.3871L22.6712 12.1685H15.0068Z" fill="white"/>
<path fill-rule="evenodd" clip-rule="evenodd" d="M15.007 12.1685H7.26855L7.55855 15.4752H15.007V12.1685Z" fill="#E6E6E6"/>
<path fill-rule="evenodd" clip-rule="evenodd" d="M15.0071 8.62799V5.32129H14.9735H6.68066L6.9741 8.62799H15.0071Z" fill="#E6E6E6"/>
<path fill-rule="evenodd" clip-rule="evenodd" d="M15.0068 5.32129V8.58652V8.62799H22.9718L23.2562 5.32129H15.0068Z" fill="white"/>
</svg>
