<svg width="30" height="30" viewBox="0 0 30 30" fill="none" xmlns="http://www.w3.org/2000/svg">
<path d="M15.0001 15.8617V18.7612C19.9146 18.7612 23.7411 14.0134 22.1335 8.86351C21.4309 6.61299 19.6427 4.82473 17.3921 4.12219C12.2423 2.51454 7.49438 6.34113 7.49438 11.2557H10.4005C10.401 11.2557 10.4013 11.2549 10.4013 11.2549C10.4017 8.17068 13.454 5.78618 16.6967 6.96281C17.898 7.39877 18.8562 8.35682 19.2924 9.55805C20.4692 12.7988 18.0883 15.8499 15.0067 15.8542V12.9641C15.0067 12.9641 15.0064 12.9639 15.0062 12.9639H12.109C12.1087 12.9639 12.1085 12.9643 12.1085 12.9643V15.8617H15.0001ZM12.1079 18.0885H9.88186L9.88135 18.088V15.8617H12.1085V18.088C12.1085 18.088 12.1082 18.0885 12.1079 18.0885ZM9.88288 15.8617H8.01673C8.01597 15.8617 8.01537 15.8611 8.01537 15.8611V13.9958C8.01537 13.9958 8.01597 13.9945 8.01673 13.9945H9.88152C9.88228 13.9945 9.88288 13.9951 9.88288 13.9951V15.8617Z" fill="#0080FF"/>
<path d="M2.59336 21.7024C2.21554 21.4403 1.74536 21.3074 1.19595 21.3074H0V25.1018H1.19595C1.744 25.1018 2.21435 24.9615 2.59379 24.6851C2.80028 24.5386 2.96251 24.3338 3.07605 24.0766C3.189 23.8209 3.24628 23.5191 3.24628 23.18C3.24628 22.8447 3.189 22.5469 3.07597 22.2947C2.96251 22.0413 2.80011 21.842 2.59336 21.7024ZM0.698537 21.9488H1.07389C1.49155 21.9488 1.83533 22.0309 2.09604 22.1932C2.38543 22.3677 2.53225 22.6997 2.53225 23.18C2.53225 23.6746 2.38509 24.0216 2.09502 24.2115H2.09476C1.84512 24.3766 1.50338 24.4603 1.07909 24.4603H0.698537V21.9488ZM3.73612 25.1018H4.40861V22.4293H3.73612V25.1018ZM4.07879 21.2607C3.96388 21.2607 3.86481 21.3015 3.78506 21.3813C3.70437 21.4582 3.66343 21.5556 3.66343 21.671C3.66343 21.7859 3.70411 21.8848 3.78455 21.9652C3.86481 22.0456 3.96388 22.0864 4.07879 22.0864C4.19369 22.0864 4.29268 22.0456 4.37312 21.9652C4.45363 21.8848 4.49432 21.7858 4.49432 21.671C4.49432 21.5558 4.45338 21.4583 4.37312 21.3818C4.29268 21.3015 4.19369 21.2607 4.07879 21.2607ZM6.85072 22.6526C6.64798 22.4722 6.42157 22.367 6.1767 22.367C5.80551 22.367 5.49697 22.4955 5.25976 22.7484C5.01956 22.9994 4.89768 23.3224 4.89768 23.7084C4.89768 24.0857 5.0176 24.4076 5.25465 24.6657C5.49357 24.9154 5.80381 25.042 6.1767 25.042C6.43596 25.042 6.65879 24.9698 6.84042 24.8273V24.8888C6.84042 25.1105 6.78101 25.2831 6.66398 25.4015C6.54703 25.5198 6.3848 25.5798 6.18198 25.5798C5.87156 25.5798 5.67699 25.4578 5.44011 25.1377L4.9822 25.5776L4.99454 25.595C5.09344 25.7338 5.24495 25.8697 5.44488 25.9988C5.6449 26.1273 5.89633 26.1927 6.19227 26.1927C6.59155 26.1927 6.91447 26.0696 7.15228 25.8269C7.39146 25.583 7.51275 25.2563 7.51275 24.8564V22.4293H6.85072V22.6526ZM6.67436 24.231C6.55682 24.3644 6.40591 24.4291 6.21304 24.4291C6.02026 24.4291 5.8702 24.3644 5.75436 24.2311C5.63911 24.0984 5.58055 23.9226 5.58055 23.7084C5.58055 23.4908 5.63911 23.3127 5.75444 23.1791C5.86867 23.0469 6.02298 22.9798 6.21304 22.9798C6.40574 22.9798 6.55674 23.045 6.67428 23.1794C6.7914 23.313 6.85072 23.491 6.85072 23.7084C6.85072 23.9225 6.7914 24.0983 6.67436 24.231ZM8.08829 25.1018H8.76078V22.4293H8.08829V25.1018ZM8.43105 21.2607C8.31606 21.2607 8.21699 21.3015 8.13723 21.3813C8.05654 21.4582 8.0156 21.5556 8.0156 21.671C8.0156 21.7859 8.05629 21.8848 8.13672 21.9652C8.21699 22.0456 8.31606 22.0864 8.43105 22.0864C8.54587 22.0864 8.64486 22.0456 8.72538 21.9652C8.80581 21.8848 8.84649 21.7858 8.84649 21.671C8.84649 21.5558 8.80556 21.4583 8.72538 21.3818C8.64486 21.3015 8.54587 21.2607 8.43105 21.2607ZM10.2347 21.7073H9.57269V22.4293H9.18823V23.0422H9.57269V24.1523C9.57269 24.4997 9.64206 24.7482 9.77901 24.8909C9.9163 25.0344 10.1601 25.107 10.5036 25.107C10.6129 25.107 10.7229 25.1034 10.8304 25.0964L10.8607 25.0944V24.482L10.6301 24.494C10.47 24.494 10.3631 24.4659 10.3123 24.4105C10.2608 24.3543 10.2347 24.2353 10.2347 24.057V23.0422H10.8607V22.4293H10.2347V21.7073ZM13.1686 22.6293H13.1685C12.9648 22.4553 12.683 22.367 12.3314 22.367C12.1076 22.367 11.8984 22.4161 11.7091 22.5121C11.534 22.6009 11.3621 22.748 11.2528 22.9404L11.2596 22.9486L11.6902 23.3608C11.8676 23.0781 12.0648 22.9798 12.3262 22.9798C12.4668 22.9798 12.5834 23.0176 12.673 23.0919C12.7621 23.1657 12.8055 23.2595 12.8055 23.3785V23.5083C12.6388 23.4576 12.4725 23.4319 12.3107 23.4319C11.976 23.4319 11.7037 23.5106 11.5014 23.6659C11.2965 23.8231 11.1927 24.048 11.1927 24.3344C11.1927 24.5855 11.2803 24.7894 11.4536 24.9411C11.6284 25.0873 11.8468 25.1616 12.1029 25.1616C12.3589 25.1616 12.5984 25.0584 12.8159 24.8817V25.1018H13.478V23.3838C13.478 23.0585 13.3739 22.8047 13.1686 22.6293ZM11.9746 24.0806C12.0509 24.0274 12.1587 24.0005 12.295 24.0005C12.4569 24.0005 12.6286 24.0331 12.8055 24.0972V24.3594C12.6594 24.4952 12.4641 24.5642 12.225 24.5642C12.1086 24.5642 12.0181 24.5383 11.9559 24.4871C11.8949 24.4371 11.8652 24.3734 11.8652 24.2927C11.8652 24.2011 11.901 24.1316 11.9746 24.0806ZM14.0138 25.1018H14.6863V21.3074H14.0138V25.1018ZM17.1262 25.159C16.0476 25.159 15.1702 24.2815 15.1702 23.2029C15.1702 22.1243 16.0476 21.2468 17.1262 21.2468C18.2048 21.2468 19.0822 22.1243 19.0822 23.2029C19.0822 24.2815 18.2048 25.159 17.1262 25.159ZM17.1262 21.9362C16.4278 21.9362 15.8595 22.5044 15.8595 23.2029C15.8595 23.9014 16.4278 24.4695 17.1262 24.4695C17.8247 24.4695 18.3929 23.9014 18.3929 23.2029C18.3929 22.5044 17.8247 21.9362 17.1262 21.9362ZM21.4801 24.1462C21.3598 24.281 21.2367 24.3979 21.1419 24.4586V24.4587C21.049 24.5184 20.9316 24.5487 20.7932 24.5487C20.5951 24.5487 20.4357 24.4765 20.3059 24.3279C20.1769 24.1801 20.1114 23.9901 20.1114 23.7629C20.1114 23.5358 20.176 23.3461 20.3035 23.1994C20.4316 23.0516 20.59 22.9798 20.788 22.9798C21.0046 22.9798 21.233 23.1145 21.4287 23.3459L21.8731 22.9197C21.5833 22.5425 21.2137 22.367 20.7725 22.367C20.4032 22.367 20.0832 22.5015 19.8213 22.7666C19.5607 23.0298 19.4286 23.3651 19.4286 23.7629C19.4286 24.1608 19.5606 24.4969 19.8209 24.7618C20.0814 25.027 20.4016 25.1616 20.7725 25.1616C21.2594 25.1616 21.6524 24.9514 21.9173 24.5663L21.4801 24.1462ZM24.2401 22.8027C24.1448 22.6698 24.0149 22.5629 23.854 22.4847C23.6936 22.4066 23.5066 22.367 23.2983 22.367C22.923 22.367 22.6158 22.5055 22.3851 22.7789C22.1613 23.0502 22.0479 23.3873 22.0479 23.7811C22.0479 24.1861 22.1723 24.5214 22.4179 24.7775C22.662 25.0323 22.9888 25.1616 23.3892 25.1616C23.8427 25.1616 24.2148 24.9782 24.4952 24.6164L24.5103 24.5969L24.0717 24.1754C24.031 24.2244 23.9734 24.2801 23.9208 24.3296C23.8544 24.3922 23.792 24.4408 23.7252 24.474C23.6247 24.524 23.512 24.5487 23.3859 24.5487C23.1996 24.5487 23.0453 24.4939 22.9273 24.3858C22.817 24.2847 22.7525 24.1483 22.7354 23.9799H24.517L24.523 23.7344C24.523 23.5607 24.4994 23.3933 24.4527 23.2369C24.4061 23.0802 24.3345 22.9341 24.2401 22.8027ZM22.7703 23.4319C22.8027 23.3041 22.8616 23.1976 22.9459 23.1149C23.0371 23.0252 23.1557 22.9798 23.2985 22.9798C23.4615 22.9798 23.5877 23.0262 23.6735 23.1179C23.7531 23.2027 23.7979 23.3082 23.8073 23.4319H22.7703ZM26.8227 22.6293H26.8226C26.6188 22.4553 26.3371 22.367 25.9854 22.367C25.7616 22.367 25.5524 22.4161 25.3631 22.5121C25.1879 22.6009 25.016 22.748 24.9068 22.9404L24.9136 22.9486L25.3442 23.3608C25.5216 23.0781 25.7188 22.9798 25.9803 22.9798C26.1208 22.9798 26.2374 23.0176 26.327 23.0919C26.4162 23.1657 26.4596 23.2595 26.4596 23.3785V23.5083C26.2927 23.4576 26.1265 23.4319 25.9646 23.4319C25.63 23.4319 25.3577 23.5106 25.1554 23.6659C24.9506 23.8231 24.8467 24.048 24.8467 24.3344C24.8467 24.5855 24.9343 24.7894 25.1076 24.9411C25.2823 25.0873 25.5008 25.1616 25.7569 25.1616C26.013 25.1616 26.2525 25.0584 26.4699 24.8817V25.1018H27.1321V23.3838C27.1321 23.0585 27.028 22.8047 26.8227 22.6293ZM25.6287 24.0806C25.7049 24.0274 25.8127 24.0005 25.949 24.0005C26.1109 24.0005 26.2826 24.0331 26.4596 24.0972V24.3594C26.3133 24.4952 26.1182 24.5642 25.879 24.5642C25.7626 24.5642 25.6722 24.5383 25.6099 24.4871C25.5489 24.4371 25.5192 24.3734 25.5192 24.2927C25.5192 24.2011 25.555 24.1316 25.6287 24.0806ZM29.719 22.6817C29.5317 22.473 29.2685 22.367 28.9366 22.367C28.6698 22.367 28.4531 22.4436 28.2911 22.5948V22.4293H27.6316V25.1018H28.3041V23.6279C28.3041 23.4254 28.3523 23.2646 28.4473 23.1499C28.5421 23.0355 28.6724 22.9798 28.8457 22.9798C28.998 22.9798 29.1134 23.0296 29.1986 23.1318C29.2842 23.2345 29.3275 23.376 29.3275 23.5527V25.1018H30V23.5527C30 23.1825 29.9055 22.8895 29.719 22.6817Z" fill="#0080FF"/>
</svg>
