<svg width="30" height="30" viewBox="0 0 30 30" fill="none" xmlns="http://www.w3.org/2000/svg">
<g clip-path="url(#clip0_363_3556)">
<mask id="mask0_363_3556" style="mask-type:luminance" maskUnits="userSpaceOnUse" x="10" y="10" width="6" height="10">
<path d="M10.6595 10.678C11.6983 13.856 12.0923 19.5254 15.1313 19.5254C15.3625 19.5254 15.5963 19.5027 15.8311 19.4581C13.0684 18.814 12.7407 13.2062 11.055 10.3023C10.9205 10.4248 10.7886 10.5501 10.6593 10.678" fill="white"/>
</mask>
<g mask="url(#mask0_363_3556)">
<mask id="mask1_363_3556" style="mask-type:luminance" maskUnits="userSpaceOnUse" x="10" y="10" width="6" height="10">
<path d="M15.8207 19.5274H10.649V10.3043H15.8207V19.5274Z" fill="white"/>
</mask>
<g mask="url(#mask1_363_3556)">
<mask id="mask2_363_3556" style="mask-type:luminance" maskUnits="userSpaceOnUse" x="10" y="10" width="6" height="10">
<path d="M15.8207 10.3041V19.5274H10.649V10.3043L15.8207 10.3041Z" fill="white"/>
</mask>
<g mask="url(#mask2_363_3556)">
<path d="M15.8207 19.5274H10.649V10.3043H15.8207V19.5274Z" fill="url(#paint0_linear_363_3556)"/>
</g>
</g>
</g>
<mask id="mask3_363_3556" style="mask-type:luminance" maskUnits="userSpaceOnUse" x="11" y="10" width="6" height="10">
<path d="M11.0552 10.3023C12.7409 13.2062 13.0683 18.814 15.8313 19.4581C16.048 19.4181 16.2659 19.3579 16.4838 19.2816C14.0039 18.0665 13.3184 12.6216 11.4042 9.99996C11.2882 10.0965 11.1701 10.1972 11.0554 10.3022" fill="white"/>
</mask>
<g mask="url(#mask3_363_3556)">
<mask id="mask4_363_3556" style="mask-type:luminance" maskUnits="userSpaceOnUse" x="11" y="10" width="6" height="10">
<path d="M16.5002 19.4705H11.0721V10.0124H16.5002V19.4705Z" fill="white"/>
</mask>
<g mask="url(#mask4_363_3556)">
<mask id="mask5_363_3556" style="mask-type:luminance" maskUnits="userSpaceOnUse" x="11" y="10" width="6" height="10">
<path d="M16.5002 10.0124V19.4705H11.0721V10.0124H16.5002Z" fill="white"/>
</mask>
<g mask="url(#mask5_363_3556)">
<path d="M16.5002 19.4705H11.0721V10.0124H16.5002V19.4705Z" fill="url(#paint1_linear_363_3556)"/>
</g>
</g>
</g>
<path d="M13.484 8.57665C13.2532 8.57665 13.0186 8.59912 12.7838 8.64408C12.169 8.75991 11.5441 9.02444 10.9144 9.42526C11.0865 9.59527 11.2501 9.7892 11.4038 10.0016C12.0442 9.46848 12.6803 9.07717 13.3147 8.84103C13.5461 8.7545 13.7847 8.68822 14.0276 8.64292C13.8499 8.59823 13.6672 8.57597 13.484 8.57665Z" fill="#14559A"/>
<path d="M18.3656 18.834C18.246 18.7196 18.1325 18.5949 18.0207 18.4594C17.5063 18.824 16.9931 19.1006 16.4834 19.2801C16.6652 19.3694 16.8577 19.435 17.0562 19.4753C17.2124 19.5076 17.3732 19.5237 17.5461 19.5237C18.1178 19.5237 18.5696 19.4556 18.9546 19.2716C18.7428 19.1569 18.5483 19.0085 18.3668 18.8326" fill="#1969BC"/>
<mask id="mask6_363_3556" style="mask-type:luminance" maskUnits="userSpaceOnUse" x="13" y="8" width="6" height="11">
<path d="M13.3149 8.84015C15.8115 10.1459 16.0284 16.0595 18.0208 18.4609C18.154 18.3669 18.2864 18.2671 18.417 18.1619C17.1702 15.3992 16.8132 9.33361 14.0262 8.6415C13.7881 8.68581 13.5508 8.74957 13.313 8.84015" fill="white"/>
</mask>
<g mask="url(#mask6_363_3556)">
<mask id="mask7_363_3556" style="mask-type:luminance" maskUnits="userSpaceOnUse" x="13" y="8" width="6" height="11">
<path d="M18.4317 18.4731H13.3278V8.65321H18.4317V18.4731Z" fill="white"/>
</mask>
<g mask="url(#mask7_363_3556)">
<mask id="mask8_363_3556" style="mask-type:luminance" maskUnits="userSpaceOnUse" x="13" y="8" width="6" height="11">
<path d="M18.4317 8.65321V18.4731H13.3278V8.65321H18.4317Z" fill="white"/>
</mask>
<g mask="url(#mask8_363_3556)">
<path d="M18.4317 18.4731H13.3278V8.65321H18.4317V18.4731Z" fill="url(#paint2_linear_363_3556)"/>
</g>
</g>
</g>
<mask id="mask9_363_3556" style="mask-type:luminance" maskUnits="userSpaceOnUse" x="11" y="8" width="8" height="12">
<path d="M11.4041 10.0003C13.3185 12.6218 14.0037 18.0686 16.4837 19.2819C16.9933 19.1022 17.5062 18.8259 18.0208 18.4612C16.0284 16.0597 15.8115 10.1462 13.3149 8.84051C12.6809 9.07608 12.0445 9.46869 11.4059 10.0003" fill="white"/>
</mask>
<g mask="url(#mask9_363_3556)">
<mask id="mask10_363_3556" style="mask-type:luminance" maskUnits="userSpaceOnUse" x="11" y="8" width="8" height="12">
<path d="M18.0177 19.2846H11.401V8.84267H18.0177V19.2846Z" fill="white"/>
</mask>
<g mask="url(#mask10_363_3556)">
<mask id="mask11_363_3556" style="mask-type:luminance" maskUnits="userSpaceOnUse" x="11" y="8" width="8" height="12">
<path d="M18.0177 8.84284V19.2848H11.401V8.84284H18.0177Z" fill="white"/>
</mask>
<g mask="url(#mask11_363_3556)">
<path d="M18.0177 19.2846H11.401V8.84267H18.0177V19.2846Z" fill="url(#paint3_linear_363_3556)"/>
</g>
</g>
</g>
<path d="M10.6 9.63359L10.3345 9.82925C10.4509 10.0834 10.5585 10.3688 10.6592 10.6793L11.0554 10.3036C10.9138 10.0606 10.7638 9.83588 10.6002 9.63504" fill="#2B74B1"/>
<path d="M10.9146 9.42382L10.6 9.63345C10.7633 9.83444 10.9135 10.0592 11.0553 10.302L11.404 9.99984C11.2498 9.78761 11.0867 9.59354 10.9146 9.42353" fill="#125A9E"/>
<path d="M9.43442 10.6016C9.73468 10.3154 10.0352 10.0578 10.3343 9.8294L10.1182 9.41547C9.87674 9.70852 9.6563 10.0952 9.43298 10.6018" fill="#0D82CA"/>
<path d="M9.65129 8.83311C9.82418 8.97776 9.97834 9.17673 10.1195 9.41518L10.2557 9.26246C10.0597 9.07948 9.84795 8.92906 9.61743 8.81582L9.64596 8.82936C9.6474 8.83124 9.64913 8.83224 9.651 8.83296" fill="#0D82CA"/>
<mask id="mask12_363_3556" style="mask-type:luminance" maskUnits="userSpaceOnUse" x="2" y="8" width="6" height="10">
<path d="M2.38593 17.1672C4.79381 12.5274 5.93471 9.59061 7.94801 8.79639C5.87222 9.60898 3.53566 12.6735 2.38593 17.1672Z" fill="white"/>
</mask>
<g mask="url(#mask12_363_3556)">
<mask id="mask13_363_3556" style="mask-type:luminance" maskUnits="userSpaceOnUse" x="2" y="8" width="6" height="10">
<path d="M2.38306 8.80215H7.94532V17.1735H2.38306V8.80233V8.80215Z" fill="white"/>
</mask>
<g mask="url(#mask13_363_3556)">
<mask id="mask14_363_3556" style="mask-type:luminance" maskUnits="userSpaceOnUse" x="2" y="8" width="6" height="10">
<path d="M2.38306 17.1732V8.80233H7.94532V17.1732H2.38306Z" fill="white"/>
</mask>
<g mask="url(#mask14_363_3556)">
<path d="M2.38306 8.80215H7.94532V17.1735H2.38306V8.80233V8.80215Z" fill="url(#paint4_linear_363_3556)"/>
</g>
</g>
</g>
<path d="M10.256 9.26245L10.1198 9.41517C10.1955 9.54167 10.2658 9.67955 10.3359 9.82911L10.6016 9.63345C10.4956 9.5019 10.3806 9.37793 10.2573 9.26245" fill="#127BCA"/>
<mask id="mask15_363_3556" style="mask-type:luminance" maskUnits="userSpaceOnUse" x="-2" y="9" width="13" height="15">
<mask id="mask16_363_3556" style="mask-type:luminance" maskUnits="userSpaceOnUse" x="-8" y="4" width="25" height="26">
<path d="M-7.80536 4.36044H16.6207V29.1056H-7.80536V4.36044Z" fill="white"/>
</mask>
<g mask="url(#mask16_363_3556)">
<mask id="mask17_363_3556" style="mask-type:luminance" maskUnits="userSpaceOnUse" x="-8" y="4" width="25" height="26">
<path d="M-7.98547 4.18035H16.8008V29.2857H-7.98547V4.18035Z" fill="white"/>
</mask>
<g mask="url(#mask17_363_3556)">
<mask id="mask18_363_3556" style="mask-type:luminance" maskUnits="userSpaceOnUse" x="-2" y="9" width="13" height="15">
<path d="M-1.69617 23.8884H10.496V9.52938H-1.69617V23.8884Z" fill="white"/>
</mask>
<g mask="url(#mask18_363_3556)">
<mask id="mask19_363_3556" style="mask-type:luminance" maskUnits="userSpaceOnUse" x="-8" y="4" width="25" height="26">
<path d="M-7.80536 4.36044H16.6207V29.1056H-7.80536V4.36044Z" fill="white"/>
</mask>
<g mask="url(#mask19_363_3556)">
<mask id="mask20_363_3556" style="mask-type:luminance" maskUnits="userSpaceOnUse" x="-2" y="9" width="13" height="15">
<path d="M-1.69617 23.8884H10.496V9.52938H-1.69617V23.8884Z" fill="white"/>
</mask>
<g mask="url(#mask20_363_3556)">
<mask id="mask21_363_3556" style="mask-type:luminance" maskUnits="userSpaceOnUse" x="-2" y="9" width="13" height="15">
<path d="M-1.69366 20.6224L4.14252 23.8868L10.4999 12.7929L4.66426 9.52739L-1.69204 20.6222L-1.69366 20.6224Z" fill="white"/>
</mask>
<g mask="url(#mask21_363_3556)">
<mask id="mask22_363_3556" style="mask-type:luminance" maskUnits="userSpaceOnUse" x="-8" y="4" width="25" height="26">
<path d="M16.6206 12.9752L7.5989 29.1072L-7.80542 20.4925L1.21612 4.36045L16.6206 12.9752Z" fill="white"/>
</mask>
<g mask="url(#mask22_363_3556)">
<mask id="mask23_363_3556" style="mask-type:luminance" maskUnits="userSpaceOnUse" x="-8" y="4" width="25" height="26">
<path d="M16.6206 12.9752L7.59908 29.1072L-7.80542 20.4925L1.21612 4.36045L16.6206 12.9752Z" fill="white"/>
</mask>
<g mask="url(#mask23_363_3556)">
<path d="M16.6206 12.9752L7.5989 29.1072L-7.80542 20.4925L1.21612 4.36045L16.6206 12.9752Z" fill="url(#paint5_linear_363_3556)"/>
</g>
</g>
</g>
</g>
</g>
</g>
</g>
</g>
</mask>
<g mask="url(#mask15_363_3556)">
<mask id="mask24_363_3556" style="mask-type:luminance" maskUnits="userSpaceOnUse" x="3" y="13" width="6" height="7">
<path d="M3.28619 13.3357H8.4589V19.8119H3.28619V13.3339V13.3357Z" fill="white"/>
</mask>
<g mask="url(#mask24_363_3556)">
<mask id="mask25_363_3556" style="mask-type:luminance" maskUnits="userSpaceOnUse" x="3" y="13" width="6" height="7">
<path d="M3.28796 19.8119H8.45672V13.3339H3.28796V19.8119Z" fill="white"/>
</mask>
<g mask="url(#mask25_363_3556)">
<mask id="mask26_363_3556" style="mask-type:luminance" maskUnits="userSpaceOnUse" x="3" y="13" width="6" height="7">
<path d="M3.47908 19.7972L3.43549 19.8022C3.43189 19.8029 3.42973 19.8029 3.42703 19.8035L3.38993 19.8071C3.38813 19.8071 3.38579 19.8076 3.38399 19.8076L3.2952 19.8139H3.28619C5.72325 19.7455 6.83732 18.5255 7.38968 16.7559L8.45765 13.3341C7.43686 14.7707 6.4114 16.4829 5.38035 18.402C4.88328 19.3268 4.12688 19.7131 3.47908 19.7954" fill="white"/>
</mask>
<g mask="url(#mask26_363_3556)">
<mask id="mask27_363_3556" style="mask-type:luminance" maskUnits="userSpaceOnUse" x="3" y="13" width="6" height="7">
<path d="M3.28784 13.3361H8.45911V19.8141H3.28784V13.3361Z" fill="white"/>
</mask>
<g mask="url(#mask27_363_3556)">
<mask id="mask28_363_3556" style="mask-type:luminance" maskUnits="userSpaceOnUse" x="3" y="13" width="6" height="7">
<path d="M3.28766 19.8143V13.3362H8.45893V19.8143H3.28766Z" fill="white"/>
</mask>
<g mask="url(#mask28_363_3556)">
<path d="M3.28784 13.3361H8.45911V19.8141H3.28784V13.3361Z" fill="url(#paint6_linear_363_3556)"/>
</g>
</g>
</g>
</g>
</g>
</g>
<mask id="mask29_363_3556" style="mask-type:luminance" maskUnits="userSpaceOnUse" x="3" y="10" width="7" height="10">
<path d="M3.47906 19.7963V19.7972C4.12705 19.7147 4.88345 19.3289 5.38034 18.4038C6.41139 16.4858 7.43739 14.7725 8.45673 13.3359C8.82809 12.171 9.13389 11.2797 9.43465 10.6017C7.40209 12.5363 5.36125 15.7535 3.47906 19.7963Z" fill="white"/>
</mask>
<g mask="url(#mask29_363_3556)">
<mask id="mask30_363_3556" style="mask-type:luminance" maskUnits="userSpaceOnUse" x="3" y="10" width="7" height="10">
<path d="M3.492 10.615H9.44741V19.8107H3.492V10.615Z" fill="white"/>
</mask>
<g mask="url(#mask30_363_3556)">
<mask id="mask31_363_3556" style="mask-type:luminance" maskUnits="userSpaceOnUse" x="3" y="10" width="7" height="10">
<path d="M3.492 19.8107V10.615H9.44741V19.8107H3.492Z" fill="white"/>
</mask>
<g mask="url(#mask31_363_3556)">
<path d="M3.492 10.615H9.44741V19.8107H3.492V10.615Z" fill="url(#paint7_linear_363_3556)"/>
</g>
</g>
</g>
<path d="M2.38577 17.1672C1.95354 17.9978 1.48342 18.8827 0.959412 19.8179L1.87833 19.8177C1.99979 18.8889 2.17225 18.003 2.38606 17.1674" fill="#05A1E6"/>
<mask id="mask32_363_3556" style="mask-type:luminance" maskUnits="userSpaceOnUse" x="1" y="8" width="10" height="12">
<path d="M8.72783 8.59558C8.72062 8.59702 8.71522 8.59738 8.70981 8.59792C8.69901 8.60009 8.6873 8.60206 8.67596 8.60296L8.65561 8.60512L8.61959 8.61143C8.61382 8.61179 8.60824 8.61287 8.60374 8.61323L8.5254 8.6271C8.52215 8.62764 8.51891 8.62854 8.51639 8.62854L8.48037 8.63574L8.46128 8.64115L8.42436 8.64835L8.40707 8.65249L8.27795 8.68599C8.27434 8.68743 8.2684 8.68851 8.263 8.69049C8.25039 8.69355 8.23778 8.69806 8.22409 8.70238L8.20645 8.70724L8.16773 8.71895C8.16304 8.72021 8.15872 8.72255 8.15422 8.72255L8.06471 8.75352L8.02149 8.76901L8.0042 8.77622C7.99123 8.77982 7.97791 8.78522 7.96818 8.78972C7.96404 8.79188 7.95881 8.79368 7.95557 8.79603C5.9421 9.59061 4.80137 12.5273 2.39349 17.1669C2.17097 18.0393 2.00143 18.9243 1.8858 19.8172H2.01493L3.21491 19.8154H3.22626L3.3028 19.8136L3.39158 19.8073C3.39339 19.8073 3.39573 19.8067 3.39699 19.8067C3.40959 19.8049 3.4222 19.804 3.43409 19.8031C3.43733 19.8026 3.43913 19.8026 3.44309 19.8019C3.45624 19.8006 3.47191 19.799 3.48668 19.7968V19.7959C5.36868 15.7531 7.40952 12.5359 9.44208 10.6013C9.66576 10.0947 9.88584 9.70803 10.1273 9.41537C9.98597 9.17657 9.83163 8.97774 9.6591 8.83259C9.6573 8.83169 9.6555 8.83114 9.65406 8.82934C9.64469 8.82538 9.63515 8.82088 9.6256 8.81584C9.61625 8.81073 9.60676 8.80586 9.59715 8.80125C9.58814 8.79765 9.57806 8.79279 9.56941 8.78774C9.55813 8.78409 9.54727 8.77926 9.53699 8.77334C9.52799 8.77046 9.52025 8.76613 9.51178 8.76253C9.49376 8.75561 9.47593 8.74823 9.45829 8.74038L9.4356 8.73137C9.42213 8.72686 9.4089 8.72163 9.39598 8.71571C9.38914 8.7139 9.38193 8.71102 9.37437 8.70886C9.35528 8.70256 9.33727 8.69571 9.31962 8.68977C9.31656 8.68887 9.31548 8.68887 9.31475 8.68797C9.29314 8.68131 9.27243 8.67591 9.25082 8.66996C9.24578 8.66762 9.24182 8.66672 9.23641 8.66528C9.21732 8.66024 9.2004 8.65483 9.18311 8.65015C9.17861 8.64961 9.1741 8.64835 9.1705 8.64727C9.12626 8.63565 9.08156 8.62586 9.03651 8.61791C9.03237 8.61755 9.02696 8.61611 9.02246 8.61503L8.96447 8.60603C8.96087 8.60423 8.95727 8.60422 8.95312 8.6035L8.88415 8.5945C8.88055 8.59396 8.87658 8.59306 8.87208 8.59306C8.85407 8.59018 8.83678 8.58892 8.81949 8.5873C8.79014 8.58946 8.76258 8.59216 8.73485 8.59486" fill="white"/>
</mask>
<g mask="url(#mask32_363_3556)">
<mask id="mask33_363_3556" style="mask-type:luminance" maskUnits="userSpaceOnUse" x="-1" y="7" width="14" height="15">
<path d="M2.10261 21.2257L-0.0662842 8.92515L9.84691 7.17732L12.0158 19.4779L2.10261 21.2259V21.2257Z" fill="white"/>
</mask>
<g mask="url(#mask33_363_3556)">
<mask id="mask34_363_3556" style="mask-type:luminance" maskUnits="userSpaceOnUse" x="-1" y="7" width="14" height="15">
<path d="M2.10261 21.2257L-0.0662842 8.92516L9.84673 7.17715L12.0156 19.4777L2.10243 21.2257H2.10261Z" fill="white"/>
</mask>
<g mask="url(#mask34_363_3556)">
<path d="M2.10261 21.2257L-0.0662842 8.92515L9.84691 7.17732L12.0158 19.4779L2.10261 21.2259V21.2257Z" fill="url(#paint8_linear_363_3556)"/>
</g>
</g>
</g>
<mask id="mask35_363_3556" style="mask-type:luminance" maskUnits="userSpaceOnUse" x="21" y="8" width="4" height="8">
<path d="M22.429 11.3482L21.2641 15.0635C22.5356 13.3141 23.7876 11.114 24.9795 8.57415C23.5891 9.01124 22.8471 10.0106 22.4288 11.348" fill="white"/>
</mask>
<g mask="url(#mask35_363_3556)">
<mask id="mask36_363_3556" style="mask-type:luminance" maskUnits="userSpaceOnUse" x="21" y="8" width="4" height="8">
<path d="M21.2711 8.57271H24.9865V15.0619H21.2711V8.57271Z" fill="white"/>
</mask>
<g mask="url(#mask36_363_3556)">
<mask id="mask37_363_3556" style="mask-type:luminance" maskUnits="userSpaceOnUse" x="21" y="8" width="4" height="8">
<path d="M21.2711 15.0619V8.57252H24.9865V15.0619H21.2711Z" fill="white"/>
</mask>
<g mask="url(#mask37_363_3556)">
<path d="M21.2711 8.57271H24.9865V15.0619H21.2711V8.57271Z" fill="url(#paint9_linear_363_3556)"/>
</g>
</g>
</g>
<mask id="mask38_363_3556" style="mask-type:luminance" maskUnits="userSpaceOnUse" x="17" y="7" width="18" height="6">
<mask id="mask39_363_3556" style="mask-type:luminance" maskUnits="userSpaceOnUse" x="17" y="7" width="18" height="6">
<path d="M17.921 7.34481H34.0387V12.9634H17.921V7.34481Z" fill="white"/>
</mask>
<g mask="url(#mask39_363_3556)">
<mask id="mask40_363_3556" style="mask-type:luminance" maskUnits="userSpaceOnUse" x="17" y="7" width="18" height="7">
<path d="M17.7452 7.16472H34.2186V13.1394H17.7452V7.16454V7.16472Z" fill="white"/>
</mask>
<g mask="url(#mask40_363_3556)">
<mask id="mask41_363_3556" style="mask-type:luminance" maskUnits="userSpaceOnUse" x="17" y="7" width="18" height="6">
<path d="M17.921 12.9634H34.036V7.34878H17.921V12.9634Z" fill="white"/>
</mask>
<g mask="url(#mask41_363_3556)">
<mask id="mask42_363_3556" style="mask-type:luminance" maskUnits="userSpaceOnUse" x="17" y="7" width="18" height="6">
<path d="M17.921 7.34481H34.0387V12.9634H17.921V7.34481Z" fill="white"/>
</mask>
<g mask="url(#mask42_363_3556)">
<mask id="mask43_363_3556" style="mask-type:luminance" maskUnits="userSpaceOnUse" x="17" y="7" width="18" height="6">
<path d="M17.921 12.9634H34.036V7.34878H17.921V12.9634Z" fill="white"/>
</mask>
<g mask="url(#mask43_363_3556)">
<mask id="mask44_363_3556" style="mask-type:luminance" maskUnits="userSpaceOnUse" x="17" y="7" width="18" height="6">
<path d="M17.921 7.34878H34.0346V12.9634H17.921V7.34878Z" fill="white"/>
</mask>
<g mask="url(#mask44_363_3556)">
<mask id="mask45_363_3556" style="mask-type:luminance" maskUnits="userSpaceOnUse" x="17" y="7" width="18" height="6">
<path d="M34.0385 12.9593H17.9254V7.34463H34.0385V12.9593Z" fill="white"/>
</mask>
<g mask="url(#mask45_363_3556)">
<mask id="mask46_363_3556" style="mask-type:luminance" maskUnits="userSpaceOnUse" x="17" y="7" width="18" height="6">
<path d="M34.0385 7.34482V12.9593H17.9254V7.34463H34.0385V7.34482Z" fill="white"/>
</mask>
<g mask="url(#mask46_363_3556)">
<path d="M34.0385 12.9593H17.9254V7.34463H34.0385V12.9593Z" fill="url(#paint10_linear_363_3556)"/>
</g>
</g>
</g>
</g>
</g>
</g>
</g>
</g>
</mask>
<g mask="url(#mask38_363_3556)">
<mask id="mask47_363_3556" style="mask-type:luminance" maskUnits="userSpaceOnUse" x="19" y="7" width="11" height="14">
<path d="M19.2375 7.14833H29.8092V20.4084H19.2375V7.14833Z" fill="white"/>
</mask>
<g mask="url(#mask47_363_3556)">
<mask id="mask48_363_3556" style="mask-type:luminance" maskUnits="userSpaceOnUse" x="21" y="8" width="7" height="12">
<path d="M21.1098 19.2558H27.9457V8.33335H21.1098V19.2558Z" fill="white"/>
</mask>
<g mask="url(#mask48_363_3556)">
<mask id="mask49_363_3556" style="mask-type:luminance" maskUnits="userSpaceOnUse" x="21" y="8" width="7" height="12">
<path d="M21.3045 19.1631L21.1107 19.2558C23.5834 18.1531 26.533 13.7787 27.9454 8.33335H27.6572C24.413 14.1288 23.3695 18.0081 21.3029 19.1631" fill="white"/>
</mask>
<g mask="url(#mask49_363_3556)">
<mask id="mask50_363_3556" style="mask-type:luminance" maskUnits="userSpaceOnUse" x="19" y="7" width="11" height="14">
<path d="M29.8076 8.64636L27.7336 20.4066L19.2375 18.9086L21.3115 7.14832L29.8076 8.64636Z" fill="white"/>
</mask>
<g mask="url(#mask50_363_3556)">
<mask id="mask51_363_3556" style="mask-type:luminance" maskUnits="userSpaceOnUse" x="19" y="7" width="11" height="14">
<path d="M29.8076 8.64636L27.7336 20.4066L19.2375 18.9086L21.3115 7.14832L29.8076 8.64636Z" fill="white"/>
</mask>
<g mask="url(#mask51_363_3556)">
<path d="M29.8076 8.64636L27.7336 20.4066L19.2375 18.9086L21.3115 7.14832L29.8076 8.64636Z" fill="url(#paint11_linear_363_3556)"/>
</g>
</g>
</g>
</g>
</g>
</g>
<path d="M19.6898 18.6764C20.2278 18.0194 20.6663 16.9031 21.264 15.0637C20.5743 16.0117 19.8808 16.8262 19.1844 17.4908C19.1835 17.4928 19.1835 17.4946 19.1821 17.497C19.3338 17.9509 19.5002 18.3525 19.6898 18.6764Z" fill="#079AE1"/>
<path d="M19.6898 18.6764C19.5069 18.9 19.3131 19.0698 19.097 19.196L18.9536 19.273C19.1876 19.3996 19.4436 19.4802 19.7079 19.5108H19.7097L19.8329 19.5217H19.8407L19.8983 19.5246H19.9064L19.9673 19.5255L20.0329 19.5246L20.0531 19.5232L20.0992 19.5217L20.1218 19.5188L20.165 19.516C20.1673 19.516 20.1686 19.516 20.1701 19.5145C20.1758 19.5145 20.1813 19.5137 20.1868 19.5137L20.2349 19.5086C20.2363 19.5086 20.237 19.508 20.2392 19.508C20.2435 19.507 20.2489 19.5063 20.2536 19.5057L20.3055 19.4982C20.3107 19.4982 20.3151 19.4968 20.3208 19.4961L20.3788 19.4866H20.3821C20.3836 19.4856 20.3862 19.4856 20.3873 19.4851L20.503 19.4606C20.184 19.3454 19.9171 19.068 19.6868 18.676" fill="#1969BC"/>
<path d="M15.1312 19.5255C15.3661 19.5251 15.6005 19.5025 15.8312 19.4582C16.0478 19.4183 16.2657 19.3581 16.4838 19.2818C16.6649 19.3706 16.8552 19.436 17.0567 19.4775C17.2128 19.5092 17.3736 19.5256 17.5465 19.5256H15.1327L15.1312 19.5255Z" fill="#1E5CB3"/>
<path d="M17.5451 19.5255C18.1168 19.5255 18.5692 19.4582 18.9536 19.2733C19.1874 19.4001 19.4435 19.4808 19.7078 19.5111H19.7097L19.8329 19.522H19.8406L19.8983 19.5249H19.9063L19.9673 19.5258H17.5433L17.5451 19.5255Z" fill="#1E5CB3"/>
<path d="M19.9689 19.5255L20.0345 19.5246L20.0546 19.5232L20.1007 19.5217L20.1234 19.5188L20.1666 19.516C20.1689 19.516 20.1698 19.516 20.1716 19.5151C20.1774 19.5151 20.1827 19.5137 20.1889 19.5137L20.2365 19.5086C20.2379 19.5086 20.2386 19.508 20.2408 19.508C20.2451 19.507 20.2504 19.5063 20.2552 19.5057L20.3071 19.4982C20.3122 19.4981 20.3173 19.4974 20.3223 19.4961L20.3804 19.4866H20.3833C20.3854 19.4856 20.3876 19.4856 20.389 19.4851L20.5049 19.4606C20.6181 19.5023 20.7379 19.5233 20.8586 19.5226L19.9675 19.5249L19.9689 19.5255Z" fill="#1D60B5"/>
<path d="M19.1808 17.497C19.1808 17.496 19.1799 17.4947 19.1799 17.4938L18.4163 18.1621L18.0179 18.4612L18.3629 18.8358C18.5444 19.0115 18.7375 19.1599 18.9507 19.2748L19.0941 19.1977C19.3102 19.0715 19.5041 18.9018 19.6869 18.6782C19.4976 18.354 19.3311 17.9527 19.1792 17.4987" fill="#175FAB"/>
<mask id="mask52_363_3556" style="mask-type:luminance" maskUnits="userSpaceOnUse" x="19" y="8" width="9" height="12">
<path d="M26.7525 8.33336H25.5498C25.5093 8.33336 25.4697 8.33426 25.4301 8.3348L25.317 8.33606H25.3143L25.0861 8.34687L24.978 8.57415C23.7858 11.1139 22.5338 13.3143 21.2626 15.0635C20.6647 16.903 20.2264 18.0195 19.6886 18.6763C19.9188 19.0683 20.1857 19.3441 20.5044 19.4615C20.5138 19.4584 20.521 19.4572 20.5291 19.4555C20.5309 19.4543 20.5327 19.4543 20.5345 19.4543C20.5399 19.4534 20.5459 19.451 20.5516 19.4507C20.5648 19.4476 20.5786 19.4447 20.5912 19.4402L20.6154 19.4339C20.6271 19.4307 20.6399 19.4276 20.651 19.4249C20.6582 19.4217 20.6654 19.4201 20.6734 19.4183C20.6919 19.4123 20.7085 19.4084 20.7263 19.4026C20.7342 19.399 20.7431 19.3961 20.7526 19.3939C20.7625 19.3903 20.773 19.3875 20.782 19.3831C20.7928 19.3799 20.8032 19.3777 20.8126 19.3736C20.8209 19.3714 20.8299 19.3677 20.8378 19.3641C20.8585 19.3568 20.8789 19.3505 20.9003 19.3424C20.9057 19.3406 20.9111 19.3374 20.917 19.3363C20.9296 19.3309 20.9428 19.3273 20.9531 19.3212C20.9581 19.3194 20.9635 19.317 20.9711 19.3152C21.016 19.2971 21.0605 19.2781 21.1047 19.2583C21.1051 19.2583 21.1074 19.2574 21.1088 19.2565C21.1731 19.2281 21.2378 19.1967 21.3021 19.1638C23.3692 18.009 24.4127 14.1297 27.6569 8.33408H26.7507L26.7525 8.33336Z" fill="white"/>
</mask>
<g mask="url(#mask52_363_3556)">
<mask id="mask53_363_3556" style="mask-type:luminance" maskUnits="userSpaceOnUse" x="19" y="8" width="9" height="12">
<path d="M27.6535 19.4626H19.6843V8.33264H27.6535V19.4626Z" fill="white"/>
</mask>
<g mask="url(#mask53_363_3556)">
<mask id="mask54_363_3556" style="mask-type:luminance" maskUnits="userSpaceOnUse" x="19" y="8" width="9" height="12">
<path d="M27.6535 8.33444V19.4644H19.6843V8.33444H27.6535Z" fill="white"/>
</mask>
<g mask="url(#mask54_363_3556)">
<path d="M27.6535 19.4626H19.6843V8.33264H27.6535V19.4626Z" fill="url(#paint12_linear_363_3556)"/>
</g>
</g>
</g>
<mask id="mask55_363_3556" style="mask-type:luminance" maskUnits="userSpaceOnUse" x="6" y="8" width="8" height="2">
<mask id="mask56_363_3556" style="mask-type:luminance" maskUnits="userSpaceOnUse" x="6" y="8" width="8" height="2">
<path d="M6.47046 8.12589H13.3116V9.70352H6.47046V8.12589Z" fill="white"/>
</mask>
<g mask="url(#mask56_363_3556)">
<mask id="mask57_363_3556" style="mask-type:luminance" maskUnits="userSpaceOnUse" x="6" y="7" width="8" height="3">
<path d="M6.29034 7.94723H13.4899V9.88362H6.29034V7.94723Z" fill="white"/>
</mask>
<g mask="url(#mask57_363_3556)">
<mask id="mask58_363_3556" style="mask-type:luminance" maskUnits="userSpaceOnUse" x="6" y="8" width="8" height="2">
<path d="M6.47083 9.70227H13.3109V8.12589H6.47083V9.70227Z" fill="white"/>
</mask>
<g mask="url(#mask58_363_3556)">
<mask id="mask59_363_3556" style="mask-type:luminance" maskUnits="userSpaceOnUse" x="6" y="8" width="8" height="2">
<path d="M6.47046 8.12589H13.3116V9.70353H6.47046V8.12589Z" fill="white"/>
</mask>
<g mask="url(#mask59_363_3556)">
<mask id="mask60_363_3556" style="mask-type:luminance" maskUnits="userSpaceOnUse" x="6" y="8" width="8" height="2">
<path d="M6.47083 9.70227H13.3109V8.12589H6.47083V9.70227Z" fill="white"/>
</mask>
<g mask="url(#mask60_363_3556)">
<mask id="mask61_363_3556" style="mask-type:luminance" maskUnits="userSpaceOnUse" x="6" y="8" width="8" height="2">
<path d="M13.3116 9.70227H6.47229V8.12589H13.3116V9.70227Z" fill="white"/>
</mask>
<g mask="url(#mask61_363_3556)">
<mask id="mask62_363_3556" style="mask-type:luminance" maskUnits="userSpaceOnUse" x="6" y="8" width="8" height="2">
<path d="M6.47046 8.12733H13.3098V9.70371H6.47046V8.12733Z" fill="white"/>
</mask>
<g mask="url(#mask62_363_3556)">
<mask id="mask63_363_3556" style="mask-type:luminance" maskUnits="userSpaceOnUse" x="6" y="8" width="8" height="2">
<path d="M6.47046 9.70352V8.12733H13.3098V9.70352H6.47046Z" fill="white"/>
</mask>
<g mask="url(#mask63_363_3556)">
<path d="M6.47046 8.12733H13.3098V9.70371H6.47046V8.12733Z" fill="url(#paint13_linear_363_3556)"/>
</g>
</g>
</g>
</g>
</g>
</g>
</g>
</g>
</mask>
<g mask="url(#mask55_363_3556)">
<mask id="mask64_363_3556" style="mask-type:luminance" maskUnits="userSpaceOnUse" x="8" y="7" width="6" height="4">
<path d="M8.38702 7.27728H13.8043V10.5493H8.38702V7.27728Z" fill="white"/>
</mask>
<g mask="url(#mask64_363_3556)">
<mask id="mask65_363_3556" style="mask-type:luminance" maskUnits="userSpaceOnUse" x="8" y="8" width="6" height="2">
<path d="M8.56079 9.63365H13.4859V8.57541H8.56079V9.63365Z" fill="white"/>
</mask>
<g mask="url(#mask65_363_3556)">
<path d="M8.81058 8.58801L8.82571 8.58981C8.83828 8.59034 8.85079 8.59173 8.86317 8.59395C8.86767 8.59395 8.87164 8.59485 8.87524 8.59539L8.94421 8.6044C8.94818 8.6053 8.95196 8.6053 8.95556 8.60656L9.01355 8.6161C9.01824 8.61758 9.02307 8.61854 9.02796 8.61898L9.16159 8.64834L9.17384 8.65122L9.22787 8.66635C9.23327 8.66779 9.23741 8.66869 9.24227 8.67103L9.30621 8.68904C9.30693 8.69012 9.30801 8.69012 9.31053 8.69085L9.36456 8.70993L9.38617 8.71714L9.42579 8.73515C9.43299 8.73695 9.44074 8.73983 9.44848 8.74289L9.50143 8.76504L9.52719 8.77621L9.5596 8.7899C9.56861 8.79494 9.57887 8.79926 9.5877 8.80341L9.61615 8.81781C9.84632 8.93091 10.0583 9.08111 10.2542 9.26445C10.3245 9.19051 10.4 9.12177 10.4803 9.05878C10.0516 8.75496 9.56537 8.58153 9.00491 8.58153C8.93956 8.58134 8.87424 8.5841 8.80914 8.58981" fill="#7DCBEC"/>
<path d="M10.2559 9.26265C10.376 9.37467 10.4911 9.49912 10.5981 9.63365L10.9125 9.42402C10.7753 9.28678 10.6303 9.1636 10.4799 9.05698C10.4018 9.11821 10.3265 9.18665 10.2539 9.26265" fill="#5EC5ED"/>
<mask id="mask66_363_3556" style="mask-type:luminance" maskUnits="userSpaceOnUse" x="8" y="8" width="5" height="2">
<path d="M8.81059 8.58801L9.00635 8.57973C9.56681 8.57973 10.0509 8.75316 10.4817 9.05698C10.9346 8.70039 11.4818 8.57541 12.2418 8.57541H8.56116C8.6458 8.57541 8.72901 8.58009 8.81059 8.58801Z" fill="white"/>
</mask>
<g mask="url(#mask66_363_3556)">
<mask id="mask67_363_3556" style="mask-type:luminance" maskUnits="userSpaceOnUse" x="8" y="7" width="5" height="4">
<path d="M9.09786 7.27728L12.4089 8.65051L11.6981 10.3643L8.38702 8.99089L9.09786 7.27728Z" fill="white"/>
</mask>
<g mask="url(#mask67_363_3556)">
<mask id="mask68_363_3556" style="mask-type:luminance" maskUnits="userSpaceOnUse" x="8" y="7" width="5" height="4">
<path d="M9.09786 7.27727L12.4089 8.65068L11.6981 10.3645L8.38702 8.99106L9.09786 7.27727Z" fill="white"/>
</mask>
<g mask="url(#mask68_363_3556)">
<path d="M9.09786 7.27728L12.4089 8.65051L11.6981 10.3643L8.38702 8.99089L9.09786 7.27728Z" fill="url(#paint14_linear_363_3556)"/>
</g>
</g>
</g>
<mask id="mask69_363_3556" style="mask-type:luminance" maskUnits="userSpaceOnUse" x="10" y="8" width="4" height="2">
<path d="M12.242 8.5754C11.4819 8.5754 10.9348 8.70021 10.4819 9.05698C10.6323 9.16359 10.7772 9.28678 10.9145 9.42401C11.5443 9.02312 12.1685 8.75802 12.7839 8.6424C13.0189 8.59809 13.2532 8.57576 13.4841 8.57576H12.242V8.5754Z" fill="white"/>
</mask>
<g mask="url(#mask69_363_3556)">
<mask id="mask70_363_3556" style="mask-type:luminance" maskUnits="userSpaceOnUse" x="10" y="7" width="4" height="4">
<path d="M10.164 8.71444L12.9735 7.44116L13.8045 9.274L10.995 10.5473L10.164 8.71444Z" fill="white"/>
</mask>
<g mask="url(#mask70_363_3556)">
<mask id="mask71_363_3556" style="mask-type:luminance" maskUnits="userSpaceOnUse" x="10" y="7" width="4" height="4">
<path d="M10.164 8.71444L12.9735 7.4408L13.8043 9.27364L10.9948 10.5473L10.164 8.71444Z" fill="white"/>
</mask>
<g mask="url(#mask71_363_3556)">
<path d="M10.164 8.71444L12.9735 7.44116L13.8045 9.274L10.995 10.5473L10.164 8.71444Z" fill="url(#paint15_linear_363_3556)"/>
</g>
</g>
</g>
</g>
</g>
</g>
<mask id="mask72_363_3556" style="mask-type:luminance" maskUnits="userSpaceOnUse" x="14" y="9" width="17" height="10">
<mask id="mask73_363_3556" style="mask-type:luminance" maskUnits="userSpaceOnUse" x="14" y="9" width="17" height="10">
<path d="M14.211 9.18936H30.3296V18.038H14.211V9.18936Z" fill="white"/>
</mask>
<g mask="url(#mask73_363_3556)">
<mask id="mask74_363_3556" style="mask-type:luminance" maskUnits="userSpaceOnUse" x="14" y="9" width="17" height="10">
<path d="M14.0367 9.01592H30.51V18.2181H14.0367V9.01592Z" fill="white"/>
</mask>
<g mask="url(#mask74_363_3556)">
<mask id="mask75_363_3556" style="mask-type:luminance" maskUnits="userSpaceOnUse" x="14" y="9" width="17" height="10">
<path d="M14.211 18.0313H30.3263V9.18936H14.211V18.0313Z" fill="white"/>
</mask>
<g mask="url(#mask75_363_3556)">
<mask id="mask76_363_3556" style="mask-type:luminance" maskUnits="userSpaceOnUse" x="14" y="9" width="17" height="10">
<path d="M14.211 9.18936H30.3296V18.038H14.211V9.18936Z" fill="white"/>
</mask>
<g mask="url(#mask76_363_3556)">
<mask id="mask77_363_3556" style="mask-type:luminance" maskUnits="userSpaceOnUse" x="14" y="9" width="17" height="10">
<path d="M14.211 18.0313H30.3263V9.18936H14.211V18.0313Z" fill="white"/>
</mask>
<g mask="url(#mask77_363_3556)">
<mask id="mask78_363_3556" style="mask-type:luminance" maskUnits="userSpaceOnUse" x="14" y="9" width="17" height="10">
<path d="M30.3255 18.0313H14.2123V9.18936H30.3255V18.0313Z" fill="white"/>
</mask>
<g mask="url(#mask78_363_3556)">
<mask id="mask79_363_3556" style="mask-type:luminance" maskUnits="userSpaceOnUse" x="14" y="9" width="17" height="10">
<path d="M14.2168 9.19602H30.33V18.038H14.2168V9.1962V9.19602Z" fill="white"/>
</mask>
<g mask="url(#mask79_363_3556)">
<mask id="mask80_363_3556" style="mask-type:luminance" maskUnits="userSpaceOnUse" x="14" y="9" width="17" height="10">
<path d="M14.2172 18.038V9.1962H30.3303V18.038H14.2172Z" fill="white"/>
</mask>
<g mask="url(#mask80_363_3556)">
<path d="M14.2168 9.19602H30.33V18.038H14.2168V9.1962V9.19602Z" fill="url(#paint16_linear_363_3556)"/>
</g>
</g>
</g>
</g>
</g>
</g>
</g>
</g>
</mask>
<g mask="url(#mask72_363_3556)">
<mask id="mask81_363_3556" style="mask-type:luminance" maskUnits="userSpaceOnUse" x="19" y="8" width="7" height="10">
<path d="M19.1851 8.34435H25.1117V17.4909H19.1851V8.34435Z" fill="white"/>
</mask>
<g mask="url(#mask81_363_3556)">
<mask id="mask82_363_3556" style="mask-type:luminance" maskUnits="userSpaceOnUse" x="19" y="8" width="7" height="10">
<path d="M19.1854 17.4909H25.0841V8.34705H19.1854V17.4909Z" fill="white"/>
</mask>
<g mask="url(#mask82_363_3556)">
<mask id="mask83_363_3556" style="mask-type:luminance" maskUnits="userSpaceOnUse" x="19" y="8" width="7" height="10">
<path d="M21.2625 15.0646L22.4283 11.3482C22.8461 10.0104 23.5868 9.01106 24.9781 8.57433L25.0849 8.34705C22.8156 8.48266 21.7579 9.63654 21.2245 11.3442C20.292 14.3262 19.7272 16.2594 19.1835 17.4909C19.8781 16.8267 20.5724 16.0116 21.2625 15.0646Z" fill="white"/>
</mask>
<g mask="url(#mask83_363_3556)">
<mask id="mask84_363_3556" style="mask-type:luminance" maskUnits="userSpaceOnUse" x="19" y="8" width="7" height="10">
<path d="M25.1117 17.4882H19.21V8.34434H25.1117V17.4882Z" fill="white"/>
</mask>
<g mask="url(#mask84_363_3556)">
<mask id="mask85_363_3556" style="mask-type:luminance" maskUnits="userSpaceOnUse" x="19" y="8" width="7" height="10">
<path d="M25.1117 8.34453V17.488H19.21V8.34453H25.1117Z" fill="white"/>
</mask>
<g mask="url(#mask85_363_3556)">
<path d="M25.1117 17.4882H19.21V8.34434H25.1117V17.4882Z" fill="url(#paint17_linear_363_3556)"/>
</g>
</g>
</g>
</g>
</g>
</g>
</g>
<defs>
<linearGradient id="paint0_linear_363_3556" x1="947.36" y1="-3799.63" x2="947.36" y2="-3095.19" gradientUnits="userSpaceOnUse">
<stop stop-color="#0994DC"/>
<stop offset="0.11" stop-color="#0994DC"/>
<stop offset="0.35" stop-color="#66CEF5"/>
<stop offset="0.45" stop-color="#66CEF5"/>
<stop offset="0.846" stop-color="#127BCA"/>
<stop offset="1" stop-color="#127BCA"/>
</linearGradient>
<linearGradient id="paint1_linear_363_3556" x1="1010.86" y1="-3914.75" x2="1010.86" y2="-3173.94" gradientUnits="userSpaceOnUse">
<stop stop-color="#0E76BC"/>
<stop offset="0.176" stop-color="#0E76BC"/>
<stop offset="0.36" stop-color="#36AEE8"/>
<stop offset="0.52" stop-color="#36AEE8"/>
<stop offset="0.846" stop-color="#00ADEF"/>
<stop offset="1" stop-color="#00ADEF"/>
</linearGradient>
<linearGradient id="paint2_linear_363_3556" x1="1012.74" y1="-4144.18" x2="1012.74" y2="-3345.62" gradientUnits="userSpaceOnUse">
<stop stop-color="#166AB8"/>
<stop offset="0.099" stop-color="#166AB8"/>
<stop offset="0.4" stop-color="#36AEE8"/>
<stop offset="0.516" stop-color="#36AEE8"/>
<stop offset="0.846" stop-color="#0798DD"/>
<stop offset="1" stop-color="#0798DD"/>
</linearGradient>
<linearGradient id="paint3_linear_363_3556" x1="1264.03" y1="-4403.15" x2="1264.03" y2="-3500.19" gradientUnits="userSpaceOnUse">
<stop stop-color="#124379"/>
<stop offset="0.11" stop-color="#124379"/>
<stop offset="0.39" stop-color="#1487CB"/>
<stop offset="0.52" stop-color="#1487CB"/>
<stop offset="0.78" stop-color="#165197"/>
<stop offset="1" stop-color="#165197"/>
</linearGradient>
<linearGradient id="paint4_linear_363_3556" x1="760.591" y1="-2951.74" x2="760.591" y2="-3472.13" gradientUnits="userSpaceOnUse">
<stop stop-color="#318ED5"/>
<stop offset="0.675" stop-color="#38A7E4"/>
<stop offset="1" stop-color="#38A7E4"/>
</linearGradient>
<linearGradient id="paint5_linear_363_3556" x1="3567.56" y1="-9718.65" x2="2117.19" y2="-7158.81" gradientUnits="userSpaceOnUse">
<stop stop-color="#231F20"/>
<stop offset="0.129" stop-color="white"/>
<stop offset="0.4" stop-color="white"/>
<stop offset="1" stop-color="white"/>
</linearGradient>
<linearGradient id="paint6_linear_363_3556" x1="728.559" y1="-2276.41" x2="728.559" y2="-2667.85" gradientUnits="userSpaceOnUse">
<stop stop-color="#05A1E6"/>
<stop offset="1" stop-color="#05A1E6"/>
</linearGradient>
<linearGradient id="paint7_linear_363_3556" x1="858.468" y1="-3210.7" x2="858.468" y2="-3680.23" gradientUnits="userSpaceOnUse">
<stop stop-color="#1959A6"/>
<stop offset="0.154" stop-color="#1959A6"/>
<stop offset="0.484" stop-color="#05A1E6"/>
<stop offset="0.5" stop-color="#05A1E6"/>
<stop offset="0.918" stop-color="#7EC5EA"/>
<stop offset="1" stop-color="#7EC5EA"/>
</linearGradient>
<linearGradient id="paint8_linear_363_3556" x1="1755.62" y1="-4961.09" x2="1597.81" y2="-5730.71" gradientUnits="userSpaceOnUse">
<stop stop-color="#165096"/>
<stop offset="0.104" stop-color="#165096"/>
<stop offset="1" stop-color="#0D82CA"/>
</linearGradient>
<linearGradient id="paint9_linear_363_3556" x1="898.334" y1="-2489.53" x2="898.334" y2="-2677.29" gradientUnits="userSpaceOnUse">
<stop stop-color="#05A1E6"/>
<stop offset="0.649" stop-color="#05A1E6"/>
<stop offset="0.874" stop-color="#0495D6"/>
<stop offset="1" stop-color="#0495D6"/>
</linearGradient>
<linearGradient id="paint10_linear_363_3556" x1="4076.93" y1="-2348.15" x2="4076.93" y2="-2173.11" gradientUnits="userSpaceOnUse">
<stop stop-color="#231F20"/>
<stop offset="1" stop-color="white"/>
</linearGradient>
<linearGradient id="paint11_linear_363_3556" x1="2657.45" y1="-5516.92" x2="2465.13" y2="-4647.4" gradientUnits="userSpaceOnUse">
<stop stop-color="#38A7E4"/>
<stop offset="0.357" stop-color="#38A7E4"/>
<stop offset="0.962" stop-color="#0E88D3"/>
<stop offset="1" stop-color="#0E88D3"/>
</linearGradient>
<linearGradient id="paint12_linear_363_3556" x1="1924.84" y1="-4601.83" x2="1924.84" y2="-3899.31" gradientUnits="userSpaceOnUse">
<stop stop-color="#168CD4"/>
<stop offset="0.5" stop-color="#1C87CC"/>
<stop offset="1" stop-color="#154B8D"/>
</linearGradient>
<linearGradient id="paint13_linear_363_3556" x1="1118.24" y1="-632.557" x2="1118.24" y2="-646.355" gradientUnits="userSpaceOnUse">
<stop stop-color="white"/>
<stop offset="0.363" stop-color="white"/>
<stop offset="1" stop-color="#918F90"/>
</linearGradient>
<linearGradient id="paint14_linear_363_3556" x1="646.112" y1="-1275.39" x2="699.155" y2="-1246.72" gradientUnits="userSpaceOnUse">
<stop stop-color="#97D6EE"/>
<stop offset="0.703" stop-color="#55C1EA"/>
<stop offset="1" stop-color="#55C1EA"/>
</linearGradient>
<linearGradient id="paint15_linear_363_3556" x1="618.106" y1="-1260.8" x2="657.406" y2="-1281.68" gradientUnits="userSpaceOnUse">
<stop stop-color="#7ACCEC"/>
<stop offset="0.335" stop-color="#7ACCEC"/>
<stop offset="0.841" stop-color="#3FB7ED"/>
<stop offset="1" stop-color="#3FB7ED"/>
</linearGradient>
<linearGradient id="paint16_linear_363_3556" x1="3741.4" y1="-3175.24" x2="3741.4" y2="-3609.36" gradientUnits="userSpaceOnUse">
<stop stop-color="#231F20"/>
<stop offset="1" stop-color="white"/>
</linearGradient>
<linearGradient id="paint17_linear_363_3556" x1="1380.67" y1="-3747.43" x2="1380.67" y2="-3182.91" gradientUnits="userSpaceOnUse">
<stop stop-color="#1DA7E7"/>
<stop offset="1" stop-color="#37ABE7"/>
</linearGradient>
<clipPath id="clip0_363_3556">
<rect width="28.8281" height="28.8281" fill="white" transform="translate(0.644531)"/>
</clipPath>
</defs>
</svg>
