<svg width="30" height="30" viewBox="0 0 30 30" fill="none" xmlns="http://www.w3.org/2000/svg">
<path d="M19.0365 9.5782H19.9513L22.5588 6.97063L22.6867 5.86314C17.8335 1.57902 10.4269 2.04183 6.14272 6.895C4.95238 8.242 4.08979 9.84653 3.61798 11.5825C3.90791 11.4637 4.23026 11.4438 4.53279 11.5284L9.74795 10.6677C9.74795 10.6677 10.0127 10.2283 10.1513 10.2553C12.4707 7.70716 16.3749 7.41003 19.0545 9.5782H19.0365Z" fill="#EA4335"/>
<path d="M26.2739 11.5825C25.6742 9.37464 24.4442 7.39018 22.7335 5.8739L19.0742 9.53311C20.6193 10.7955 21.4999 12.6989 21.4621 14.6943V15.3443C23.2611 15.3443 24.7198 16.803 24.7198 18.602C24.7198 20.401 23.2611 21.8596 21.4621 21.8596H14.9468L14.2967 22.5187V26.4265L14.9468 27.0766H21.4621C26.1406 27.1126 29.9637 23.3489 29.9997 18.6704C30.0213 15.8288 28.6221 13.1708 26.2739 11.5825Z" fill="#4285F4"/>
<path d="M8.42243 27.0352H14.9378V21.8201H8.42243C7.95784 21.8201 7.50043 21.7193 7.07725 21.5266L6.16244 21.8111L3.53687 24.4187L3.30817 25.3335C4.77943 26.4464 6.57662 27.0443 8.42243 27.0352Z" fill="#34A853"/>
<path d="M8.42248 10.1185C3.74222 10.1455 -0.0268678 13.9614 0.000144289 18.6417C0.0163515 21.2547 1.2355 23.7146 3.30823 25.3065L7.0863 21.5284C5.44758 20.7883 4.71825 18.8578 5.45838 17.2191C6.19852 15.5803 8.12897 14.851 9.76772 15.5911C10.4898 15.9171 11.0679 16.497 11.3957 17.2191L15.1737 13.441C13.5674 11.3376 11.0679 10.1077 8.42248 10.1185Z" fill="#FBBC05"/>
</svg>
