<svg width="30" height="30" viewBox="0 0 30 30" fill="none" xmlns="http://www.w3.org/2000/svg">
<path fill-rule="evenodd" clip-rule="evenodd" d="M16.9853 13.1667C16.632 13.2656 16.2737 13.3658 15.859 13.4785C15.6563 13.5359 15.6103 13.5489 15.4217 13.3197C15.1955 13.0497 15.0297 12.875 14.713 12.7162C13.7632 12.2238 12.8434 12.3667 11.984 12.9544C10.9587 13.6533 10.431 14.6857 10.4461 15.9722C10.4611 17.2428 11.2904 18.2911 12.4815 18.4658C13.5068 18.6088 14.3663 18.2276 15.0448 17.4176C15.1804 17.2429 15.3012 17.0521 15.4519 16.8299H12.5419C12.2252 16.8299 12.1498 16.6234 12.2554 16.3534C12.4514 15.861 12.8133 15.0351 13.0243 14.6221C13.0696 14.5268 13.1751 14.368 13.4013 14.368H18.2534C18.4713 13.6405 18.8249 12.9531 19.2967 12.3027C20.3973 10.7779 21.7242 9.98372 23.5184 9.65018C25.0563 9.36428 26.5038 9.52311 27.8156 10.4602C29.0067 11.3179 29.7455 12.4774 29.9415 14.0021C30.1978 16.1464 29.6098 17.8935 28.2076 19.3865C27.2125 20.4507 25.9912 21.1178 24.5889 21.4196C24.3215 21.4717 24.054 21.4965 23.7908 21.5209C23.6534 21.5336 23.5172 21.5462 23.3827 21.5625C22.0107 21.5307 20.7592 21.1178 19.7038 20.1648C18.9615 19.4889 18.4502 18.6583 18.1961 17.6913C18.0198 18.0665 17.8089 18.4258 17.5627 18.7676C16.4771 20.2765 15.0598 21.2136 13.2656 21.4677C11.788 21.6742 10.4159 21.3724 9.20969 20.4195C8.09394 19.53 7.46067 18.3547 7.29482 16.8934C7.09881 15.1622 7.58129 13.6056 8.57642 12.2397C9.64694 10.7625 11.0642 9.82542 12.7982 9.49188C14.2155 9.22187 15.5725 9.39658 16.7938 10.2702C17.5929 10.8261 18.1658 11.5884 18.5428 12.5097C18.6332 12.6526 18.5729 12.732 18.392 12.7797C17.8636 12.9211 17.4284 13.0428 16.9853 13.1667ZM26.9607 14.9759C26.9637 15.0292 26.9668 15.0854 26.9712 15.1457C26.8958 16.5117 26.2475 17.5282 25.0563 18.1794C24.2572 18.6083 23.428 18.6559 22.5987 18.2747C21.5131 17.7664 20.9401 16.5117 21.2115 15.2728C21.5432 13.7798 22.4479 12.8427 23.8501 12.5091C25.2825 12.1597 26.6546 13.0492 26.926 14.6216C26.9473 14.734 26.9536 14.8465 26.9607 14.9759Z" fill="#00ACD7"/>
<path d="M2.29182 12.9862C2.26166 13.0339 2.27674 13.0656 2.33705 13.0656L6.82744 13.0815C6.87267 13.0815 6.94806 13.0339 6.97821 12.9862L7.23454 12.5733C7.26469 12.5256 7.24961 12.478 7.1893 12.478H2.7743C2.71399 12.478 2.63861 12.5097 2.60845 12.5574L2.29182 12.9862Z" fill="#00ACD7"/>
<path d="M0.0150777 14.4474C-0.0150777 14.4951 6.98492e-09 14.5268 0.0603108 14.5268L6.22432 14.5109C6.28463 14.5109 6.34494 14.4792 6.36002 14.4156L6.48064 14.0344C6.49572 13.9868 6.46556 13.9391 6.40525 13.9391H0.497564C0.437253 13.9391 0.361865 13.9709 0.331709 14.0186L0.0150777 14.4474Z" fill="#00ACD7"/>
<path d="M3.66387 15.8928C3.63371 15.9405 3.64879 15.9881 3.7091 15.9881L6.0283 16.004C6.07353 16.004 6.13384 15.9564 6.13384 15.8928L6.164 15.5116C6.164 15.4481 6.13384 15.4004 6.07353 15.4004H4.02573C3.96542 15.4004 3.90511 15.4481 3.87496 15.4957L3.66387 15.8928Z" fill="#00ACD7"/>
</svg>
