<svg width="30" height="30" viewBox="0 0 30 30" fill="none" xmlns="http://www.w3.org/2000/svg">
<path fill-rule="evenodd" clip-rule="evenodd" d="M4.16515 27.0011L1.75781 0H28.2103L25.8004 26.9969L14.9679 30L4.16515 27.0011Z" fill="#E44D26"/>
<path fill-rule="evenodd" clip-rule="evenodd" d="M14.9839 27.7043L23.7371 25.2776L25.7965 2.20752H14.9839V27.7043Z" fill="#F16529"/>
<path d="M10.602 12.2222H14.984V15.5338H7.57336L6.68018 5.51953H14.984V8.83114H10.2993L10.602 12.2222Z" fill="#EBEBEB"/>
<path d="M14.9695 20.8266L14.984 20.8228V24.2682L14.9688 24.2724L8.18528 22.3893L7.72133 17.1896H11.0456L11.2814 19.8308L14.9695 20.8266Z" fill="#EBEBEB"/>
<path d="M14.9727 5.51953H23.2682L22.9717 8.83114H14.9727V5.51953Z" fill="white"/>
<path d="M14.9727 15.5338V12.2222H22.6704L22.5896 13.1115L21.7616 22.3893L14.9727 24.2708V20.8255L18.6661 19.8286L19.0505 15.5338H14.9727Z" fill="white"/>
</svg>
