<svg width="30" height="30" viewBox="0 0 30 30" fill="none" xmlns="http://www.w3.org/2000/svg">
<path d="M0.139465 22.1459H2.62031V11.585H0.139465V22.1459ZM1.37491 10.2C2.15205 10.2 2.7598 9.60221 2.7598 8.85499C2.7598 8.09778 2.15205 7.5 1.37491 7.5C0.607751 7.5 0 8.0978 0 8.85499C0 9.60223 0.607751 10.2 1.37491 10.2ZM10.8801 7.52982C6.68572 7.52982 4.05531 10.3893 4.05531 14.9624C4.05531 19.5356 6.68546 22.3851 10.8801 22.3851C15.0646 22.3851 17.695 19.5356 17.695 14.9624C17.695 10.3893 15.0649 7.52982 10.8801 7.52982ZM10.8801 9.72173C13.4407 9.72173 15.0746 11.7542 15.0746 14.9624C15.0746 18.1606 13.4406 20.1931 10.8801 20.1931C8.30967 20.1931 6.68572 18.1606 6.68572 14.9624C6.68572 11.7543 8.30972 9.72173 10.8801 9.72173ZM18.7415 18.1009C18.8511 20.7512 21.0231 22.3851 24.3308 22.3851C27.808 22.3851 30 20.6714 30 17.9415C30 15.7994 28.7646 14.5938 25.8454 13.9263L24.1915 13.5477C22.428 13.1293 21.7007 12.5714 21.7007 11.6149C21.7007 10.4193 22.7966 9.62226 24.4206 9.62226C26.0645 9.62226 27.1903 10.4293 27.3099 11.7743H29.7609C29.7011 9.24365 27.6088 7.52989 24.4406 7.52989C21.3121 7.52989 19.0903 9.25352 19.0903 11.8041C19.0903 13.8566 20.3456 15.1319 22.9957 15.7397L24.8588 16.1781C26.6721 16.6065 27.4094 17.2043 27.4094 18.2404C27.4094 19.436 26.2039 20.2929 24.4704 20.2929C22.7169 20.2929 21.3918 19.4261 21.2324 18.1009H18.7416L18.7415 18.1009Z" fill="black"/>
</svg>
