<svg width="30" height="30" viewBox="0 0 30 30" fill="none" xmlns="http://www.w3.org/2000/svg">
<g clip-path="url(#clip0_363_3520)">
<path fill-rule="evenodd" clip-rule="evenodd" d="M0 0H30V30H0V0Z" fill="#F7DF1E"/>
<path fill-rule="evenodd" clip-rule="evenodd" d="M7.88811 25.0702L10.1839 23.6808C10.6268 24.4661 11.0297 25.1305 11.9962 25.1305C12.9225 25.1305 13.5066 24.7681 13.5066 23.3586V13.7729H16.3258V23.3985C16.3258 26.3185 14.6142 27.6476 12.117 27.6476C9.86173 27.6476 8.55259 26.4795 7.88806 25.07" fill="black"/>
<path fill-rule="evenodd" clip-rule="evenodd" d="M17.8572 24.7681L20.1527 23.439C20.757 24.4259 21.5424 25.1508 22.9318 25.1508C24.0999 25.1508 24.8448 24.5667 24.8448 23.7612C24.8448 22.7946 24.0797 22.4522 22.7908 21.8885L22.0862 21.5862C20.0521 20.7205 18.7028 19.633 18.7028 17.3373C18.7028 15.2228 20.3138 13.6117 22.8312 13.6117C24.6235 13.6117 25.9123 14.236 26.8385 15.8672L24.6435 17.2768C24.1601 16.4109 23.6367 16.0687 22.8312 16.0687C22.0056 16.0687 21.4819 16.5922 21.4819 17.2768C21.4819 18.1226 22.0056 18.465 23.2137 18.9887L23.9185 19.2907C26.3149 20.3178 27.6642 21.3649 27.6642 23.7209C27.6642 26.2584 25.6706 27.6478 22.9923 27.6478C20.3744 27.6478 18.6827 26.3993 17.8572 24.7681" fill="black"/>
</g>
<defs>
<clipPath id="clip0_363_3520">
<rect width="30" height="30" fill="white"/>
</clipPath>
</defs>
</svg>
