<svg width="30" height="30" viewBox="0 0 30 30" fill="none" xmlns="http://www.w3.org/2000/svg">
<path d="M25.2857 19.7586C25.5437 19.6105 25.7031 19.3361 25.704 19.0386L25.719 14.216C25.72 13.9185 25.8794 13.6441 26.1374 13.496L28.7516 11.9942C29.0095 11.8462 29.3267 11.8467 29.5841 11.9956C29.8415 12.1446 30 12.4194 30 12.7168V21.4845C30 21.7829 29.8404 22.0584 29.5817 22.207L19.7155 27.8739C19.4591 28.0211 19.1439 28.0214 18.8872 27.8747L11.1445 23.4462C10.8848 23.2979 10.7246 23.0219 10.7245 22.7229V18.3019C10.7245 18.2969 10.7303 18.2936 10.7353 18.2961C10.7395 18.2986 10.7453 18.2961 10.7453 18.2903V18.2853C10.7453 18.2819 10.747 18.2786 10.7503 18.2769L17.1271 14.6135C17.133 14.6102 17.1305 14.601 17.1238 14.601C17.1201 14.601 17.1171 14.598 17.1171 14.5943L17.1296 10.26C17.1308 9.96171 16.9725 9.68551 16.7144 9.53583C16.4563 9.38616 16.138 9.38585 15.8796 9.53501L11.1403 12.2659C10.8829 12.4141 10.566 12.4141 10.3086 12.2659L5.55432 9.52834C5.29654 9.37991 4.97917 9.38013 4.7216 9.52894C4.46403 9.67774 4.3053 9.95256 4.30512 10.25V18.0836C4.30532 18.3807 4.14729 18.6555 3.89035 18.8047C3.63341 18.954 3.31644 18.9552 3.05842 18.8078L0.420014 17.2994C0.159861 17.1508 -0.00049999 16.874 1.17124e-06 16.5744L0.0233363 2.88232C0.0239826 2.58526 0.182712 2.311 0.439966 2.16246C0.69722 2.01391 1.0141 2.01353 1.2717 2.16147L10.3095 7.35245C10.5664 7.50003 10.8825 7.50003 11.1395 7.35245L20.1747 2.16147C20.4327 2.01331 20.7501 2.01393 21.0075 2.16308C21.265 2.31224 21.4233 2.58732 21.4231 2.88482V16.5802C21.4232 16.8784 21.264 17.1539 21.0056 17.3027L16.2738 20.0278C16.0151 20.1769 15.8559 20.4531 15.8566 20.7517C15.8573 21.0503 16.0177 21.3257 16.2771 21.4737L18.8872 22.9595C19.1438 23.1057 19.4587 23.105 19.7147 22.9579L25.2857 19.7586ZM25.8332 7.47329C25.8335 7.77332 25.995 8.05006 26.2561 8.19786C26.5172 8.34565 26.8376 8.34169 27.0949 8.18747L29.595 6.68743C29.846 6.537 29.9998 6.26591 30 5.97324V2.91649C29.9995 2.61661 29.8378 2.34014 29.5768 2.19255C29.3158 2.04495 28.9955 2.049 28.7383 2.20314L26.2382 3.70318C25.9872 3.85361 25.8335 4.1247 25.8332 4.41737V7.47412V7.47329Z" fill="#007FFF"/>
</svg>
