<svg width="30" height="30" viewBox="0 0 30 30" fill="none" xmlns="http://www.w3.org/2000/svg">
<g clip-path="url(#clip0_79_2021)">
<path d="M30 27.7025V2.29778C30 1.2556 29.306 0.376036 28.355 0.0947266L27.2752 0.740877L15.291 13.5187L14.9153 14.693L14.6958 15.8202L18.4329 29.7867L19.0111 30.0001H27.7024C28.9714 30.0001 30 28.9715 30 27.7025Z" fill="#EA6618"/>
<path d="M0 2.29762V27.7023C0 28.488 0.394524 29.1812 0.995992 29.5955L1.7329 29.2426L14.418 15.6613L14.9153 14.6929L14.9338 13.7566L11.4815 0.621667L10.9587 0H2.29762C1.02869 0 0 1.02869 0 2.29762Z" fill="#D65813"/>
<path d="M14.915 14.6929L28.3548 0.0946032C28.1478 0.033373 27.9289 0 27.7021 0H10.9585L14.915 14.6929Z" fill="#E05E11"/>
<path d="M2.29772 30H19.0111L14.9153 14.6929L0.996094 29.5955C1.36613 29.8504 1.81439 30 2.29772 30Z" fill="#DE5C16"/>
<path d="M11.1232 11.3707H12.7902C13.4544 13.8769 14.2103 16.0761 15.0537 18.0604C16.009 15.8279 16.7092 13.6272 17.302 11.3707H18.8772C18.1717 14.1745 17.0177 17.0004 15.6977 19.9171H14.3044C13.0364 17.1531 11.957 14.3113 11.1232 11.3707ZM5.62475 7.02832H9.33145V22.9233H5.6084V21.698H7.89014V8.22094H5.62475V7.02832ZM24.3945 8.22095H22.1291V21.6981H24.4108V22.9233H20.6878V7.02833H24.3945V8.22095Z" fill="white"/>
</g>
<defs>
<clipPath id="clip0_79_2021">
<rect width="30" height="30" fill="white"/>
</clipPath>
</defs>
</svg>
