<svg width="30" height="30" viewBox="0 0 30 30" fill="none" xmlns="http://www.w3.org/2000/svg">
<path fill-rule="evenodd" clip-rule="evenodd" d="M15.0266 29.5941C14.6236 29.5941 14.2475 29.4866 13.8982 29.2986L10.3252 27.1762C9.78789 26.8807 10.0565 26.7733 10.2177 26.7195C10.9431 26.4777 11.0774 26.424 11.8296 25.9942C11.9102 25.9404 12.0177 25.9673 12.0983 26.021L14.8385 27.6598C14.946 27.7135 15.0803 27.7135 15.1609 27.6598L25.88 21.454C25.9875 21.4003 26.0412 21.2928 26.0412 21.1585V8.77373C26.0412 8.6394 25.9875 8.53195 25.88 8.47822L15.1609 2.29927C15.0534 2.24554 14.9191 2.24554 14.8385 2.29927L4.11938 8.47822C4.01192 8.53195 3.95819 8.66627 3.95819 8.77373V21.1585C3.95819 21.2659 4.01192 21.4003 4.11938 21.454L7.04766 23.1465C8.6327 23.9524 9.6267 23.0122 9.6267 22.0719V9.84833C9.6267 9.68714 9.76103 9.52595 9.94908 9.52595H11.3192C11.4804 9.52595 11.6416 9.66027 11.6416 9.84833V22.0719C11.6416 24.1942 10.4864 25.43 8.47151 25.43C7.85361 25.43 7.37004 25.43 5.99993 24.7584L3.17911 23.1465C2.48062 22.7435 2.05078 21.9913 2.05078 21.1853V8.80059C2.05078 7.99465 2.48062 7.24243 3.17911 6.83945L13.8982 0.633644C14.5699 0.257535 15.4833 0.257535 16.1549 0.633644L26.874 6.83945C27.5725 7.24243 28.0023 7.99465 28.0023 8.80059V21.1853C28.0023 21.9913 27.5725 22.7435 26.874 23.1465L16.1549 29.3523C15.8056 29.5135 15.4027 29.5941 15.0266 29.5941ZM18.331 21.0779C13.6296 21.0779 12.6624 18.9287 12.6624 17.1019C12.6624 16.9407 12.7968 16.7795 12.9848 16.7795H14.3818C14.543 16.7795 14.6773 16.8869 14.6773 17.0481C14.8922 18.472 15.5101 19.1705 18.3578 19.1705C20.6145 19.1705 21.5816 18.66 21.5816 17.4511C21.5816 16.7526 21.313 16.2422 17.7937 15.8929C14.8654 15.5974 13.0386 14.9527 13.0386 12.6154C13.0386 10.4394 14.8654 9.14984 17.928 9.14984C21.3667 9.14984 23.0592 10.3319 23.2741 12.9109C23.2741 12.9915 23.2472 13.0721 23.1935 13.1527C23.1398 13.2064 23.0592 13.2602 22.9786 13.2602H21.5816C21.4473 13.2602 21.313 13.1527 21.2861 13.0184C20.9637 11.5408 20.1309 11.0573 17.928 11.0573C15.4564 11.0573 15.1609 11.9169 15.1609 12.5617C15.1609 13.3408 15.5101 13.5826 18.8414 14.0124C22.1458 14.4422 23.7039 15.0601 23.7039 17.3705C23.6771 19.7346 21.7428 21.0779 18.331 21.0779Z" fill="#539E43"/>
</svg>
