<svg width="30" height="30" viewBox="0 0 30 30" fill="none" xmlns="http://www.w3.org/2000/svg">
<g clip-path="url(#clip0_406_2518)">
<g clip-path="url(#clip1_406_2518)">
<path d="M0 0H30V30H0V0Z" fill="#A24689"/>
<path d="M6.12561 13.043C6.50534 13.043 6.86395 13.1186 7.20126 13.2697C7.53843 13.4208 7.8349 13.6244 8.0908 13.8801C8.34659 14.1359 8.5501 14.4344 8.70126 14.7755C8.85239 15.1168 8.92799 15.481 8.92799 15.8685C8.92799 16.2562 8.85423 16.6185 8.70704 16.9557C8.55966 17.2929 8.36001 17.5894 8.10816 17.8453C7.85616 18.101 7.55965 18.3027 7.21863 18.4499C6.87738 18.5973 6.50931 18.6709 6.11395 18.6709C5.72624 18.6709 5.36196 18.6011 5.02094 18.4616C4.67973 18.322 4.38141 18.1264 4.12559 17.8744C3.86984 17.6225 3.66813 17.3261 3.52094 16.9848C3.3736 16.6438 3.29999 16.2716 3.29999 15.8685C3.29999 15.481 3.37158 15.1185 3.51509 14.7813C3.65841 14.4441 3.85806 14.1496 4.11396 13.8976C4.36975 13.6457 4.67009 13.4441 5.01513 13.293C5.35998 13.1418 5.73025 13.0586 6.12561 13.043ZM6.11399 14.1941C5.88906 14.1941 5.67396 14.2369 5.46865 14.322C5.26319 14.4074 5.08495 14.5255 4.93371 14.6767C4.78259 14.8278 4.66233 15.0043 4.5733 15.2057C4.48409 15.4074 4.43958 15.6284 4.43958 15.8685C4.43958 16.0934 4.48413 16.3086 4.5733 16.5139C4.66233 16.7194 4.78259 16.8996 4.93371 17.0546C5.08488 17.2098 5.26311 17.3319 5.46865 17.4209C5.67396 17.5101 5.88906 17.5546 6.11399 17.5546C6.33604 17.5552 6.5558 17.5096 6.75936 17.4209C6.96468 17.3319 7.14303 17.2098 7.29426 17.0546C7.44543 16.8996 7.5655 16.7194 7.65471 16.5139C7.74341 16.3103 7.78892 16.0906 7.78836 15.8685C7.76515 15.4113 7.60233 15.0256 7.30008 14.7115C6.99771 14.3976 6.60618 14.2251 6.12565 14.194L6.11399 14.1941ZM14.2186 11.2523C14.3504 11.2446 14.4744 11.2969 14.5907 11.4092C14.707 11.5217 14.7651 11.6438 14.7651 11.7755V15.8569C14.7651 16.2368 14.6876 16.5973 14.5326 16.9383C14.3774 17.2796 14.1681 17.5779 13.9047 17.8337C13.6411 18.0895 13.3407 18.293 13.0035 18.4441C12.6663 18.5953 12.3116 18.6709 11.9396 18.6709C11.5597 18.6709 11.1992 18.5973 10.8582 18.4499C10.5169 18.3027 10.2186 18.101 9.9628 17.8453C9.70701 17.5895 9.5035 17.2912 9.35234 16.9499C9.20121 16.6089 9.12561 16.2446 9.12561 15.8569C9.12561 15.4383 9.19341 15.0702 9.32913 14.7523C9.46461 14.4344 9.66813 14.1359 9.93955 13.8569V13.8686C10.2263 13.5973 10.5422 13.3918 10.8872 13.2523C11.232 13.1127 11.5867 13.043 11.9512 13.043C12.1681 13.043 12.4259 13.0778 12.7244 13.1476C13.0227 13.2173 13.3192 13.3531 13.614 13.5546V11.8337C13.614 11.7563 13.6294 11.6825 13.6605 11.6127C13.6913 11.543 13.7325 11.4783 13.7826 11.4209C13.832 11.3634 13.8935 11.3177 13.9628 11.2871C14.0326 11.2563 14.1024 11.2446 14.1721 11.2523H14.2186ZM13.614 15.8569C13.614 15.6476 13.5693 15.4423 13.4803 15.2406C13.3916 15.0399 13.2675 14.8567 13.114 14.6999C12.9604 14.5422 12.779 14.414 12.579 14.322C12.3773 14.229 12.1642 14.1824 11.9395 14.1824C11.7175 14.1819 11.4977 14.2274 11.2941 14.3161C11.0887 14.4053 10.9105 14.5254 10.7592 14.6766C10.6081 14.8277 10.4878 15.0061 10.3988 15.2115C10.3096 15.4169 10.2651 15.6321 10.2651 15.8569C10.2651 16.0894 10.3096 16.3065 10.3988 16.508C10.4878 16.7097 10.6081 16.8859 10.7592 17.037C10.9104 17.1882 11.0886 17.3084 11.2941 17.3975C11.4995 17.4867 11.7146 17.5312 11.9395 17.5312C12.1642 17.5312 12.3773 17.4866 12.579 17.3975C12.7805 17.3084 12.9588 17.1882 13.114 17.037C13.269 16.8859 13.3911 16.7097 13.4803 16.508C13.5693 16.3066 13.614 16.0895 13.614 15.8569ZM17.9163 13.043C18.2961 13.043 18.6546 13.1186 18.9919 13.2697C19.3291 13.4208 19.6256 13.6244 19.8815 13.8801C20.1373 14.1359 20.3408 14.4344 20.4919 14.7755C20.6431 15.1168 20.7187 15.481 20.7187 15.8685C20.7187 16.2562 20.6449 16.6185 20.4977 16.9557C20.3503 17.2929 20.1507 17.5894 19.8988 17.8453C19.6468 18.101 19.3503 18.3027 19.0093 18.4499C18.6681 18.5973 18.3 18.6709 17.9046 18.6709C17.5169 18.6709 17.1526 18.6011 16.8117 18.4616C16.4704 18.322 16.1721 18.1264 15.9163 17.8744C15.6605 17.6225 15.4588 17.3261 15.3116 16.9848C15.1643 16.6438 15.0907 16.2716 15.0907 15.8685C15.0907 15.481 15.1623 15.1185 15.3058 14.7813C15.4491 14.4441 15.6487 14.1496 15.9046 13.8976C16.1604 13.6457 16.4608 13.4441 16.8058 13.293C17.1507 13.1418 17.5209 13.0586 17.9163 13.043ZM17.9047 14.1941C17.6797 14.1941 17.4647 14.2369 17.2593 14.322C17.0539 14.4074 16.8757 14.5255 16.7244 14.6767C16.5733 14.8278 16.453 15.0043 16.364 15.2057C16.2748 15.4074 16.2303 15.6284 16.2303 15.8685C16.2303 16.0934 16.2748 16.3086 16.364 16.5139C16.453 16.7194 16.5733 16.8996 16.7244 17.0546C16.8756 17.2098 17.0538 17.3319 17.2593 17.4209C17.4647 17.5101 17.6797 17.5546 17.9047 17.5546C18.1267 17.5552 18.3465 17.5096 18.55 17.4209C18.7554 17.3319 18.9337 17.2098 19.0849 17.0546C19.2361 16.8996 19.3562 16.7194 19.4454 16.5139C19.5341 16.3103 19.5796 16.0906 19.5791 15.8685C19.5558 15.4113 19.393 15.0256 19.0907 14.7115C18.7884 14.3976 18.3969 14.2251 17.9164 14.194L17.9047 14.1941ZM23.8233 13.043C24.203 13.043 24.5616 13.1186 24.8989 13.2697C25.2361 13.4208 25.5325 13.6244 25.7884 13.8801C26.0442 14.1359 26.2477 14.4344 26.3989 14.7755C26.55 15.1168 26.6256 15.481 26.6256 15.8685C26.6256 16.2562 26.5518 16.6185 26.4047 16.9557C26.2573 17.2929 26.0577 17.5894 25.8058 17.8453C25.5538 18.101 25.2573 18.3027 24.9162 18.4499C24.575 18.5973 24.207 18.6709 23.8116 18.6709C23.4238 18.6709 23.0596 18.6011 22.7186 18.4616C22.3774 18.322 22.0791 18.1264 21.8232 17.8744C21.5674 17.6225 21.3658 17.3261 21.2186 16.9848C21.0712 16.6438 20.9976 16.2716 20.9976 15.8685C20.9976 15.481 21.0692 15.1185 21.2127 14.7813C21.3561 14.4441 21.5557 14.1496 21.8116 13.8976C22.0674 13.6457 22.3677 13.4441 22.7127 13.293C23.0576 13.1418 23.4279 13.0586 23.8233 13.043ZM23.8116 14.1941C23.5867 14.1941 23.3716 14.2369 23.1663 14.322C22.9608 14.4074 22.7826 14.5255 22.6314 14.6767C22.4802 14.8278 22.36 15.0043 22.2709 15.2057C22.1817 15.4074 22.1372 15.6284 22.1372 15.8685C22.1372 16.0934 22.1818 16.3086 22.2709 16.5139C22.36 16.7194 22.4802 16.8996 22.6314 17.0546C22.7825 17.2098 22.9608 17.3319 23.1663 17.4209C23.3716 17.5101 23.5867 17.5546 23.8116 17.5546C24.0337 17.5552 24.2534 17.5096 24.457 17.4209C24.6623 17.3319 24.8407 17.2098 24.9919 17.0546C25.143 16.8996 25.2631 16.7194 25.3524 16.5139C25.441 16.3103 25.4865 16.0906 25.486 15.8685C25.4628 15.4113 25.3 15.0256 24.9976 14.7115C24.6953 14.3976 24.3038 14.2251 23.8233 14.194L23.8116 14.1941Z" fill="white"/>
</g>
</g>
<defs>
<clipPath id="clip0_406_2518">
<rect width="30" height="30" fill="white"/>
</clipPath>
<clipPath id="clip1_406_2518">
<rect width="30" height="30" fill="white"/>
</clipPath>
</defs>
</svg>
