<svg width="30" height="30" viewBox="0 0 30 30" fill="none" xmlns="http://www.w3.org/2000/svg">
<g clip-path="url(#clip0_79_2138)">
<path d="M28.4249 4.37186C28.3283 2.05941 26.1131 1.57441 26.1131 1.57441C26.1131 1.57441 18.4353 0.512801 15.0718 0.127394C11.7072 -0.260006 11.9166 2.73163 11.9166 2.73163C11.9166 2.73163 12.6807 24.5365 12.76 27.2374C12.85 30.4551 16.1235 29.9372 16.1235 29.9372L27.6912 28.1018C29.7947 27.7154 29.8989 25.3054 29.8989 25.3054C29.8989 25.3054 28.5324 6.89642 28.4249 4.37186C28.5324 6.89642 28.3283 2.05941 28.4249 4.37186ZM25.8374 22.8943L17.236 23.7119C17.236 23.7119 14.731 24.0625 14.6745 21.27C14.6333 19.2125 14.1373 7.42723 14.1373 7.42723C14.1373 7.42723 13.9647 5.26616 16.5424 5.44343C19.1733 5.62269 25.4771 6.06287 25.4771 6.06287C25.4771 6.06287 27.1648 6.43134 27.2386 8.19605C27.3179 10.1141 28.0462 20.7661 28.0462 20.7661C28.0462 20.7661 28.2361 22.5169 25.8374 22.8943Z" fill="black"/>
<path d="M4.78056 19.7174L3.1916 19.8209C3.1916 19.8209 1.58852 20.0201 1.55162 18.4108C1.52557 17.2247 1.36494 10.4925 1.36494 10.4925C1.36494 10.4925 1.25423 9.24663 2.90289 9.34821C3.32076 9.37311 3.91336 9.40797 4.56783 9.44382C4.54504 8.32743 4.5255 7.35146 4.51031 6.60853C3.60295 6.54579 2.7542 6.47807 2.14748 6.41931C-0.0308332 6.19922 0.102666 7.87729 0.102666 7.87729C0.102666 7.87729 0.365323 20.2243 0.414164 21.738C0.473859 23.5426 2.59139 23.2498 2.59139 23.2498L4.8522 23.0277C4.83266 22.1324 4.80661 20.9911 4.78056 19.7174Z" fill="black"/>
<path d="M11.1005 8.49493C11.0929 8.33758 11.0647 8.19417 11.0213 8.0657C10.3256 8.01391 8.57924 7.59664 8.01919 8.13939C7.66428 8.48098 7.8108 9.20101 7.81949 9.61032C8.56838 9.64916 9.0861 9.67604 9.0861 9.67604C9.0861 9.67604 10.166 9.88817 10.2127 10.904C10.2626 12.0114 10.2561 18.2148 10.2561 18.2148C10.2561 18.2148 10.3777 19.2266 8.84515 19.4407L8.0409 19.4955C8.04524 19.7156 8.04958 19.8928 8.05175 20.0243C8.0854 21.793 10.1356 21.2263 11.4218 21.1118C11.5325 19.2355 11.336 17.3025 11.2905 15.4253C11.2351 13.1158 11.2145 10.8024 11.1005 8.49493C11.17 9.90709 11.0929 8.33758 11.1005 8.49493Z" fill="black"/>
<path d="M11.7657 21.8366L9.44846 22.0417C9.44846 22.0417 7.28751 22.3265 7.24084 20.042C7.20719 18.356 6.99012 8.79944 6.99012 8.79944C6.99012 8.79944 6.84034 7.03274 9.05773 7.17416C9.62754 7.21001 10.4112 7.26876 11.2643 7.33151C11.2002 5.49808 11.1492 4.05206 11.1232 3.30713C9.95532 3.20257 8.85477 3.097 8.04075 3.01136C5.11028 2.70662 5.29479 5.08379 5.29479 5.08379C5.29479 5.08379 5.64319 22.6134 5.71157 24.7555C5.7908 27.3159 8.64204 26.9046 8.64204 26.9046L11.9231 26.5192C11.8905 25.5223 11.8352 23.8483 11.7657 21.8366Z" fill="black"/>
<path d="M16.4806 6.18835C16.0704 6.15848 15.5722 6.18337 15.2683 6.47716C14.947 6.78588 14.9416 7.22407 14.96 7.62044C16.1225 7.71305 16.9658 7.78177 16.9658 7.78177C16.9658 7.78177 18.418 8.08153 18.4842 9.52556C18.5515 11.0961 18.9672 19.6298 18.9672 19.6298C18.9672 19.6298 19.13 21.0649 17.0656 21.3746L15.5027 21.512C15.71 23.7538 18.8695 22.8077 20.4856 22.6543C20.3195 19.2832 19.8051 8.85733 19.689 6.40944C18.4636 6.3218 17.2936 6.24114 16.4806 6.18835C17.2936 6.24114 16.4003 6.18238 16.4806 6.18835Z" fill="black"/>
</g>
<defs>
<clipPath id="clip0_79_2138">
<rect width="30" height="30" fill="white"/>
</clipPath>
</defs>
</svg>
