<svg width="30" height="30" viewBox="0 0 30 30" fill="none" xmlns="http://www.w3.org/2000/svg">
<path d="M20.4252 20.2088C21.463 20.1031 22.2504 19.2235 22.2146 18.1678C22.1789 17.1122 21.2841 16.2677 20.2104 16.2677H20.1389C19.0292 16.3029 18.1703 17.2178 18.2061 18.3086C18.242 18.8364 18.4566 19.2938 18.7787 19.6105C17.5619 21.9681 15.7008 23.6923 12.9092 25.135C11.0123 26.1202 9.04387 26.4721 7.07545 26.2259C5.46485 26.0147 4.21219 25.311 3.42469 24.1497C2.27948 22.4256 2.17214 20.5606 3.1385 18.6957C3.81855 17.3585 4.89214 16.3732 5.57219 15.8806C5.42904 15.4232 5.21426 14.6491 5.10692 14.0861C-0.0826917 17.7808 0.45421 22.7774 2.02899 25.135C3.21002 26.8945 5.60801 27.9852 8.25648 27.9852C8.97224 27.9852 9.688 27.9148 10.4039 27.739C14.9851 26.8592 18.4567 24.1849 20.4252 20.2088ZM26.7243 15.8455C24.0042 12.7138 19.9957 10.9896 15.4145 10.9896H14.8419C14.5198 10.3562 13.8397 9.93392 13.0882 9.93392H13.0165C11.9071 9.96913 11.0482 10.884 11.0839 11.9749C11.1197 13.0304 12.0145 13.875 13.0882 13.875H13.1597C13.9471 13.8398 14.6271 13.3471 14.9134 12.6786H15.5577C18.2778 12.6786 20.8546 13.4527 23.1811 14.9658C24.9705 16.127 26.259 17.6401 26.9748 19.4698C27.5832 20.9477 27.5474 22.3903 26.9031 23.622C25.9011 25.4869 24.219 26.5073 21.9999 26.5073C20.5683 26.5073 19.2083 26.085 18.4924 25.7683C18.0988 26.1202 17.3829 26.6832 16.8818 27.0352C18.4209 27.7389 19.9957 28.126 21.4989 28.126C24.9347 28.126 27.4759 26.261 28.4422 24.3961C29.4801 22.3551 29.4085 18.8364 26.7243 15.8455ZM8.54278 20.8068C8.5786 21.8625 9.47333 22.7069 10.547 22.7069H10.6187C11.7282 22.6718 12.5871 21.7569 12.5513 20.6661C12.5155 19.6104 11.6207 18.766 10.547 18.766H10.4755C10.4039 18.766 10.2964 18.766 10.225 18.8011C8.75757 16.4083 8.14914 13.8046 8.36393 10.9895C8.50697 8.87824 9.22284 7.04845 10.4755 5.53534C11.5134 4.23339 13.5176 3.60003 14.8777 3.56492C18.6714 3.4945 20.2819 8.13924 20.3893 10.0042C20.8546 10.1098 21.642 10.3561 22.1789 10.5321C21.7493 4.83177 18.1703 1.87598 14.7346 1.87598C11.5134 1.87598 8.54278 4.16319 7.36164 7.54119C5.71534 12.0452 6.78904 16.3732 8.79327 19.7864C8.61441 20.0327 8.50697 20.4198 8.54278 20.8069V20.8068Z" fill="#764ABC"/>
</svg>
