<svg width="30" height="30" viewBox="0 0 30 30" fill="none" xmlns="http://www.w3.org/2000/svg">
<g clip-path="url(#clip0_363_4259)">
<path fill-rule="evenodd" clip-rule="evenodd" d="M23.0385 19.6259L6.31964 29.5534L27.9674 28.0845L29.6347 6.25607L23.0385 19.6259Z" fill="url(#paint0_linear_363_4259)"/>
<path fill-rule="evenodd" clip-rule="evenodd" d="M28.0029 28.0696L26.1423 15.2274L21.0742 21.9197L28.0029 28.0696Z" fill="url(#paint1_linear_363_4259)"/>
<path fill-rule="evenodd" clip-rule="evenodd" d="M28.028 28.0696L14.3968 26.9995L6.39203 29.5255L28.028 28.0696Z" fill="url(#paint2_linear_363_4259)"/>
<path fill-rule="evenodd" clip-rule="evenodd" d="M6.41127 29.5283L9.81653 18.3726L2.32318 19.9748L6.41127 29.5283Z" fill="url(#paint3_linear_363_4259)"/>
<path fill-rule="evenodd" clip-rule="evenodd" d="M21.0728 21.9566L17.9395 9.6835L8.9726 18.0888L21.0728 21.9566Z" fill="url(#paint4_linear_363_4259)"/>
<path fill-rule="evenodd" clip-rule="evenodd" d="M28.9238 9.85644L20.4476 2.93359L18.0873 10.5644L28.9238 9.85644Z" fill="url(#paint5_linear_363_4259)"/>
<path fill-rule="evenodd" clip-rule="evenodd" d="M24.9599 0.465355L19.9747 3.22031L16.8295 0.428406L24.9599 0.465355Z" fill="url(#paint6_linear_363_4259)"/>
<path fill-rule="evenodd" clip-rule="evenodd" d="M0.351562 23.7169L2.43995 19.9082L0.750617 15.3708L0.351562 23.7169Z" fill="url(#paint7_linear_363_4259)"/>
<path fill-rule="evenodd" clip-rule="evenodd" d="M0.638306 15.2274L2.33798 20.0486L9.72344 18.3916L18.1553 10.5554L20.5348 2.99714L16.788 0.351562L10.4179 2.73554C8.41099 4.60223 4.51652 8.29569 4.37611 8.36516C4.23718 8.4361 1.80443 13.0341 0.638306 15.2274Z" fill="white"/>
<path fill-rule="evenodd" clip-rule="evenodd" d="M6.60639 6.56646C10.9561 2.25372 16.5635 -0.29431 18.7155 1.87684C20.8661 4.04799 18.5854 9.32437 14.2357 13.6356C9.88602 17.9469 4.34804 20.6353 2.19758 18.4642C0.0456411 16.2945 2.2567 10.8777 6.60639 6.56646Z" fill="url(#paint8_linear_363_4259)"/>
<path fill-rule="evenodd" clip-rule="evenodd" d="M6.41125 29.5239L9.78991 18.3326L21.0107 21.9374C16.9537 25.7417 12.4414 28.9578 6.41125 29.5239Z" fill="url(#paint9_linear_363_4259)"/>
<path fill-rule="evenodd" clip-rule="evenodd" d="M18.17 10.5333L21.0506 21.9433C24.4396 18.3799 27.4813 14.549 28.971 9.81061L18.17 10.5333Z" fill="url(#paint10_linear_363_4259)"/>
<path fill-rule="evenodd" clip-rule="evenodd" d="M28.9416 9.86827C30.0944 6.38911 30.3604 1.39798 24.9243 0.471283L20.4637 2.93507L28.9416 9.86827Z" fill="url(#paint11_linear_363_4259)"/>
<path fill-rule="evenodd" clip-rule="evenodd" d="M0.351562 23.6667C0.511184 29.4088 4.65396 29.4943 6.41866 29.5447L2.3424 20.0249L0.351562 23.6667Z" fill="#9E1209"/>
<path fill-rule="evenodd" clip-rule="evenodd" d="M18.1862 10.5511C20.7904 12.1517 26.0388 15.3663 26.1452 15.4255C26.3106 15.5186 28.408 11.8887 28.8839 9.83722L18.1862 10.5511Z" fill="url(#paint12_radial_363_4259)"/>
<path fill-rule="evenodd" clip-rule="evenodd" d="M9.78552 18.3326L14.3022 27.0468C16.9729 25.5984 19.0643 23.8337 20.9797 21.9433L9.78552 18.3326Z" fill="url(#paint13_radial_363_4259)"/>
<path fill-rule="evenodd" clip-rule="evenodd" d="M2.32466 20.0368L1.68469 27.6572C2.8922 29.3066 4.55345 29.45 6.29598 29.3214C5.03527 26.1837 2.51679 19.9096 2.32466 20.0368Z" fill="url(#paint14_linear_363_4259)"/>
<path fill-rule="evenodd" clip-rule="evenodd" d="M20.4373 2.95428L29.4101 4.21352C28.9312 2.18425 27.4606 0.874763 24.954 0.465363L20.4373 2.95428Z" fill="url(#paint15_linear_363_4259)"/>
</g>
<defs>
<linearGradient id="paint0_linear_363_4259" x1="31.5245" y1="29.1275" x2="25.3635" y2="18.2166" gradientUnits="userSpaceOnUse">
<stop stop-color="#FB7655"/>
<stop stop-color="#FB7655"/>
<stop offset="0.41" stop-color="#E42B1E"/>
<stop offset="0.99" stop-color="#990000"/>
<stop offset="1" stop-color="#990000"/>
</linearGradient>
<linearGradient id="paint1_linear_363_4259" x1="29.5762" y1="14.6775" x2="21.5522" y2="14.2212" gradientUnits="userSpaceOnUse">
<stop stop-color="#871101"/>
<stop stop-color="#871101"/>
<stop offset="0.99" stop-color="#911209"/>
<stop offset="1" stop-color="#911209"/>
</linearGradient>
<linearGradient id="paint2_linear_363_4259" x1="40.1659" y1="32.5334" x2="40.1644" y2="27.1909" gradientUnits="userSpaceOnUse">
<stop stop-color="#871101"/>
<stop stop-color="#871101"/>
<stop offset="0.99" stop-color="#911209"/>
<stop offset="1" stop-color="#911209"/>
</linearGradient>
<linearGradient id="paint3_linear_363_4259" x1="4.85535" y1="22.7166" x2="7.04496" y2="25.6135" gradientUnits="userSpaceOnUse">
<stop stop-color="white"/>
<stop stop-color="white"/>
<stop offset="0.23" stop-color="#E57252"/>
<stop offset="0.46" stop-color="#DE3B20"/>
<stop offset="0.99" stop-color="#A60003"/>
<stop offset="1" stop-color="#A60003"/>
</linearGradient>
<linearGradient id="paint4_linear_363_4259" x1="10.6373" y1="12.0361" x2="11.1051" y2="19.9923" gradientUnits="userSpaceOnUse">
<stop stop-color="white"/>
<stop stop-color="white"/>
<stop offset="0.23" stop-color="#E4714E"/>
<stop offset="0.56" stop-color="#BE1A0D"/>
<stop offset="0.99" stop-color="#A80D00"/>
<stop offset="1" stop-color="#A80D00"/>
</linearGradient>
<linearGradient id="paint5_linear_363_4259" x1="18.6394" y1="4.36119" x2="18.9752" y2="10.2474" gradientUnits="userSpaceOnUse">
<stop stop-color="white"/>
<stop stop-color="white"/>
<stop offset="0.18" stop-color="#E46342"/>
<stop offset="0.4" stop-color="#C82410"/>
<stop offset="0.99" stop-color="#A80D00"/>
<stop offset="1" stop-color="#A80D00"/>
</linearGradient>
<linearGradient id="paint6_linear_363_4259" x1="24.8168" y1="2.17613" x2="24.8988" y2="-0.774063" gradientUnits="userSpaceOnUse">
<stop stop-color="white"/>
<stop stop-color="white"/>
<stop offset="0.54" stop-color="#C81F11"/>
<stop offset="0.99" stop-color="#BF0905"/>
<stop offset="1" stop-color="#BF0905"/>
</linearGradient>
<linearGradient id="paint7_linear_363_4259" x1="0.890594" y1="20.3578" x2="1.38455" y2="20.3772" gradientUnits="userSpaceOnUse">
<stop stop-color="white"/>
<stop stop-color="white"/>
<stop offset="0.31" stop-color="#DE4024"/>
<stop offset="0.99" stop-color="#BF190B"/>
<stop offset="1" stop-color="#BF190B"/>
</linearGradient>
<linearGradient id="paint8_linear_363_4259" x1="9.33189" y1="34.576" x2="31.9315" y2="11.2045" gradientUnits="userSpaceOnUse">
<stop stop-color="#BD0012"/>
<stop stop-color="#BD0012"/>
<stop offset="0.07" stop-color="white"/>
<stop offset="0.17" stop-color="white"/>
<stop offset="0.27" stop-color="#C82F1C"/>
<stop offset="0.33" stop-color="#820C01"/>
<stop offset="0.46" stop-color="#A31601"/>
<stop offset="0.72" stop-color="#B31301"/>
<stop offset="0.99" stop-color="#E82609"/>
<stop offset="1" stop-color="#E82609"/>
</linearGradient>
<linearGradient id="paint9_linear_363_4259" x1="15.5658" y1="24.0902" x2="12.1088" y2="21.6191" gradientUnits="userSpaceOnUse">
<stop stop-color="#8C0C01"/>
<stop stop-color="#8C0C01"/>
<stop offset="0.54" stop-color="#990C00"/>
<stop offset="0.99" stop-color="#A80D0E"/>
<stop offset="1" stop-color="#A80D0E"/>
</linearGradient>
<linearGradient id="paint10_linear_363_4259" x1="28.6575" y1="13.6921" x2="22.2014" y2="10.0578" gradientUnits="userSpaceOnUse">
<stop stop-color="#7E110B"/>
<stop stop-color="#7E110B"/>
<stop offset="0.99" stop-color="#9E0C00"/>
<stop offset="1" stop-color="#9E0C00"/>
</linearGradient>
<linearGradient id="paint11_linear_363_4259" x1="30.465" y1="5.7699" x2="27.3623" y2="2.77905" gradientUnits="userSpaceOnUse">
<stop stop-color="#79130D"/>
<stop stop-color="#79130D"/>
<stop offset="0.99" stop-color="#9E120B"/>
<stop offset="1" stop-color="#9E120B"/>
</linearGradient>
<radialGradient id="paint12_radial_363_4259" cx="0" cy="0" r="1" gradientUnits="userSpaceOnUse" gradientTransform="translate(21.6095 12.085) scale(7.44274 3.88912)">
<stop stop-color="#A80D00"/>
<stop stop-color="#A80D00"/>
<stop offset="0.99" stop-color="#7E0E08"/>
<stop offset="1" stop-color="#7E0E08"/>
</radialGradient>
<radialGradient id="paint13_radial_363_4259" cx="0" cy="0" r="1" gradientUnits="userSpaceOnUse" gradientTransform="translate(11.3023 21.8932) scale(9.89413 7.70211)">
<stop stop-color="#A30C00"/>
<stop stop-color="#A30C00"/>
<stop offset="0.99" stop-color="#800E08"/>
<stop offset="1" stop-color="#800E08"/>
</radialGradient>
<linearGradient id="paint14_linear_363_4259" x1="4.79946" y1="23.3836" x2="2.0325" y2="22.8216" gradientUnits="userSpaceOnUse">
<stop stop-color="#8B2114"/>
<stop stop-color="#8B2114"/>
<stop offset="0.43" stop-color="#9E100A"/>
<stop offset="0.99" stop-color="#B3100C"/>
<stop offset="1" stop-color="#B3100C"/>
</linearGradient>
<linearGradient id="paint15_linear_363_4259" x1="21.7037" y1="2.00111" x2="21.8758" y2="4.49561" gradientUnits="userSpaceOnUse">
<stop stop-color="#B31000"/>
<stop stop-color="#B31000"/>
<stop offset="0.44" stop-color="#910F08"/>
<stop offset="0.99" stop-color="#791C12"/>
<stop offset="1" stop-color="#791C12"/>
</linearGradient>
<clipPath id="clip0_363_4259">
<rect width="30" height="30" fill="white"/>
</clipPath>
</defs>
</svg>
