<svg width="30" height="30" viewBox="0 0 30 30" fill="none" xmlns="http://www.w3.org/2000/svg">
<g clip-path="url(#clip0_363_4299)">
<path d="M29.7945 14.632L28.5351 13.8524C28.5245 13.7297 28.5124 13.6073 28.4992 13.4855L29.5815 12.476C29.6916 12.3734 29.7409 12.2214 29.7111 12.0744C29.6821 11.9268 29.5787 11.8053 29.4379 11.7528L28.0544 11.2355C28.0197 11.1156 27.9833 10.9967 27.946 10.8783L28.8091 9.67965C28.8971 9.55783 28.9151 9.39933 28.8578 9.26031C28.8005 9.12187 28.6752 9.0227 28.527 8.99834L27.0681 8.76101C27.0114 8.65037 26.9523 8.54146 26.8927 8.4334L27.5058 7.08769C27.5686 6.95068 27.5557 6.79132 27.472 6.66692C27.3886 6.54195 27.2472 6.46886 27.0965 6.4746L25.6158 6.52619C25.5392 6.43046 25.4613 6.33558 25.3819 6.24243L25.7221 4.80013C25.7565 4.65366 25.7132 4.50032 25.6066 4.39398C25.5008 4.28793 25.3472 4.24407 25.2007 4.27847L23.7587 4.61841C23.6653 4.5393 23.5704 4.46105 23.4744 4.38452L23.5263 2.90381C23.532 2.7539 23.4589 2.61145 23.3339 2.52833C23.2087 2.44463 23.0502 2.43202 22.9135 2.49422L21.568 3.1076C21.4594 3.04798 21.3505 2.98894 21.2404 2.9319L21.0025 1.47268C20.9784 1.32479 20.8793 1.19924 20.7405 1.14192C20.6021 1.08431 20.4433 1.10294 20.3215 1.19064L19.122 2.05368C19.0039 2.01613 18.8852 1.98001 18.7654 1.94562L18.248 0.561787C18.1956 0.420767 18.0741 0.317295 17.9265 0.288059C17.7791 0.25911 17.6275 0.308123 17.5252 0.417614L16.5157 1.50077C16.3939 1.4873 16.2712 1.47498 16.1488 1.46495L15.3692 0.205224C15.2904 0.0776757 15.1508 0 15.0006 0C14.8504 0 14.7108 0.0776757 14.6323 0.205224L13.8526 1.46495C13.73 1.47498 13.6073 1.4873 13.4855 1.50077L12.4757 0.417614C12.3734 0.308123 12.2214 0.25911 12.0744 0.288059C11.9268 0.317582 11.8053 0.420767 11.7528 0.561787L11.2355 1.94562C11.1156 1.98001 10.997 2.01641 10.8786 2.05368L9.67936 1.19064C9.55755 1.10265 9.39875 1.08402 9.26003 1.14192C9.12159 1.19924 9.02213 1.32479 8.99805 1.47268L8.76015 2.9319C8.65009 2.98894 8.54117 3.04769 8.43254 3.1076L7.08712 2.49422C6.95039 2.43174 6.79103 2.44463 6.66664 2.52833C6.54167 2.61145 6.46858 2.7539 6.47431 2.90381L6.5259 4.38452C6.43017 4.46105 6.3353 4.5393 6.24157 4.61841L4.79955 4.27847C4.65309 4.24436 4.49946 4.28793 4.3934 4.39398C4.28678 4.50032 4.2435 4.65366 4.27789 4.80013L4.61755 6.24243C4.53872 6.33587 4.46076 6.43046 4.38423 6.52619L2.90352 6.4746C2.75419 6.4703 2.61145 6.54195 2.52804 6.66692C2.44435 6.79132 2.43174 6.95068 2.49393 7.08769L3.10731 8.4334C3.04769 8.54146 2.98865 8.65037 2.93161 8.76101L1.47268 8.99834C1.3245 9.02242 1.19953 9.12159 1.14192 9.26031C1.08459 9.39933 1.10322 9.55783 1.19064 9.67965L2.05368 10.8783C2.01613 10.9967 1.97973 11.1156 1.94533 11.2355L0.5615 11.7528C0.421054 11.8053 0.317582 11.9268 0.288346 12.0744C0.25911 12.2217 0.308123 12.3734 0.417901 12.476L1.50049 13.4855C1.48702 13.6073 1.47498 13.73 1.46466 13.8524L0.205224 14.632C0.0776757 14.7108 0 14.8501 0 15.0006C0 15.1511 0.0776757 15.2904 0.205224 15.3689L1.46466 16.1485C1.47498 16.2712 1.48702 16.3936 1.50049 16.5154L0.417901 17.5252C0.308123 17.6275 0.25911 17.7794 0.288346 17.9265C0.317582 18.0741 0.421054 18.1953 0.5615 18.248L1.94533 18.7654C1.97973 18.8852 2.01613 19.0042 2.05368 19.1225L1.19064 20.3215C1.10294 20.4436 1.08431 20.6021 1.14192 20.7405C1.19953 20.8796 1.32479 20.9787 1.47297 21.0025L2.93161 21.2398C2.98865 21.3505 3.04712 21.4594 3.10731 21.568L2.49393 22.9132C2.43145 23.0499 2.44435 23.209 2.52804 23.3339C2.61174 23.4592 2.75419 23.5323 2.90352 23.5263L4.38366 23.4744C4.46076 23.5707 4.53844 23.665 4.61755 23.7587L4.27789 25.2013C4.2435 25.3475 4.28678 25.5003 4.3934 25.6066C4.49917 25.7135 4.65309 25.7562 4.79955 25.7218L6.24157 25.3822C6.3353 25.4619 6.43017 25.5392 6.5259 25.6155L6.47431 27.0965C6.46858 27.2464 6.54167 27.3886 6.66664 27.4722C6.79103 27.5557 6.95039 27.5683 7.08712 27.5058L8.43254 26.8927C8.54088 26.9529 8.6498 27.0114 8.76015 27.0684L8.99805 28.5267C9.02213 28.6752 9.1213 28.8008 9.26003 28.8578C9.39847 28.9154 9.55755 28.8968 9.67936 28.8094L10.878 27.9458C10.9964 27.9833 11.1154 28.02 11.2352 28.0544L11.7525 29.4376C11.805 29.5781 11.9265 29.6821 12.0741 29.7108C12.2214 29.7406 12.3731 29.6913 12.4754 29.5812L13.4852 28.4987C13.607 28.5127 13.7297 28.5245 13.8524 28.5353L14.632 29.7948C14.7105 29.9218 14.8501 30 15.0003 30C15.1505 30 15.2901 29.922 15.3689 29.7948L16.1485 28.5353C16.2712 28.5245 16.3936 28.5127 16.5154 28.4987L17.5249 29.5812C17.6272 29.6913 17.7791 29.7406 17.9262 29.7108C18.0738 29.6818 18.1953 29.5781 18.2478 29.4376L18.7651 28.0544C18.8849 28.02 19.0039 27.9833 19.1223 27.9458L20.3212 28.8094C20.443 28.8968 20.6018 28.9154 20.7403 28.8578C20.879 28.8008 20.9782 28.6749 21.0022 28.5267L21.2401 27.0684C21.3502 27.0114 21.4591 26.952 21.5677 26.8927L22.9132 27.5058C23.0499 27.5683 23.209 27.5557 23.3337 27.4722C23.4586 27.3886 23.5314 27.2467 23.526 27.0965L23.4744 25.6155C23.5701 25.539 23.665 25.4619 23.7584 25.3822L25.2004 25.7218C25.3469 25.7562 25.5005 25.7135 25.6063 25.6066C25.7129 25.5003 25.7562 25.3475 25.7218 25.2013L25.3822 23.7587C25.4613 23.665 25.5392 23.5707 25.6155 23.4744L27.0962 23.5263C27.2455 23.5323 27.3883 23.4592 27.4717 23.3339C27.5554 23.209 27.5683 23.0499 27.5055 22.9132L26.8924 21.568C26.9523 21.4594 27.0111 21.3505 27.0678 21.2398L28.5267 21.0025C28.6752 20.9787 28.8002 20.8796 28.8575 20.7405C28.9148 20.6021 28.8968 20.4436 28.8088 20.3215L27.9458 19.1225C27.983 19.0042 28.0194 18.8852 28.0541 18.7654L29.4376 18.248C29.5784 18.1953 29.6821 18.0741 29.7108 17.9265C29.7406 17.7791 29.6913 17.6275 29.5812 17.5252L28.4989 16.5154C28.5121 16.3936 28.5242 16.2709 28.5348 16.1485L29.7942 15.3689C29.9218 15.2904 29.9994 15.1508 29.9994 15.0006C29.9994 14.8504 29.922 14.7108 29.7945 14.632ZM21.3651 25.0798C20.8841 24.976 20.5783 24.5019 20.6815 24.0195C20.7844 23.5377 21.2582 23.231 21.7389 23.3348C22.2198 23.4377 22.5262 23.9126 22.423 24.3942C22.3199 24.8757 21.8458 25.1827 21.3651 25.0798ZM20.9372 22.1854C20.4983 22.0914 20.0667 22.3706 19.9727 22.8103L19.5255 24.8969C18.1457 25.5232 16.6134 25.8712 14.9997 25.8712C13.349 25.8712 11.7835 25.506 10.379 24.8531L9.93217 22.7664C9.83815 22.3273 9.40649 22.0476 8.96796 22.1419L7.12581 22.5374C6.78386 22.1854 6.46571 21.8105 6.17335 21.4147H15.1367C15.2382 21.4147 15.3058 21.3963 15.3058 21.3041V18.1334C15.3058 18.0411 15.2382 18.0228 15.1367 18.0228H12.5152V16.0129H15.3505C15.6094 16.0129 16.7344 16.0869 17.0941 17.5249C17.2067 17.9672 17.4541 19.4057 17.6232 19.8663C17.7917 20.3828 18.4779 21.4147 19.2091 21.4147H23.6756C23.7263 21.4147 23.7805 21.409 23.8375 21.3986C23.5277 21.8197 23.1878 22.2181 22.8217 22.5904L20.9372 22.1854ZM8.54002 25.0362C8.05906 25.14 7.58556 24.8333 7.48209 24.3515C7.37919 23.8688 7.68502 23.395 8.16598 23.2912C8.64693 23.1883 9.12073 23.495 9.22391 23.9768C9.32681 24.4584 9.02069 24.933 8.54002 25.0362ZM5.13978 11.2481C5.33927 11.6984 5.13634 12.226 4.68662 12.4252C4.23691 12.625 3.71066 12.4218 3.51117 11.9712C3.31168 11.5206 3.51461 10.9938 3.96432 10.7941C4.41433 10.5946 4.94029 10.7975 5.13978 11.2481ZM4.09474 13.7254L6.0137 12.8727C6.42358 12.6907 6.60874 12.2103 6.42673 11.7995L6.03147 10.9058H7.58584V17.9121H4.44987C4.17786 16.9559 4.03197 15.9467 4.03197 14.9037C4.03197 14.5056 4.05347 14.112 4.09474 13.7254ZM12.5158 13.0449V10.9798H16.2173C16.4085 10.9798 17.5673 11.2008 17.5673 12.0672C17.5673 12.7867 16.6785 13.0446 15.9476 13.0446H12.5158V13.0449ZM25.9677 14.9037C25.9677 15.1777 25.9577 15.4489 25.9377 15.718H24.8124C24.6997 15.718 24.6544 15.7919 24.6544 15.9023V16.4191C24.6544 17.6355 23.9685 17.9001 23.3675 17.9674C22.7951 18.0319 22.1605 17.7278 22.0822 17.3776C21.7446 15.4784 21.182 15.0728 20.2934 14.372C21.3961 13.6718 22.5434 12.6388 22.5434 11.2561C22.5434 9.76306 21.5199 8.82264 20.8222 8.36145C19.8434 7.71626 18.7597 7.58699 18.4673 7.58699H6.82944C8.4076 5.82567 10.5464 4.57799 12.9655 4.12398L14.3373 5.56312C14.6475 5.88787 15.1611 5.89991 15.4855 5.58949L17.0204 4.1214C20.2367 4.72016 22.9596 6.72224 24.5289 9.46898L23.4781 11.8422C23.2967 12.253 23.4818 12.7334 23.8914 12.9154L25.9144 13.8139C25.9494 14.1731 25.9677 14.536 25.9677 14.9037ZM14.3379 2.8998C14.6933 2.55928 15.2571 2.57276 15.5973 2.92875C15.937 3.28559 15.9241 3.84996 15.5678 4.19019C15.2124 4.5307 14.6486 4.51751 14.3084 4.16095C13.969 3.80467 13.9819 3.24031 14.3379 2.8998ZM24.7654 11.2913C24.9646 10.8411 25.4908 10.6378 25.9405 10.8376C26.3902 11.0371 26.5932 11.5645 26.3937 12.0148C26.1945 12.4654 25.6682 12.6686 25.2182 12.4688C24.7691 12.2693 24.5661 11.7422 24.7654 11.2913Z" fill="black"/>
</g>
<defs>
<clipPath id="clip0_363_4299">
<rect width="30" height="30" fill="white"/>
</clipPath>
</defs>
</svg>
