<svg width="30" height="30" viewBox="0 0 30 30" fill="none" xmlns="http://www.w3.org/2000/svg">
<path d="M2.64851 18.3417C2.08435 16.5841 1.92161 14.7288 2.24709 12.8194C2.38813 12.0274 2.60512 11.2679 2.8438 10.4976C2.8438 10.4976 4.34101 5.58286 9.40764 3.33705C9.40764 3.33705 11.1544 2.41486 13.7799 2.34976C13.7799 2.34976 13.4219 2.00259 13.194 1.8507C11.9572 1.02615 10.1128 0.754916 8.99536 1.91579C8.65903 2.26297 8.37695 2.6427 8.06232 2.98987C7.7043 3.38045 7.27032 3.70593 6.77125 3.89037C6.33728 4.05311 5.90331 4.02056 5.45849 4.0965C5.00282 4.17245 4.5363 4.33519 4.16742 4.62812C3.76599 4.9536 3.60325 5.38757 3.55986 5.88664C3.51646 6.27722 3.52731 6.67864 3.50561 7.06922C3.45136 8.21924 3.08249 8.54472 2.25794 9.18483C1.91076 9.44522 1.61783 9.79239 1.40084 10.1613C0.749885 11.3113 1.79142 12.5047 1.84567 13.6656C1.85651 13.9043 1.83482 14.143 1.74802 14.3708C1.66123 14.6203 1.48764 14.7831 1.3466 14.9892C1.15131 15.2604 1.02112 15.5859 1.07536 15.9223C1.12961 16.2586 1.3032 16.5732 1.46594 16.8661C1.78057 17.3869 2.17114 17.8534 2.58342 18.2983C2.60512 18.2983 2.62682 18.32 2.64851 18.3417Z" fill="#E32286"/>
<path d="M23.3493 22.5077C25.8446 21.4228 26.9079 19.5459 26.9079 19.5459C29.2405 16.367 28.4485 13.0146 28.4485 13.0146C26.9621 16.2477 25.6059 17.1373 25.6059 17.1373C29.2622 11.5716 25.6276 8.20834 25.6276 8.20834C27.114 11.3763 25.1394 15.2387 25.1394 15.2387C23.4795 18.7322 21.1252 19.9798 21.1252 19.9798C23.7507 20.4681 25.6819 18.6996 25.6819 18.6996C21.9172 22.7681 17.8378 22.5728 17.8378 22.5728C19.552 24.4932 22.1233 24.3304 22.1233 24.3304C18.76 25.1224 15.6029 24.0049 13.0099 21.8459C12.5217 21.4445 12.0552 21.0105 11.6212 20.544C11.6212 20.544 11.2306 20.1317 11.1547 20.0232L11.1438 20.0124C11.0896 22.0195 13.1835 23.8856 13.1835 23.8856C10.5579 22.8007 9.35367 20.4464 9.35367 20.4464C9.35367 20.4464 7.58524 17.4303 8.86546 13.991C10.1457 10.5518 14.0189 9.81404 14.0189 9.81404C17.2194 11.3655 19.9318 11.8537 19.9318 11.8537C25.6493 12.8084 25.3239 10.0093 25.3239 10.0093C25.3781 7.60078 21.7436 5.04034 21.7436 5.04034C15.2666 0.234094 9.40792 3.337 9.40792 3.337C4.34129 5.58281 2.84409 10.4975 2.84409 10.4975C2.6054 11.2678 2.38841 12.0273 2.24737 12.8193C1.69406 16.0415 2.52946 19.0902 4.34129 21.8025C7.16211 26.0121 11.7405 27.4659 11.7405 27.4659C18.5213 29.7659 23.154 26.3809 23.154 26.3809C27.4178 23.4516 28.2749 20.0666 28.2749 20.0666C24.8356 22.7573 23.3493 22.5077 23.3493 22.5077ZM18.0548 6.67859C18.3803 6.67859 18.6407 6.93897 18.6407 7.26445C18.6407 7.58993 18.3803 7.85031 18.0548 7.85031C17.7293 7.85031 17.469 7.58993 17.469 7.26445C17.469 6.93897 17.7293 6.67859 18.0548 6.67859Z" fill="url(#paint0_linear_79_2036)"/>
<path d="M25.3129 9.99847C25.3672 7.58992 21.7326 5.02948 21.7326 5.02948C15.2556 0.234086 9.39697 3.33699 9.39697 3.33699C4.33034 5.5828 2.83313 10.4975 2.83313 10.4975C2.5402 11.3329 2.27981 12.6132 2.27981 12.6132C1.96518 14.2189 2.10623 15.7052 2.10623 15.7052C2.23642 17.1265 2.55105 18.0812 2.55105 18.0812C2.87653 19.101 3.02842 19.4157 3.02842 19.4157C3.01757 19.3831 2.96332 19.1444 2.96332 19.1444C2.96332 19.1444 2.50765 16.9529 2.93077 14.8481C2.93077 14.8481 3.29965 12.6566 4.79686 10.9641C4.79686 10.9641 7.2271 7.50313 11.7513 8.85929C11.7513 8.85929 12.7277 9.20647 13.064 9.38006C13.4004 9.5428 13.9862 9.79233 13.9862 9.79233C17.1868 11.3438 19.8991 11.832 19.8991 11.832C25.6384 12.7976 25.3129 9.99847 25.3129 9.99847ZM18.0547 7.86115C17.7292 7.86115 17.4689 7.60077 17.4689 7.27529C17.4689 6.94981 17.7292 6.68943 18.0547 6.68943C18.3802 6.68943 18.6406 6.94981 18.6406 7.27529C18.6406 7.60077 18.3802 7.86115 18.0547 7.86115Z" fill="url(#paint1_radial_79_2036)"/>
<path d="M14.3441 5.63703L10.6445 4.487C10.6228 4.487 10.5143 4.43275 10.319 4.487C10.319 4.487 8.13831 5.04032 8.51803 6.23374C8.51803 6.23374 8.74587 6.98234 9.36428 7.70925L13.4328 7.51396L14.3441 5.63703Z" fill="url(#paint2_linear_79_2036)"/>
<defs>
<linearGradient id="paint0_linear_79_2036" x1="5.24135" y1="26.1966" x2="18.7418" y2="11.8345" gradientUnits="userSpaceOnUse">
<stop stop-color="#E01D84"/>
<stop offset="0.401" stop-color="#DF1D85"/>
<stop offset="0.77" stop-color="#932C87"/>
<stop offset="1" stop-color="#5D2F88"/>
</linearGradient>
<radialGradient id="paint1_radial_79_2036" cx="0" cy="0" r="1" gradientUnits="userSpaceOnUse" gradientTransform="translate(20.1004 8.02427) rotate(0.136937) scale(13.1909 11.0302)">
<stop stop-color="#E01D84"/>
<stop offset="0.139" stop-color="#DE1E85"/>
<stop offset="0.285" stop-color="#D62085"/>
<stop offset="0.434" stop-color="#C92386"/>
<stop offset="0.586" stop-color="#B72786"/>
<stop offset="0.739" stop-color="#9D2B87"/>
<stop offset="0.891" stop-color="#7C2E88"/>
<stop offset="1" stop-color="#5D2F88"/>
</radialGradient>
<linearGradient id="paint2_linear_79_2036" x1="8.46509" y1="6.08576" x2="14.341" y2="6.08576" gradientUnits="userSpaceOnUse">
<stop stop-color="#E01D84"/>
<stop offset="0.238" stop-color="#DA1E85"/>
<stop offset="0.658" stop-color="#C72085"/>
<stop offset="0.999" stop-color="#B52284"/>
</linearGradient>
</defs>
</svg>
