<svg width="30" height="30" viewBox="0 0 30 30" fill="none" xmlns="http://www.w3.org/2000/svg">
<path d="M22.8125 7.5C21.9837 7.5 21.1937 7.66 20.4637 7.94063C19.5756 6.55 18.0225 5.625 16.25 5.625C14.9331 5.625 13.7387 6.13813 12.8456 6.97C11.7594 5.76313 10.1894 5 8.4375 5C5.15812 5 2.5 7.65813 2.5 10.9375C2.5 11.4325 2.5675 11.9113 2.68125 12.3706C1.43187 13.3431 0.625 14.8569 0.625 16.5625C0.625 19.4963 3.00375 21.875 5.9375 21.875C6.19562 21.875 6.4475 21.8506 6.69625 21.815C7.51687 23.6894 9.38562 25 11.5625 25C13.5387 25 15.26 23.9181 16.175 22.3169C16.5975 22.4331 17.0406 22.5 17.5 22.5C19.1375 22.5 20.5862 21.7094 21.4987 20.4931C21.9231 20.5794 22.3625 20.625 22.8125 20.625C26.4369 20.625 29.375 17.6869 29.375 14.0625C29.375 10.4381 26.4369 7.5 22.8125 7.5Z" fill="#039BE5"/>
<path d="M9.88937 15.625C9.91749 15.625 9.93687 15.6019 9.93687 15.5731C9.93687 15.6019 9.91687 15.625 9.88937 15.625ZM13.4394 14.9588C13.4544 14.9588 13.4687 14.9638 13.4737 14.9669C13.4687 14.9638 13.455 14.9588 13.4406 14.9588C13.44 14.9581 13.4394 14.9588 13.4394 14.9588ZM4.46124 14.9563C4.47562 14.9563 4.48937 14.9612 4.49749 14.9662C4.48937 14.9619 4.47624 14.9556 4.46249 14.9556C4.46187 14.9556 4.46124 14.9563 4.46124 14.9563ZM15.0787 13.6931C15.0687 13.7175 15.05 13.7212 15.0337 13.72C15.0362 13.7206 15.0362 13.7219 15.0394 13.7219C15.0537 13.7212 15.07 13.715 15.0787 13.6931ZM9.88937 11.875C9.91749 11.875 9.93687 11.8981 9.93687 11.9263C9.93687 11.8981 9.91687 11.875 9.88937 11.875ZM13.3494 13.8656C13.3494 14.1206 13.4812 14.2794 13.6656 14.3875C13.4806 14.2794 13.3494 14.1212 13.3494 13.8656ZM6.10249 13.6931C6.09249 13.7175 6.07374 13.7212 6.05749 13.72C6.05999 13.7206 6.05999 13.7219 6.06312 13.7219C6.07812 13.7212 6.09374 13.715 6.10249 13.6931ZM21.9969 15.1025C22.0375 15.1687 22.0856 15.2294 22.14 15.2856C22.0856 15.23 22.0381 15.1687 21.9969 15.1025ZM23.6437 13.6231C23.6362 13.6231 23.6275 13.6219 23.6275 13.6219C23.6275 13.6219 23.6337 13.6244 23.6425 13.6244C23.6425 13.6244 23.6431 13.6231 23.6437 13.6231ZM23.645 15.1181C23.645 15.1181 23.6556 15.1162 23.6662 15.1156C23.6656 15.1156 23.6656 15.115 23.665 15.115C23.6537 15.115 23.645 15.1181 23.645 15.1181Z" fill="white"/>
<path d="M4.30315 15.2888C4.28503 15.3325 4.3094 15.3413 4.31565 15.3488C4.37003 15.385 4.4244 15.4113 4.4794 15.44C4.77253 15.5831 5.05003 15.625 5.3394 15.625C5.9294 15.625 6.29565 15.3362 6.29565 14.8706V14.8619C6.29565 14.4312 5.8819 14.275 5.4944 14.1619L5.44378 14.1469C5.15128 14.0594 4.8994 13.9838 4.8994 13.8063V13.7975C4.8994 13.6456 5.0469 13.5337 5.27565 13.5337C5.5294 13.5337 5.83065 13.6119 6.02503 13.7106C6.02503 13.7106 6.08253 13.7444 6.10315 13.6937C6.1144 13.6662 6.21253 13.4225 6.22315 13.3963C6.2344 13.3681 6.2144 13.3463 6.1944 13.335C5.9719 13.21 5.66565 13.125 5.34878 13.125L5.29003 13.1256C4.75003 13.1256 4.37315 13.4262 4.37315 13.8569V13.8656C4.37315 14.3194 4.78878 14.4669 5.17878 14.5694L5.24128 14.5875C5.52503 14.6675 5.77003 14.7369 5.77003 14.9206V14.93C5.77003 15.0981 5.61065 15.2238 5.3544 15.2238C5.2544 15.2238 4.93753 15.2225 4.5944 15.0225C4.55315 15 4.5294 14.9844 4.49753 14.9662C4.48065 14.9562 4.43815 14.94 4.42003 14.9906L4.30315 15.2888ZM13.2794 15.2888C13.2613 15.3325 13.2857 15.3413 13.2919 15.3488C13.3463 15.385 13.4007 15.4113 13.4557 15.44C13.7488 15.5831 14.0263 15.625 14.3157 15.625C14.9057 15.625 15.2719 15.3362 15.2719 14.8706V14.8619C15.2719 14.4312 14.8582 14.275 14.4707 14.1619L14.42 14.1469C14.1275 14.0594 13.8757 13.9838 13.8757 13.8063V13.7975C13.8757 13.6456 14.0232 13.5337 14.2519 13.5337C14.5057 13.5337 14.8069 13.6119 15.0013 13.7106C15.0013 13.7106 15.0588 13.7444 15.0794 13.6937C15.0907 13.6662 15.1888 13.4225 15.1994 13.3963C15.2107 13.3681 15.1907 13.3463 15.1707 13.335C14.9482 13.21 14.6419 13.125 14.325 13.125L14.2663 13.1256C13.7263 13.1256 13.3494 13.4262 13.3494 13.8569V13.8656C13.3494 14.3194 13.7657 14.4669 14.155 14.5694L14.2175 14.5875C14.5013 14.6675 14.7463 14.7369 14.7463 14.9206V14.93C14.7463 15.0981 14.5869 15.2238 14.3307 15.2238C14.2307 15.2238 13.9138 15.2225 13.5707 15.0225C13.5294 15 13.505 14.985 13.4738 14.9662C13.4632 14.96 13.4132 14.9419 13.3963 14.9906L13.2794 15.2888ZM19.6657 13.8869C19.6175 13.735 19.5419 13.6012 19.4419 13.49C19.3419 13.3781 19.2144 13.2888 19.0638 13.2238C18.9132 13.1581 18.7357 13.125 18.5363 13.125C18.3363 13.125 18.1588 13.1581 18.0082 13.2231C17.8575 13.2881 17.7307 13.3781 17.6307 13.49C17.53 13.6012 17.455 13.735 17.4069 13.8863C17.3588 14.0369 17.3344 14.2019 17.3344 14.3769C17.3344 14.5519 17.3588 14.7169 17.4069 14.8675C17.455 15.0188 17.53 15.1525 17.6307 15.2644C17.7307 15.3763 17.8582 15.4656 18.0088 15.5288C18.1594 15.5919 18.3363 15.625 18.5363 15.625C18.7357 15.625 18.9125 15.5931 19.0638 15.5294C19.2144 15.4656 19.3413 15.3763 19.4419 15.265C19.5419 15.1537 19.6175 15.02 19.6657 14.8681C19.7138 14.7175 19.7382 14.5525 19.7382 14.3775C19.7382 14.2025 19.7138 14.0375 19.6657 13.8869ZM19.1732 14.3775C19.1732 14.6419 19.12 14.8513 19.015 14.9981C18.9113 15.1437 18.7544 15.215 18.5357 15.215C18.3169 15.215 18.1607 15.1437 18.0588 14.9981C17.955 14.8506 17.9032 14.6419 17.9032 14.3775C17.9032 14.1131 17.9557 13.905 18.0588 13.7588C18.1613 13.6144 18.3175 13.5444 18.5363 13.5444C18.755 13.5444 18.9113 13.6144 19.0157 13.7588C19.12 13.9044 19.1732 14.1131 19.1732 14.3775ZM23.7082 15.1456C23.6919 15.1013 23.645 15.1181 23.645 15.1181C23.5738 15.1437 23.4975 15.1669 23.4163 15.1787C23.3344 15.1906 23.2438 15.1969 23.1469 15.1969C22.9088 15.1969 22.7194 15.1313 22.5838 15.0013C22.4482 14.8713 22.3719 14.6613 22.3725 14.3769C22.3732 14.1188 22.4407 13.9244 22.5613 13.7756C22.6813 13.6281 22.8644 13.5525 23.1075 13.5525C23.3107 13.5525 23.4657 13.5744 23.6275 13.6213C23.6275 13.6213 23.6663 13.6369 23.6844 13.59C23.7282 13.4787 23.7594 13.4 23.8057 13.2781C23.8188 13.2431 23.7869 13.2288 23.775 13.2244C23.7113 13.2013 23.5607 13.1631 23.4469 13.1469C23.3407 13.1331 23.2157 13.125 23.0775 13.125C22.8707 13.125 22.6869 13.1581 22.5288 13.2231C22.3713 13.2875 22.2382 13.3775 22.1319 13.4894C22.0263 13.6013 21.9463 13.7344 21.8925 13.8856C21.8388 14.0362 21.8125 14.2019 21.8125 14.3775C21.8125 14.7563 21.9225 15.0619 22.14 15.2856C22.3582 15.5113 22.685 15.625 23.1119 15.625C23.3644 15.625 23.6225 15.5775 23.8094 15.51C23.8094 15.51 23.845 15.4938 23.8294 15.4556L23.7082 15.1456ZM26.2269 13.8006C26.185 13.6537 26.0813 13.5063 26.0138 13.4388C25.9063 13.3313 25.8013 13.2562 25.6975 13.215C25.5613 13.1606 25.3988 13.125 25.22 13.125C25.0119 13.125 24.8232 13.1575 24.67 13.2244C24.5169 13.2913 24.3875 13.3825 24.2863 13.4962C24.185 13.6094 24.1094 13.7444 24.0607 13.8975C24.0119 14.0494 23.9875 14.2156 23.9875 14.3906C23.9875 14.5687 24.0132 14.735 24.0632 14.8844C24.1138 15.035 24.195 15.1675 24.3044 15.2775C24.4144 15.3881 24.555 15.4744 24.7238 15.535C24.8913 15.595 25.095 15.6262 25.3288 15.6256C25.81 15.6244 26.0638 15.525 26.1682 15.4713C26.1869 15.4613 26.2038 15.445 26.1825 15.3969L26.0732 15.1137C26.0569 15.0719 26.0107 15.0869 26.0107 15.0869C25.8913 15.1281 25.7219 15.2019 25.3263 15.2013C25.0675 15.2006 24.8763 15.1306 24.7563 15.0194C24.6332 14.9063 24.5725 14.74 24.5625 14.5056L26.2288 14.5069C26.2288 14.5069 26.2725 14.5063 26.2775 14.4663C26.2782 14.4494 26.3338 14.1481 26.2269 13.8006ZM24.5694 14.1231C24.5932 13.9763 24.6363 13.8538 24.7044 13.7588C24.8063 13.6144 24.9619 13.5344 25.1807 13.5344C25.3994 13.5344 25.5438 13.6144 25.6475 13.7588C25.7163 13.8544 25.7463 13.9812 25.7582 14.1237L24.5694 14.1231ZM12.7832 13.8006C12.7413 13.6537 12.6375 13.5063 12.57 13.4388C12.4625 13.3313 12.3582 13.2562 12.2538 13.215C12.1175 13.1606 11.955 13.125 11.7769 13.125C11.5688 13.125 11.38 13.1575 11.2263 13.2244C11.0732 13.2913 10.9438 13.3825 10.8425 13.4962C10.7413 13.6094 10.6657 13.7444 10.6169 13.8975C10.5682 14.0494 10.5438 14.2156 10.5438 14.3906C10.5438 14.5687 10.5694 14.735 10.6194 14.8844C10.67 15.035 10.7513 15.1675 10.8607 15.2775C10.9707 15.3881 11.1113 15.4744 11.28 15.535C11.4475 15.595 11.6513 15.6262 11.885 15.6256C12.3663 15.6244 12.62 15.525 12.7244 15.4713C12.7432 15.4613 12.76 15.445 12.7388 15.3969L12.6294 15.1137C12.6132 15.0719 12.5669 15.0869 12.5669 15.0869C12.4475 15.1281 12.2782 15.2019 11.8825 15.2013C11.6244 15.2006 11.4325 15.1306 11.3125 15.0194C11.1894 14.9063 11.1288 14.74 11.1188 14.5056L12.785 14.5069C12.785 14.5069 12.8288 14.5063 12.8338 14.4663C12.835 14.4494 12.89 14.1481 12.7832 13.8006ZM11.1263 14.1231C11.15 13.9763 11.1932 13.8538 11.2607 13.7588C11.3632 13.6144 11.5182 13.5344 11.7375 13.5344C11.9563 13.5344 12.1007 13.6144 12.205 13.7588C12.2738 13.8544 12.3038 13.9812 12.315 14.1237L11.1263 14.1231ZM8.08128 14.0513C8.01378 14.0469 7.92628 14.0444 7.82128 14.0444C7.67815 14.0444 7.54003 14.0606 7.41065 14.0931C7.28065 14.1256 7.16378 14.1756 7.06315 14.2425C6.9619 14.31 6.88065 14.3956 6.82128 14.4975C6.7619 14.5994 6.7319 14.7194 6.7319 14.8531C6.7319 14.99 6.75753 15.1088 6.80815 15.2056C6.85878 15.3031 6.9319 15.3844 7.02503 15.4475C7.11753 15.51 7.2319 15.5563 7.3644 15.5838C7.49628 15.6106 7.6444 15.625 7.8069 15.625C7.97815 15.625 8.14815 15.6119 8.31315 15.5856C8.4769 15.56 8.6769 15.5225 8.73253 15.51C8.78815 15.4981 8.8494 15.4825 8.8494 15.4825C8.89065 15.4725 8.88753 15.4319 8.88753 15.4319L8.8869 14.02C8.8869 13.71 8.79753 13.4806 8.62253 13.3381C8.4469 13.1969 8.18878 13.125 7.85628 13.125C7.73128 13.125 7.53065 13.1406 7.4094 13.1631C7.4094 13.1631 7.04565 13.2288 6.89628 13.3375C6.89628 13.3375 6.86315 13.3562 6.88128 13.3987L6.9994 13.6925C7.0144 13.7306 7.0544 13.7175 7.0544 13.7175C7.0544 13.7175 7.0669 13.7131 7.0819 13.7044C7.4019 13.5431 7.80753 13.5475 7.80753 13.5475C7.98753 13.5475 8.12628 13.5813 8.2194 13.6475C8.31003 13.7125 8.35628 13.8094 8.35628 14.0156V14.0813C8.21315 14.0619 8.08128 14.0513 8.08128 14.0513ZM7.41815 15.1363C7.35253 15.0881 7.34378 15.0762 7.32253 15.0444C7.2894 14.9969 7.27253 14.9294 7.27253 14.8438C7.27253 14.7081 7.32128 14.6106 7.42128 14.545C7.42128 14.545 7.56503 14.4294 7.9044 14.4331C8.14315 14.4356 8.3569 14.4687 8.3569 14.4687V15.1706C8.3569 15.1706 8.14503 15.2125 7.9069 15.2256C7.56815 15.245 7.4169 15.1356 7.41815 15.1363ZM21.725 13.2306C21.7375 13.1944 21.7113 13.1775 21.7 13.1731C21.6719 13.1631 21.53 13.1344 21.4207 13.1275C21.2113 13.1156 21.095 13.1488 20.9907 13.1938C20.8869 13.2381 20.7725 13.3106 20.7094 13.3925L20.7088 13.1981C20.7088 13.1713 20.6888 13.15 20.6613 13.15H20.2338C20.2057 13.15 20.1863 13.1713 20.1863 13.1981V15.5769C20.1863 15.6038 20.2088 15.625 20.2369 15.625H20.6744C20.7025 15.625 20.7244 15.6038 20.7244 15.5769V14.3887C20.7244 14.2287 20.7432 14.07 20.78 13.97C20.8157 13.8712 20.865 13.7919 20.9257 13.7356C20.9863 13.6787 21.0557 13.6394 21.1319 13.6169C21.2094 13.5944 21.295 13.5863 21.355 13.5863C21.4425 13.5863 21.5382 13.6081 21.5382 13.6081C21.5707 13.6113 21.5882 13.5925 21.5994 13.565C21.6288 13.4925 21.71 13.2738 21.725 13.2306Z" fill="white"/>
<path d="M17.6269 11.9414C17.5738 11.9251 17.5256 11.9139 17.4619 11.9026C17.3975 11.8907 17.3219 11.8851 17.2356 11.8851C16.9344 11.8851 16.6969 11.9707 16.53 12.1389C16.3644 12.3057 16.2513 12.5601 16.195 12.8945L16.1638 13.1232H15.7856C15.7856 13.1232 15.7394 13.1214 15.73 13.172L15.6681 13.5182C15.6638 13.5514 15.6781 13.572 15.7225 13.572H16.0913L15.7175 15.6576C15.6881 15.8251 15.655 15.9632 15.6175 16.0682C15.5813 16.172 15.545 16.2489 15.5013 16.3051C15.4588 16.3595 15.4181 16.3995 15.3488 16.4232C15.2913 16.442 15.225 16.4514 15.1525 16.4514C15.1125 16.4514 15.0588 16.4445 15.0188 16.4364C14.9788 16.4289 14.9581 16.4201 14.9288 16.4076C14.9288 16.4076 14.8856 16.3914 14.8681 16.4345C14.8544 16.4701 14.7569 16.7401 14.745 16.7732C14.7331 16.8064 14.7494 16.832 14.7706 16.8395C14.8194 16.857 14.8563 16.8682 14.9225 16.8839C15.0156 16.9057 15.0938 16.907 15.1669 16.907C15.32 16.907 15.46 16.8857 15.5756 16.8439C15.6925 16.8014 15.7938 16.7282 15.8838 16.6295C15.9806 16.522 16.0419 16.4095 16.1 16.2564C16.1581 16.1045 16.2069 15.9164 16.2469 15.6964L16.6219 13.572H17.1706C17.1706 13.572 17.2169 13.5739 17.2263 13.5232L17.2881 13.177C17.2925 13.1439 17.2781 13.1232 17.2338 13.1232H16.7006C16.7031 13.1114 16.7381 12.8076 16.7994 12.6314C16.8256 12.5557 16.8744 12.4951 16.9163 12.4532C16.9569 12.412 17.0044 12.3832 17.0556 12.3664C17.1088 12.3495 17.1688 12.3407 17.2344 12.3407C17.2844 12.3407 17.3338 12.3464 17.3713 12.3545C17.4225 12.3657 17.4431 12.3714 17.4569 12.3751C17.5113 12.392 17.5181 12.3757 17.5294 12.3495L17.6563 11.9995C17.6706 11.962 17.6388 11.9464 17.6269 11.9414ZM9.9369 15.5732C9.9369 15.602 9.9169 15.6251 9.8894 15.6251H9.44752C9.4194 15.6251 9.40002 15.602 9.40002 15.5732V11.927C9.40002 11.8982 9.42002 11.8757 9.44752 11.8757H9.8894C9.91752 11.8757 9.9369 11.8989 9.9369 11.927V15.5732Z" fill="white"/>
</svg>
