<svg width="30" height="30" viewBox="0 0 30 30" fill="none" xmlns="http://www.w3.org/2000/svg">
<path d="M0 7.5V22.5H15.625L30 7.5H0Z" fill="#1976D2"/>
<path d="M17.1875 11.25H14.375V15.625V16.875V17.1875L12 11.25H9.8125L7.8825 16.1769C7.62938 15.0819 6.47062 14.6663 5.75 14.5C3.875 14 3.75 13.75 3.75 13.375C3.75 12.4375 6.25 12.875 6.875 13.125C7.0625 12.625 7.4375 11.6875 7.4375 11.6875C7.4375 11.6875 6.75 11.25 4.625 11.25C2.5 11.25 1.875 12.5625 1.875 13.375C1.875 14.1875 2.3125 15.125 3.5 15.5C4.75 15.875 5.6875 15.9375 5.6875 16.5625C5.6875 17.1875 3.5625 17.3125 2.375 16.5625L1.875 18.1875C1.875 18.1875 2.5625 18.75 4.625 18.75C5.73813 18.75 6.60437 18.4356 7.175 17.9838L6.875 18.75H9.0625L9.4375 17.625C9.875 17.8125 10.375 17.9375 10.9375 17.9375C11.5 17.9375 12 17.8125 12.4375 17.625L12.8125 18.75H14.375H15H16.25V16.875H17.1875C18.75 16.875 20 15.625 20 14.0625C20 12.5 18.75 11.25 17.1875 11.25ZM10.9375 16.3125C10.5625 16.3125 10.25 16.25 10 16.0625L10.9375 13.375L11.875 16.0625C11.625 16.25 11.3125 16.3125 10.9375 16.3125ZM17.1875 15H16.25V13.125H17.1875C17.6875 13.125 18.125 13.5625 18.125 14.0625C18.125 14.5625 17.6875 15 17.1875 15Z" fill="white"/>
</svg>
