<svg width="30" height="30" viewBox="0 0 30 30" fill="none" xmlns="http://www.w3.org/2000/svg">
<g clip-path="url(#clip0_364_2416)">
<path d="M6.66796 0C6.84374 0 22.9922 0 23.2851 0C24.0937 0 24.8789 0.128906 25.6406 0.398438C26.7422 0.796875 27.7383 1.5 28.4883 2.41406C29.25 3.32812 29.7539 4.45312 29.9297 5.625C30 6.05859 30.0117 6.49219 30.0117 6.92578C30.0117 7.32422 30.0117 21.3633 30.0117 21.9961C30.0117 22.3711 30.0117 22.7578 30.0117 23.1328C30.0117 23.6484 29.9883 24.1758 29.8828 24.6797C29.6484 25.8398 29.0976 26.9297 28.3008 27.8086C27.5156 28.6875 26.4844 29.3438 25.3711 29.6953C24.6914 29.9062 23.9883 30 23.2734 30C22.957 30 6.62108 30 6.37499 29.9883C5.17968 29.9297 3.99608 29.543 2.99999 28.875C2.02733 28.2188 1.23046 27.3047 0.714833 26.25C0.269521 25.3477 0.0468643 24.3398 0.0468643 23.332C0.0468643 23.0977 0.0468643 6.90234 0.0468643 6.66797C0.0234268 5.67188 0.234364 4.6875 0.667958 3.79688C1.17186 2.74219 1.95702 1.81641 2.92968 1.16016C3.92577 0.480469 5.09765 0.0820312 6.29296 0.0234375C6.41015 0 6.53905 0 6.66796 0Z" fill="url(#paint0_linear_364_2416)"/>
<path d="M25.3125 24.5391C25.207 24.375 25.0898 24.2109 24.9609 24.0586C24.668 23.707 24.3281 23.4023 23.9531 23.1445C23.4844 22.8281 22.9336 22.6289 22.3711 22.6055C21.9727 22.582 21.5742 22.6523 21.1992 22.793C20.8242 22.9219 20.4609 23.1094 20.1094 23.2969C19.6992 23.5078 19.2891 23.7188 18.8555 23.8945C18.3398 24.1055 17.8008 24.2695 17.25 24.3867C16.5586 24.5156 15.8555 24.5625 15.1641 24.5508C13.9102 24.5273 12.6562 24.3398 11.4609 23.9883C10.4062 23.6719 9.39844 23.2383 8.44922 22.6875C7.61719 22.207 6.84375 21.6562 6.11719 21.0352C5.51953 20.5195 4.96875 19.9688 4.45312 19.3828C4.10156 18.9727 3.76172 18.5391 3.44531 18.0938C3.31641 17.918 3.19922 17.7305 3.09375 17.543L0 14.2031V6.64453C0 2.97656 2.96484 0 6.63281 0H12.5508L16.9336 4.45312C26.8242 11.1797 23.625 18.5977 23.625 18.5977C23.625 18.5977 26.4375 21.7617 25.3125 24.5391Z" fill="url(#paint1_linear_364_2416)"/>
<path d="M16.957 4.45312C26.8477 11.1797 23.6484 18.5977 23.6484 18.5977C23.6484 18.5977 26.4609 21.7734 25.3242 24.5508C25.3242 24.5508 24.1641 22.6055 22.2188 22.6055C20.3438 22.6055 19.2422 24.5508 15.4688 24.5508C7.06641 24.5508 3.09375 17.5313 3.09375 17.5313C10.6641 22.5117 15.832 18.9844 15.832 18.9844C12.4219 17.0039 5.16797 7.53516 5.16797 7.53516C11.4844 12.9141 14.2148 14.332 14.2148 14.332C12.5859 12.9844 8.01562 6.39844 8.01562 6.39844C11.6719 10.1016 18.9375 15.2695 18.9375 15.2695C21 9.55078 16.957 4.45312 16.957 4.45312Z" fill="white"/>
</g>
<defs>
<linearGradient id="paint0_linear_364_2416" x1="17.8465" y1="-1.07048" x2="12.1785" y2="31.0742" gradientUnits="userSpaceOnUse">
<stop stop-color="#FAAE42"/>
<stop offset="1" stop-color="#EF3E31"/>
</linearGradient>
<linearGradient id="paint1_linear_364_2416" x1="15.3061" y1="0.484722" x2="11.1578" y2="24.0109" gradientUnits="userSpaceOnUse">
<stop stop-color="#E39F3A"/>
<stop offset="1" stop-color="#D33929"/>
</linearGradient>
<clipPath id="clip0_364_2416">
<rect width="30" height="30" fill="white"/>
</clipPath>
</defs>
</svg>
