<svg width="30" height="30" viewBox="0 0 30 30" fill="none" xmlns="http://www.w3.org/2000/svg">
<g clip-path="url(#clip0_363_4248)">
<path d="M29.6344 11.9156L26.4314 0L14.4703 3.19406L12.7008 6.30516L9.11623 6.27938L0.365601 15.0023L9.11716 23.723L12.7069 23.6963L14.4787 26.8073L26.4319 29.9995L29.6344 18.0848L27.8156 15L29.6344 11.9156ZM22.1344 4.4625L16.8919 13.5281H6.3956L13.0022 6.80625L22.1344 4.4625ZM16.8919 16.4742L22.14 25.5389L12.9961 23.1895L6.38904 16.4766H16.8853L16.8919 16.4742ZM19.455 15.0023L24.7031 5.93672L27.2404 15.0023L24.7031 24.0656L19.455 15.0023Z" fill="#222C37"/>
</g>
<defs>
<clipPath id="clip0_363_4248">
<rect width="30" height="30" fill="white"/>
</clipPath>
</defs>
</svg>
