<svg width="30" height="30" viewBox="0 0 30 30" fill="none" xmlns="http://www.w3.org/2000/svg">
<g clip-path="url(#clip0_363_4327)">
<path fill-rule="evenodd" clip-rule="evenodd" d="M9.42813 29.9651H7.08392V27.3309H9.39126V27.9143H7.71116V28.3629H9.30165V28.9132H7.71209V29.3669H9.42813V29.9663V29.9651Z" fill="black"/>
<path fill-rule="evenodd" clip-rule="evenodd" d="M22.9156 29.9652H20.6083V27.3727H22.8797V27.9441H21.2266V28.3852H22.7919V28.9263H21.2266V29.3732H22.9156V29.9634V29.9652Z" fill="black"/>
<path fill-rule="evenodd" clip-rule="evenodd" d="M12.6068 29.9651H11.6585L10.4096 27.9949H10.3975V29.9651H9.77679V27.3309H10.7405L11.974 29.3034H11.9861V27.3309H12.6082V29.9651H12.6068Z" fill="black"/>
<path fill-rule="evenodd" clip-rule="evenodd" d="M20.1234 29.9651H19.175L17.9262 27.9949H17.914V29.9651H17.2905V27.3309H18.2542L19.4877 29.3034H19.4999V27.3309H20.1234V29.9651Z" fill="black"/>
<path fill-rule="evenodd" clip-rule="evenodd" d="M14.4395 30C14.2407 30 14.0695 29.9939 13.9261 29.9817C13.8016 29.974 13.6779 29.9514 13.557 29.9143C13.4683 29.8872 13.3847 29.8393 13.311 29.7732C13.2465 29.7116 13.1957 29.631 13.1635 29.5389C13.1248 29.4274 13.1 29.3093 13.0903 29.1886C13.0772 29.0269 13.0711 28.8644 13.0721 28.7018V28.6247C13.0711 28.4609 13.0775 28.2973 13.0912 28.1344C13.1004 28.0133 13.1246 27.8946 13.1631 27.7824C13.1958 27.6907 13.2466 27.6104 13.311 27.5487C13.3848 27.483 13.4686 27.436 13.5574 27.4104C13.6781 27.3736 13.8014 27.3512 13.9256 27.3436C14.0703 27.3321 14.2414 27.3264 14.439 27.3264H14.5323C14.6979 27.3264 14.8429 27.3308 14.9673 27.3396C15.075 27.3461 15.1821 27.3621 15.2879 27.3876C15.3653 27.4053 15.44 27.4373 15.5096 27.4824C15.5656 27.5188 15.6136 27.5711 15.6496 27.635C15.6853 27.7024 15.7093 27.778 15.7201 27.8573C15.734 27.9571 15.7406 28.0583 15.7397 28.1595V28.2607H15.133V28.2287C15.1341 28.177 15.1263 28.1256 15.1101 28.0778C15.0911 28.033 15.0594 27.9983 15.021 27.9801C14.9612 27.9518 14.8983 27.9344 14.8343 27.9287C14.754 27.9192 14.6482 27.9142 14.5169 27.9138H14.4637C14.3446 27.9138 14.2428 27.9163 14.1585 27.9213C14.0877 27.9243 14.0173 27.9352 13.948 27.9538C13.9001 27.9664 13.8548 27.9911 13.815 28.0264C13.7811 28.0594 13.7555 28.1036 13.7413 28.1538C13.7237 28.2185 13.7133 28.2857 13.7105 28.3538C13.7058 28.4332 13.7035 28.5287 13.7035 28.6395V28.6864C13.7035 28.7955 13.7058 28.8886 13.7105 28.9664C13.7135 29.0331 13.7238 29.099 13.7413 29.1623C13.7555 29.2122 13.7811 29.256 13.815 29.2886C13.8548 29.3239 13.9001 29.3486 13.948 29.3612C14.0173 29.3798 14.0877 29.3907 14.1585 29.3938C14.2428 29.3991 14.3446 29.4016 14.4637 29.4012H14.5169C14.614 29.4012 14.6976 29.4012 14.7676 29.3949C14.8376 29.3886 14.8968 29.3835 14.9449 29.3743C14.9844 29.3676 15.0231 29.3543 15.0597 29.3349C15.0859 29.3206 15.1088 29.2986 15.1264 29.2709C15.1425 29.2445 15.1532 29.2137 15.1577 29.1812C15.1629 29.1411 15.1654 29.1006 15.1652 29.0601V28.9869H14.3396V28.4784H15.7644V29.0635C15.7654 29.175 15.7587 29.2865 15.7443 29.3966C15.7328 29.4839 15.7081 29.5678 15.6715 29.644C15.6363 29.7137 15.5884 29.7723 15.5315 29.8155C15.4617 29.8665 15.3856 29.9033 15.3061 29.9246C15.1987 29.9543 15.0894 29.9734 14.9794 29.9817C14.8525 29.9932 14.705 29.9989 14.5361 29.9989L14.4395 30Z" fill="black"/>
<path fill-rule="evenodd" clip-rule="evenodd" d="M16.8331 29.9714H16.2026V27.3567H16.8331V29.9714Z" fill="black"/>
<path fill-rule="evenodd" clip-rule="evenodd" d="M2.24996 25.951C1.94505 25.951 1.67779 25.9409 1.44818 25.9208C1.24805 25.9064 1.04921 25.8722 0.853608 25.8185C0.708041 25.78 0.568339 25.7137 0.439651 25.6219C0.334148 25.5441 0.244589 25.4378 0.177836 25.3111C0.108974 25.1751 0.0622251 25.0242 0.040161 24.8665C0.0113871 24.6677 -0.00205067 24.4661 2.52935e-05 24.2642V21.2929H1.10609V23.8254C1.10609 23.982 1.1106 24.1164 1.11962 24.2288C1.12596 24.3269 1.14437 24.4232 1.17423 24.5145C1.19943 24.5902 1.24048 24.6564 1.29323 24.7065C1.35501 24.7609 1.42496 24.7997 1.49905 24.8208C1.60221 24.8528 1.70776 24.8719 1.81406 24.8779C1.93914 24.8865 2.08755 24.8911 2.26069 24.8911H2.35403C2.5267 24.8911 2.67542 24.8861 2.80019 24.8762C2.90646 24.8697 3.01204 24.8515 3.11567 24.8219C3.18996 24.8016 3.26002 24.7627 3.32148 24.7077C3.37356 24.6569 3.41433 24.5908 3.44002 24.5157C3.47026 24.4245 3.48884 24.3281 3.49509 24.23C3.50381 24.1157 3.50816 23.9824 3.50816 23.83V21.2924H4.61469V24.2637C4.6163 24.4648 4.60381 24.6657 4.57736 24.8642C4.55688 25.0222 4.51138 25.1738 4.44342 25.3105C4.37772 25.4371 4.28909 25.5435 4.1844 25.6213C4.05609 25.7132 3.91668 25.7795 3.77138 25.8179C3.57501 25.8718 3.37538 25.906 3.17448 25.9202C2.94268 25.94 2.67278 25.9501 2.36476 25.9505L2.24996 25.951Z" fill="black"/>
<path fill-rule="evenodd" clip-rule="evenodd" d="M10.3022 25.8945H8.64828L6.47069 22.4489H6.44922V25.8945H5.36462V21.2861H7.04472L9.19571 24.7351H9.21671V21.2861H10.3013V25.8922L10.3022 25.8945Z" fill="black"/>
<path fill-rule="evenodd" clip-rule="evenodd" d="M13.563 23.6128C13.7539 23.6128 13.9056 23.6059 14.019 23.5917C14.1092 23.5852 14.1971 23.5546 14.2766 23.5019C14.3334 23.46 14.3746 23.3925 14.3914 23.3139C14.4115 23.2093 14.4206 23.102 14.4185 22.9945V22.9151C14.4205 22.809 14.4114 22.703 14.3914 22.5997C14.3833 22.5608 14.3688 22.5244 14.3488 22.4926C14.3288 22.4607 14.3038 22.4342 14.2752 22.4146C14.1947 22.3639 14.1065 22.3346 14.0162 22.3283C13.9028 22.314 13.752 22.3071 13.563 22.3071H12.1844V23.6128H13.563ZM15.5325 25.8944H14.4395V25.5207C14.4403 25.4047 14.4359 25.2887 14.4264 25.1733C14.42 25.0877 14.4008 25.0042 14.3699 24.927C14.3423 24.8611 14.3009 24.8054 14.25 24.7653C14.1871 24.7189 14.1178 24.687 14.0456 24.671C13.9425 24.6461 13.8379 24.6312 13.7329 24.6265C13.6085 24.6185 13.461 24.6145 13.2905 24.6145H12.1844V25.8944H11.0886V21.286H14.0069C14.2601 21.2809 14.5132 21.3043 14.7629 21.3557C14.9313 21.3873 15.0912 21.4672 15.2296 21.5889C15.3439 21.6989 15.4268 21.8506 15.4662 22.022C15.5136 22.2392 15.5356 22.4635 15.5315 22.6883V22.85C15.5331 23.0093 15.5215 23.1683 15.497 23.3248C15.4774 23.449 15.4392 23.5677 15.3845 23.6751C15.333 23.7729 15.2647 23.8558 15.1843 23.9179C15.0912 23.9873 14.9891 24.0365 14.8824 24.0636V24.0899C14.9931 24.1098 15.1018 24.1437 15.2067 24.1911C15.2862 24.2266 15.3554 24.2898 15.406 24.3728C15.4586 24.4672 15.4925 24.5754 15.5049 24.6888C15.5247 24.8539 15.5336 25.0207 15.5315 25.1876V25.8921L15.5325 25.8944Z" fill="black"/>
<path fill-rule="evenodd" clip-rule="evenodd" d="M20.339 25.8945H16.2507V21.2861H20.2746V22.3049H17.3461V23.0883H20.1196V24.0505H17.3461V24.8442H20.339V25.8922V25.8945Z" fill="black"/>
<path fill-rule="evenodd" clip-rule="evenodd" d="M24.0352 24.1094L23.2684 22.2609H23.2413L22.4801 24.1094H24.0352ZM25.971 25.8979H24.7781L24.4333 25.0711H22.0872L21.7479 25.8979H20.5639L22.5842 21.2924H23.9418L25.971 25.8979Z" fill="black"/>
<path fill-rule="evenodd" clip-rule="evenodd" d="M30 25.8979H26.3766V21.2924H27.4827V24.8288H30V25.9002V25.8979Z" fill="black"/>
<path fill-rule="evenodd" clip-rule="evenodd" d="M19.5223 10.6579C19.3911 11.4327 18.8073 13.4201 16.9466 14.4966L16.1999 13.4681L14.9398 15.02C14.2224 15.0082 13.5168 14.7934 12.8784 14.3924C12.24 13.9915 11.6859 13.4152 11.2595 12.7087C11.3935 12.7597 11.532 12.7915 11.672 12.8035C11.8783 12.8081 12.1019 12.7155 12.1019 12.2892V8.10369C12.1049 7.99598 12.0873 7.88889 12.0505 7.79102C12.0136 7.69315 11.9586 7.60722 11.8897 7.54015C11.8208 7.47308 11.74 7.42672 11.6538 7.40481C11.5676 7.3829 11.4784 7.38605 11.3934 7.414C10.81 7.57742 10.3434 9.36078 10.3434 9.36078C10.3369 8.53724 10.477 7.72186 10.7539 6.97131C11.0308 6.22077 11.4379 5.55308 11.9469 5.01466C12.8159 4.11298 13.6648 3.80099 14.3098 3.67871C13.6727 4.12327 13.3143 4.84895 13.3143 5.45807C13.3143 6.43461 13.796 6.31918 13.9388 6.17519V11.8275C13.9629 11.8986 13.9943 11.9656 14.0321 12.027C14.0959 12.135 14.1799 12.2227 14.2771 12.2827C14.3743 12.3428 14.4819 12.3734 14.5907 12.3721C15.0733 12.3721 15.6991 11.6978 15.6991 11.6978V7.12087C15.6991 6.65517 15.4126 6.09233 15.1256 5.90034C15.1256 5.90034 15.6567 5.78606 16.0674 6.16947C16.1444 6.05398 16.2263 5.94355 16.3128 5.83863C17.2677 4.6901 18.1689 4.3644 18.9193 4.20098C18.9193 4.20098 17.5533 5.51521 17.5533 7.27515C17.5533 8.58538 17.5808 11.7801 17.5808 11.7801C18.0891 12.3778 18.8418 11.515 19.5223 10.6579Z" fill="black"/>
<path fill-rule="evenodd" clip-rule="evenodd" d="M15 7.00919e-08C13.4948 0.000113087 12.0234 0.546711 10.772 1.57067C9.5205 2.59463 8.54513 4.04997 7.96921 5.75264C7.39328 7.45531 7.24266 9.32885 7.5364 11.1363C7.83014 12.9438 8.55504 14.604 9.61944 15.9071C10.6838 17.2102 12.0399 18.0975 13.5162 18.4569C14.9925 18.8164 16.5227 18.6317 17.9132 17.9264C19.3038 17.221 20.4923 16.0266 21.3285 14.4942C22.1647 12.9618 22.6109 11.1603 22.6108 9.31736C22.6108 8.09369 22.414 6.882 22.0315 5.7515C21.649 4.62099 21.0883 3.5938 20.3816 2.72859C19.6749 1.86338 18.8358 1.17709 17.9125 0.708914C16.9891 0.24074 15.9994 -0.000150018 15 7.00919e-08ZM15 18.2627C13.555 18.2628 12.1424 17.7383 10.9408 16.7554C9.73927 15.7726 8.80276 14.3755 8.24971 12.741C7.69665 11.1065 7.5519 9.30782 7.83376 7.57255C8.11561 5.83728 8.81141 4.24332 9.83317 2.99223C10.8549 1.74114 12.1567 0.889116 13.574 0.543911C14.9913 0.198705 16.4603 0.37582 17.7953 1.05286C19.1304 1.72989 20.2715 2.87645 21.0743 4.34752C21.8771 5.81859 22.3056 7.54811 22.3056 9.31736C22.3056 11.6897 21.5359 13.9649 20.1659 15.6425C18.7958 17.3201 16.9376 18.2626 15 18.2627Z" fill="black"/>
</g>
<defs>
<clipPath id="clip0_363_4327">
<rect width="30" height="30" fill="white"/>
</clipPath>
</defs>
</svg>
