<svg width="40" height="36" viewBox="0 0 40 36" fill="none" xmlns="http://www.w3.org/2000/svg">
<g clip-path="url(#clip0_67_2188)">
<path d="M11.5416 0.200195C10.4613 0.202486 9.40379 0.815713 8.85995 1.75121L0.401526 16.4445C-0.133842 17.3825 -0.133842 18.6085 0.401526 19.5465L8.85995 34.2397C9.40385 35.1752 10.4613 35.7886 11.5416 35.7907H28.4584C29.5387 35.7885 30.5962 35.1752 31.1401 34.2397L39.5985 19.5465C40.1339 18.6085 40.1338 17.3825 39.5985 16.4445L31.1401 1.75121C30.5962 0.815713 29.5387 0.202314 28.4584 0.200195L11.5416 0.200195ZM11.6951 8.79592C11.7184 8.79363 11.7427 8.79363 11.7661 8.79592H14.684C14.8131 8.79859 14.9384 8.87324 15.0029 8.98535L19.9528 17.806C19.9777 17.8496 19.9937 17.8982 19.9998 17.9481C20.0059 17.8982 20.022 17.8496 20.0469 17.806L24.9849 8.98535C25.0514 8.86984 25.1826 8.79478 25.3156 8.79592H28.2335C28.4919 8.79821 28.6854 9.12365 28.5643 9.35239L23.7327 17.9955L28.5643 26.6267C28.6969 26.8568 28.4986 27.1973 28.2335 27.195H25.3156C25.1803 27.1939 25.0483 27.1136 24.9849 26.9938L20.0469 18.1731C20.022 18.1295 20.0059 18.0809 19.9998 18.031C19.9937 18.0809 19.9777 18.1295 19.9528 18.1731L15.0029 26.9938C14.9413 27.1102 14.8154 27.1897 14.684 27.195H11.7661C11.501 27.1973 11.3028 26.8568 11.4353 26.6267L16.267 17.9955L11.4353 9.35239C11.3195 9.14369 11.4608 8.84046 11.6951 8.79592Z" fill="#3498DB"/>
</g>
<defs>
<clipPath id="clip0_67_2188">
<rect width="40" height="35.625" fill="white" transform="translate(0 0.200195)"/>
</clipPath>
</defs>
</svg>
